<?xml version="1.0" standalone="no"?>
<!DOCTYPE svg PUBLIC "-//W3C//DTD SVG 20010904//EN"
 "http://www.w3.org/TR/2001/REC-SVG-20010904/DTD/svg10.dtd">
<svg version="1.0" xmlns="http://www.w3.org/2000/svg"
 width="961.000000pt" height="201.000000pt" viewBox="0 0 961.000000 201.000000"
 preserveAspectRatio="xMidYMid meet">

<g transform="translate(0.000000,201.000000) scale(0.100000,-0.100000)"
fill="#000000" stroke="none">
<path d="M6373 1350 c-101 -21 -178 -82 -228 -182 -31 -63 -35 -79 -35 -149 0
-148 67 -257 197 -321 161 -79 362 -8 445 156 57 112 48 252 -22 358 -67 101
-230 164 -357 138z m186 -50 c52 -27 96 -77 127 -145 24 -51 28 -73 28 -145
-1 -108 -34 -191 -102 -250 -51 -46 -93 -60 -176 -60 -173 0 -284 171 -246
380 31 172 127 258 274 244 33 -3 76 -14 95 -24z"/>
<path d="M1360 1188 c0 -90 -3 -241 -7 -335 l-6 -173 38 0 38 0 -6 48 c-12 92
-20 487 -10 477 5 -5 23 -30 40 -55 119 -179 206 -300 217 -300 7 0 26 24 41
53 16 28 68 121 116 205 l87 153 7 -263 c3 -145 5 -274 3 -288 -3 -23 1 -25
36 -28 l39 -3 -6 173 c-4 95 -7 244 -7 331 l0 158 -32 -3 c-31 -3 -38 -13
-143 -198 -61 -107 -116 -195 -122 -195 -6 0 -71 90 -145 200 -98 146 -140
201 -156 203 -22 3 -22 3 -22 -160z"/>
<path d="M2752 1333 c-45 -22 -74 -67 -80 -123 -7 -74 24 -119 128 -188 105
-70 166 -129 175 -171 9 -43 -10 -95 -48 -127 -28 -24 -37 -26 -103 -22 -63 3
-79 8 -118 35 l-46 33 0 -34 c0 -32 3 -35 53 -52 61 -21 180 -23 217 -4 106
54 141 167 82 261 -20 31 -58 64 -123 108 -150 102 -170 128 -154 202 15 65
123 90 214 48 49 -22 70 -14 52 19 -18 34 -188 45 -249 15z"/>
<path d="M3520 1332 c-49 -24 -80 -75 -80 -129 0 -86 38 -132 201 -241 87 -58
115 -101 105 -161 -15 -96 -165 -134 -266 -67 -22 14 -42 26 -45 26 -4 0 -5
-14 -3 -32 3 -29 8 -34 48 -46 69 -20 178 -19 220 2 79 41 110 89 110 168 0
71 -29 113 -122 173 -137 89 -149 99 -169 126 -27 38 -25 101 4 135 34 39 126
46 190 15 54 -26 57 -26 57 0 0 30 -56 49 -142 49 -50 0 -84 -6 -108 -18z"/>
<path d="M5625 1330 c-66 -26 -140 -91 -170 -150 -35 -68 -49 -163 -36 -235
35 -187 226 -310 431 -276 40 6 81 16 92 22 18 10 43 57 35 66 -2 2 -27 -8
-54 -22 -155 -81 -327 -25 -403 130 -22 43 -25 64 -25 150 1 89 4 106 27 151
55 104 116 145 228 152 71 4 118 -6 203 -43 14 -6 17 -2 17 23 0 29 -2 30 -63
41 -100 17 -224 13 -282 -9z"/>
<path d="M7596 1288 c-3 -35 -8 -186 -12 -335 l-7 -273 32 0 32 0 -3 270 c-2
149 -3 270 -3 270 1 0 104 -124 230 -275 126 -151 232 -275 236 -275 6 0 11
81 25 493 l6 177 -30 0 c-17 0 -33 -4 -36 -8 -3 -5 -1 -80 5 -168 5 -87 8
-205 7 -262 l-3 -103 -115 142 c-199 246 -314 382 -336 396 -21 13 -22 12 -28
-49z"/>
<path d="M439 1063 c0 -353 -9 -474 -38 -531 -32 -62 -20 -74 25 -26 66 67 67
78 71 477 l4 357 -30 0 -31 0 -1 -277z"/>
<path d="M887 1333 c-2 -5 -19 -53 -37 -108 -41 -125 -116 -323 -170 -444 -22
-51 -40 -94 -40 -96 0 -3 18 -5 39 -5 l40 0 31 96 c17 53 40 120 51 150 l20
54 105 0 c57 0 104 -1 104 -3 0 -1 24 -68 54 -147 53 -141 55 -145 85 -148 22
-2 31 1 31 12 0 25 -180 509 -231 619 -10 21 -19 27 -45 27 -18 0 -35 -3 -37
-7z m85 -206 c21 -48 38 -92 38 -98 0 -5 -39 -9 -89 -9 l-89 0 30 117 c16 64
32 121 35 126 7 12 24 -19 75 -136z"/>
<path d="M2230 1010 l0 -330 83 -1 c45 -1 91 -2 102 -2 92 -1 105 2 105 29 0
24 -3 26 -32 21 -18 -3 -68 -9 -110 -13 l-78 -6 0 152 0 152 103 -3 c101 -4
102 -4 105 20 l4 24 -105 -7 -104 -7 -6 77 c-4 42 -7 104 -7 136 l0 60 114 -7
c110 -7 113 -7 119 14 5 21 3 21 -144 21 l-149 0 0 -330z"/>
<path d="M4122 1288 c-11 -29 -36 -100 -57 -158 -21 -58 -67 -177 -102 -265
-36 -88 -67 -166 -70 -172 -4 -9 7 -13 36 -13 23 0 41 1 41 3 0 9 80 278 85
287 4 6 51 10 115 10 93 0 109 -2 115 -17 4 -10 20 -56 37 -103 56 -158 66
-177 99 -182 16 -3 31 -3 33 -1 2 2 -36 108 -84 236 -168 447 -159 427 -200
427 -25 0 -31 -6 -48 -52z m73 -115 c21 -49 44 -103 52 -120 l13 -33 -93 0
-94 0 36 124 c19 69 38 123 42 121 3 -3 23 -44 44 -92z"/>
<path d="M4540 1334 c0 -3 48 -77 106 -163 l105 -158 -56 -79 c-30 -43 -82
-116 -115 -161 -33 -45 -60 -84 -60 -88 0 -3 19 -5 42 -3 l41 3 81 142 c45 78
84 142 87 143 3 0 51 -65 108 -145 57 -80 109 -145 116 -145 7 0 20 -3 29 -6
9 -4 18 0 22 10 4 10 -36 77 -110 185 l-115 170 89 123 c50 68 97 135 105 151
15 27 15 27 -14 27 -26 0 -37 -12 -115 -130 -47 -71 -88 -130 -90 -130 -2 0
-15 17 -27 38 -12 20 -52 79 -88 129 -63 88 -68 93 -103 93 -21 0 -38 -3 -38
-6z"/>
<path d="M6990 1012 l0 -330 27 -5 c16 -3 31 -3 35 0 5 2 8 146 8 320 l0 315
65 -4 c89 -5 117 -32 122 -115 5 -75 -17 -113 -81 -139 -25 -10 -46 -22 -46
-25 0 -3 18 -11 40 -18 49 -14 72 -47 131 -181 51 -117 72 -141 133 -147 49
-6 65 10 22 21 -25 6 -31 17 -106 181 -34 77 -60 109 -104 132 l-29 15 38 21
c51 29 76 66 82 119 7 58 -15 100 -69 136 -38 25 -51 27 -155 31 l-113 3 0
-330z"/>
<path d="M8370 1004 l0 -337 31 7 c17 3 85 6 151 6 118 0 119 0 116 23 -3 25
-19 27 -150 13 l-77 -8 -3 54 c-2 29 -2 97 0 152 l3 98 102 -3 c101 -4 102 -4
105 20 l4 24 -106 -8 -106 -7 0 137 0 137 110 -7 c108 -7 110 -7 110 14 0 20
-4 21 -145 21 l-145 0 0 -336z"/>
<path d="M8850 1009 l0 -330 38 3 37 3 -3 108 c-2 59 -1 199 3 312 l8 205 44
0 c99 0 149 -51 141 -142 -6 -59 -43 -103 -100 -120 -45 -13 -48 -23 -11 -33
66 -16 108 -73 163 -223 28 -77 65 -112 121 -112 21 0 39 5 39 10 0 6 -7 10
-15 10 -25 0 -54 41 -85 124 -42 111 -73 160 -116 187 l-37 22 35 18 c92 47
110 166 36 236 -46 42 -86 53 -199 53 l-99 0 0 -331z"/>
</g>
</svg>
