<?xml version="1.0" standalone="no"?>
<!DOCTYPE svg PUBLIC "-//W3C//DTD SVG 20010904//EN"
 "http://www.w3.org/TR/2001/REC-SVG-20010904/DTD/svg10.dtd">
<svg version="1.0" xmlns="http://www.w3.org/2000/svg"
 width="695.000000pt" height="767.000000pt" viewBox="0 0 695.000000 767.000000"
 preserveAspectRatio="xMidYMid meet">

<g transform="translate(0.000000,767.000000) scale(0.100000,-0.100000)"
fill="#000000" stroke="none">
<path d="M6160 7596 l0 -75 -143 6 c-213 9 -465 -19 -697 -76 l-75 -19 -24 22
c-13 11 -32 40 -43 64 -10 23 -23 42 -28 42 -5 0 -10 -36 -12 -81 l-3 -80
-105 -40 c-220 -83 -438 -202 -653 -356 -112 -80 -121 -85 -134 -68 -7 11 -13
25 -13 32 0 7 -7 13 -15 13 -12 0 -15 -13 -15 -56 0 -49 -3 -59 -27 -78 -15
-11 -107 -86 -203 -166 -270 -223 -309 -250 -362 -250 -25 0 -72 -3 -104 -6
l-60 -6 4 -63 4 -62 -58 -36 c-174 -104 -440 -217 -638 -271 -186 -51 -176
-49 -176 -27 0 11 -20 45 -45 76 -25 31 -51 68 -58 82 -10 24 -13 13 -17 -87
l-5 -115 -90 -12 c-49 -6 -161 -15 -249 -19 l-158 -7 3 104 4 104 -120 7 c-66
3 -121 5 -122 4 -1 -1 -5 -47 -9 -104 -8 -118 7 -110 -149 -87 -55 8 -103 15
-107 15 -5 0 -8 14 -8 31 0 17 -4 28 -10 24 -5 -3 -10 -15 -10 -26 0 -25 -15
-24 -127 6 -123 33 -231 75 -294 116 l-52 33 24 19 c47 38 177 96 354 157 201
69 287 112 335 167 l33 37 -8 170 c-4 103 -12 184 -20 203 -16 37 -74 74 -160
99 -68 20 -98 43 -126 94 l-18 35 -1 -49 0 -49 -82 6 c-46 4 -102 7 -125 7
l-43 0 0 45 c0 25 -4 45 -10 45 -5 0 -10 -20 -10 -45 l0 -45 -45 0 c-33 0 -45
4 -45 15 0 8 -4 15 -10 15 -5 0 -10 -9 -10 -20 0 -25 -18 -26 -36 -2 -12 16
-13 16 -14 0 0 -12 -12 -18 -42 -22 -114 -15 -263 -37 -284 -42 l-22 -6 24 59
c28 68 30 119 8 193 -29 99 -60 122 -102 77 -48 -51 -68 -149 -52 -252 l11
-68 -32 -26 c-18 -15 -61 -35 -95 -45 -35 -10 -64 -22 -64 -27 0 -12 11 -11
60 6 23 8 44 15 46 15 7 0 -62 -102 -85 -128 -25 -27 -27 -36 -6 -28 23 9 21
-92 -2 -111 -17 -13 -16 -14 5 -10 12 3 22 1 22 -3 0 -5 11 -22 26 -39 l25
-30 -40 -20 c-38 -20 -61 -41 -44 -41 4 0 27 11 50 24 l42 24 55 -22 55 -23
-33 -15 c-57 -28 -176 -107 -176 -119 0 -11 -2 -12 90 47 79 50 164 94 184 94
15 0 36 -75 36 -129 0 -37 -32 -77 -67 -84 -44 -8 -54 2 -27 28 29 29 30 45 3
79 -38 48 -109 20 -109 -43 0 -97 157 -133 211 -48 20 32 21 88 3 182 -5 29
-3 32 48 57 170 84 461 142 673 136 l110 -3 -134 -49 c-167 -61 -313 -133
-368 -180 -71 -62 -80 -95 -88 -306 -8 -213 -5 -228 66 -298 156 -154 543
-261 1049 -290 121 -7 124 -8 131 -32 l6 -25 7 26 7 26 202 6 c111 3 247 13
302 21 145 22 132 27 140 -58 l7 -73 139 40 139 41 0 68 0 67 42 12 c286 76
588 209 968 424 181 103 398 212 511 258 l86 34 7 -66 c3 -36 6 -85 6 -108 0
-33 4 -43 17 -43 14 0 15 12 9 115 l-6 114 82 25 c236 72 368 91 628 90 291 0
457 -30 696 -123 136 -53 199 -86 324 -168 182 -120 336 -261 474 -431 28 -35
52 -58 54 -52 5 15 -98 139 -203 243 -388 385 -877 576 -1420 553 -213 -8
-428 -46 -584 -101 -24 -8 -46 -13 -49 -10 -3 3 -7 41 -10 86 -4 62 -1 83 9
90 36 23 307 102 426 124 138 26 419 52 430 41 4 -4 -1 -28 -10 -54 -21 -59
-21 -62 2 -62 15 0 23 13 36 55 l16 55 60 0 c108 0 200 -19 221 -46 27 -34 79
-45 144 -32 50 10 60 8 160 -26 250 -87 491 -236 692 -430 49 -48 82 -73 82
-63 0 20 -152 159 -264 242 -169 125 -350 220 -523 276 -40 12 -73 26 -73 31
0 4 9 12 19 18 37 19 61 73 61 136 0 85 6 90 71 69 154 -50 239 -88 239 -106
0 -10 13 -33 29 -51 28 -31 33 -33 101 -34 67 -1 75 -4 143 -49 40 -26 100
-70 135 -97 34 -27 62 -44 62 -36 -1 13 -141 123 -212 167 -21 12 -38 25 -38
27 0 3 16 19 36 36 51 45 64 77 64 158 0 38 2 70 5 70 3 0 35 -18 71 -40 72
-44 74 -44 74 -30 0 5 -31 28 -70 51 l-70 41 0 165 0 164 23 -7 c12 -3 39 -15
59 -25 40 -21 58 -24 58 -11 0 5 -30 22 -66 37 l-67 28 6 154 5 153 -334 0
-334 0 0 -74z m622 -93 c-2 -65 -5 -119 -6 -120 -1 -2 -41 10 -87 26 -109 36
-281 77 -394 94 -81 11 -90 15 -93 35 -2 12 -2 22 0 23 6 2 534 56 558 58 l25
1 -3 -117z m-668 -1 l38 -7 -1 -125 c-1 -68 -4 -126 -6 -128 -2 -2 -46 2 -97
9 -161 22 -465 14 -645 -17 -29 -5 -32 -3 -38 28 -12 52 -42 104 -76 131 l-32
25 109 25 c100 23 281 52 379 60 77 7 330 6 369 -1z m329 -46 c121 -27 265
-69 310 -93 18 -9 27 -20 23 -28 -3 -8 -6 -78 -7 -155 0 -77 -4 -140 -9 -140
-4 0 -40 15 -81 34 -124 57 -289 111 -461 150 l-28 6 0 132 0 131 71 -7 c39
-3 121 -17 182 -30z m-1198 -89 c48 -27 98 -95 93 -127 -3 -21 -7 -20 -66 30
-53 44 -92 93 -92 115 0 11 26 4 65 -18z m-95 -64 c0 -43 3 -88 6 -100 5 -19
-2 -24 -83 -48 -216 -66 -471 -188 -683 -328 -25 -16 -26 -15 -73 24 -26 22
-45 45 -42 50 10 16 238 175 325 226 126 74 227 128 300 159 85 36 233 93 243
94 4 0 7 -35 7 -77z m90 -73 c36 -19 34 -22 -21 -34 -24 -5 -27 -2 -31 24 -5
35 3 37 52 10z m720 9 c63 -6 131 -14 150 -18 l34 -7 -3 -129 c-1 -72 -4 -131
-4 -131 -1 -1 -42 7 -92 17 -183 37 -461 47 -644 22 -40 -6 -44 -4 -37 12 16
42 18 108 6 146 -8 24 -10 43 -4 49 17 17 257 46 409 49 39 0 122 -4 185 -10z
m399 -71 c124 -34 274 -89 354 -130 51 -25 57 -32 51 -51 -9 -30 -7 -29 -40
-17 -65 25 -177 -22 -216 -90 -13 -22 -26 -40 -29 -40 -4 0 -47 15 -95 34 -49
19 -115 42 -146 51 l-58 16 0 135 0 135 38 -7 c20 -4 84 -20 141 -36z m-5771
20 c29 -29 9 -103 -45 -177 -20 -25 -28 -30 -34 -20 -22 35 0 149 37 190 20
22 26 23 42 7z m4746 -31 c16 -21 21 -42 20 -81 -2 -77 -12 -89 -86 -102 -35
-7 -64 -11 -64 -10 -1 0 -4 47 -8 102 l-7 102 38 10 c57 15 84 10 107 -21z
m-174 -21 c0 -12 3 -51 6 -85 l7 -62 -27 7 c-38 9 -110 -21 -143 -60 -19 -23
-48 -40 -91 -54 -56 -19 -66 -19 -97 -7 -19 9 -47 12 -63 9 -36 -7 -96 -55
-114 -90 -13 -26 -190 -128 -202 -117 -3 4 -6 15 -6 26 0 11 -10 37 -22 59
-14 25 -19 42 -12 46 183 125 415 240 634 313 63 21 118 38 123 39 4 0 7 -11
7 -24z m-3750 -146 c13 -8 13 -10 -2 -10 -9 0 -20 5 -23 10 -8 13 5 13 25 0z
m4560 -25 c142 -23 172 -33 168 -53 -3 -9 -11 -15 -19 -14 -90 22 -156 5 -216
-54 -27 -28 -44 -55 -49 -79 -6 -33 -9 -36 -33 -31 -14 3 -70 9 -123 12 -54 4
-98 10 -98 14 0 5 14 47 31 94 18 48 29 89 26 93 -4 3 -26 -11 -49 -33 l-42
-38 -9 37 c-5 21 -18 42 -29 48 -49 26 -102 -27 -79 -78 15 -33 53 -45 104
-34 23 6 43 9 44 7 1 -1 -6 -24 -16 -52 l-19 -49 -148 -6 c-82 -4 -192 -14
-244 -23 -121 -21 -335 -77 -423 -110 -37 -14 -70 -26 -72 -26 -3 0 -5 24 -5
53 l0 53 39 -4 c70 -7 142 50 146 115 2 35 6 38 51 54 64 23 74 23 74 0 0 -25
46 -61 78 -61 64 0 142 65 142 119 0 25 32 34 175 50 55 6 111 13 125 16 53 8
380 -5 470 -20z m-4982 3 c-6 -18 -28 -21 -28 -4 0 9 7 16 16 16 9 0 14 -5 12
-12z m112 -22 c0 -33 -1 -34 -45 -38 -25 -2 -45 -2 -45 0 0 1 6 12 13 23 10
17 10 23 0 26 -28 10 -10 23 32 23 45 0 45 0 45 -34z m259 20 c5 -3 6 -17 3
-31 -4 -26 -5 -26 -91 -23 -78 3 -86 5 -86 23 0 15 -8 21 -32 23 -18 2 -33 8
-33 14 0 11 221 5 239 -6z m-419 -11 c0 -8 -5 -15 -11 -15 -6 0 -9 -9 -6 -20
4 -15 0 -21 -16 -24 -116 -21 -335 -65 -348 -71 -27 -10 -30 37 -5 68 19 23
36 29 141 46 211 35 245 37 245 16z m496 -6 c12 -19 -8 -49 -32 -49 -21 0 -24
5 -24 34 0 30 2 33 25 28 14 -2 28 -8 31 -13z m-286 -19 c0 -11 -7 -20 -15
-20 -15 0 -21 21 -8 33 12 13 23 7 23 -13z m425 -14 c50 -23 95 -66 95 -91 0
-9 -18 -3 -52 15 -29 16 -79 34 -110 41 -54 13 -58 15 -58 42 0 28 1 29 36 22
20 -3 60 -17 89 -29z m-595 -6 c0 -5 -5 -10 -11 -10 -5 0 -7 5 -4 10 3 6 8 10
11 10 2 0 4 -4 4 -10z m319 -16 c50 -6 61 -10 61 -25 0 -12 -5 -16 -15 -13 -8
4 -25 0 -38 -8 -15 -10 -65 -17 -159 -21 -138 -6 -138 -6 -125 15 9 16 9 22
-1 25 -25 9 1 23 44 23 35 0 44 -4 44 -17 1 -17 1 -17 14 -1 7 10 16 15 19 12
3 -3 14 -1 24 5 21 12 48 13 132 5z m222 -34 c87 -24 147 -64 128 -86 -9 -11
-16 -11 -39 1 -27 14 -122 39 -192 50 -34 5 -38 9 -38 34 0 28 0 28 48 20 26
-4 68 -13 93 -19z m-581 6 c0 -8 -5 -18 -10 -21 -6 -4 -8 -15 -5 -25 5 -15 -1
-18 -40 -22 -42 -3 -45 -2 -46 22 -1 24 -2 23 -11 -5 -9 -29 -15 -32 -91 -49
-75 -16 -85 -16 -112 -2 -16 9 -40 16 -52 16 -13 0 -23 6 -23 13 0 14 121 46
275 72 106 17 115 17 115 1z m40 4 c0 -5 -4 -10 -10 -10 -5 0 -10 5 -10 10 0
6 5 10 10 10 6 0 10 -4 10 -10z m-482 -61 c-30 -20 -41 -9 -17 17 20 22 25 23
27 9 2 -10 -2 -21 -10 -26z m3721 -74 c1 -27 -10 -39 -101 -107 -57 -42 -157
-117 -223 -167 -66 -50 -123 -91 -127 -91 -5 0 -8 15 -8 34 0 30 -4 35 -27 38
-25 3 -21 7 48 59 41 31 153 122 249 203 l175 145 7 -42 c3 -23 7 -56 7 -72z
m-3239 85 c0 -5 -5 -10 -11 -10 -5 0 -7 5 -4 10 3 6 8 10 11 10 2 0 4 -4 4
-10z m3320 -19 l35 -19 -29 -13 c-25 -12 -30 -11 -42 6 -15 20 -19 45 -6 45 4
-1 23 -9 42 -19z m-3006 -6 c7 -20 31 -19 66 2 26 15 34 15 108 0 44 -9 97
-23 118 -32 l39 -16 -23 -18 c-22 -16 -28 -16 -75 -2 -75 22 -422 21 -532 -2
-104 -22 -101 -23 -101 17 0 28 4 35 23 39 15 3 23 -1 23 -9 0 -8 5 -14 10
-14 6 0 10 7 10 15 0 8 7 15 15 15 8 0 15 -7 15 -15 0 -8 5 -15 10 -15 6 0 10
9 10 19 0 24 20 27 171 29 87 2 108 -1 113 -13z m-774 -13 c0 -5 -14 -18 -30
-31 -17 -12 -38 -38 -47 -57 -9 -19 -20 -34 -24 -34 -4 0 -14 -3 -23 -6 -21
-8 -21 18 1 63 11 24 30 42 57 54 44 20 66 24 66 11z m3865 -55 c24 -43 33
-77 18 -77 -5 1 -30 21 -57 46 -46 42 -48 45 -30 59 30 23 41 18 69 -28z
m-3555 -1 c0 -33 -2 -35 -54 -50 -30 -9 -58 -16 -63 -16 -4 1 -15 16 -24 35
l-16 35 41 10 c22 6 46 13 51 15 6 2 22 4 38 4 24 1 27 -2 27 -33z m38 2 c-4
-27 -28 -36 -28 -10 0 20 8 32 22 32 5 0 8 -10 6 -22z m3771 -89 l1 -66 -87
-39 c-47 -21 -90 -40 -93 -42 -7 -3 -20 66 -23 123 -2 28 4 33 93 82 110 61
107 62 109 -58z m-3170 80 c80 -12 88 -17 62 -36 -17 -11 -64 -15 -209 -17
-171 -3 -222 -8 -389 -42 -32 -6 -33 -6 -33 29 0 41 -8 37 155 63 100 15 329
17 414 3z m185 2 c9 -14 -22 -34 -40 -27 -13 5 -14 9 -4 21 14 17 36 20 44 6z
m26 -47 c0 -8 -4 -14 -10 -14 -5 0 -10 9 -10 21 0 11 5 17 10 14 6 -3 10 -13
10 -21z m-1140 2 c0 -7 3 -27 6 -43 5 -25 2 -31 -22 -41 -30 -14 -39 -9 -48
30 -5 21 -1 30 22 47 32 24 42 26 42 7z m78 -2 c30 -20 28 -40 -5 -48 -29 -8
-43 5 -43 42 0 26 17 28 48 6z m1001 0 c3 -2 -2 -11 -11 -20 -11 -11 -25 -14
-53 -8 l-38 7 24 18 c21 17 63 18 78 3z m-739 -28 c0 -34 -1 -34 -77 -59 -43
-14 -85 -28 -94 -32 -14 -5 -14 0 -5 40 10 43 12 45 64 60 29 9 57 13 62 10 6
-3 18 -1 27 4 10 6 19 11 21 11 1 0 2 -15 2 -34z m3351 -48 l4 -56 -155 -107
c-85 -59 -190 -132 -233 -162 l-78 -55 3 64 3 64 220 166 c142 107 222 162
226 155 4 -7 9 -37 10 -69z m117 38 c11 -11 9 -16 -12 -29 -14 -10 -37 -24
-51 -33 l-25 -16 0 60 0 61 38 -15 c20 -9 43 -21 50 -28z m-3895 -55 c9 -10 6
-17 -8 -27 -25 -19 -31 -18 -49 8 -23 32 -20 63 7 75 19 9 23 7 31 -16 5 -14
14 -32 19 -40z m1205 52 c-4 -21 -19 -26 -38 -13 -13 9 -13 11 0 20 23 15 42
12 38 -7z m-113 -3 c17 -7 13 -11 -28 -29 -59 -25 -57 -25 -73 -3 -12 15 -13
15 -14 -9 0 -25 -9 -30 -142 -79 -204 -75 -291 -121 -360 -191 -60 -59 -69
-53 -27 18 50 81 156 143 424 247 138 53 181 62 220 46z m-898 -47 c-7 -42
-36 -73 -48 -51 -3 7 -9 25 -13 40 -5 22 -2 28 22 36 42 16 45 14 39 -25z
m1033 15 c0 -16 -3 -19 -11 -11 -6 6 -8 16 -5 22 11 17 16 13 16 -11z m-66 6
c9 -3 16 -10 16 -14 0 -9 -152 -90 -169 -90 -6 0 -11 11 -11 25 0 20 11 30 58
54 59 31 79 35 106 25z m2798 -35 c10 -19 18 -47 18 -64 -1 -27 -9 -34 -74
-71 l-74 -41 -6 45 c-12 92 -10 99 46 137 29 19 57 34 63 32 5 -2 18 -19 27
-38z m-3848 -20 c3 -17 3 -35 0 -40 -8 -13 -74 -10 -109 5 l-30 13 23 12 c13
7 35 10 49 6 17 -4 23 -2 18 6 -8 11 11 29 31 29 6 0 14 -14 18 -31z m1087
-23 c-22 -24 -110 -75 -164 -95 -25 -10 -27 -9 -27 18 0 25 7 31 58 54 31 14
73 37 92 50 30 22 37 23 49 11 13 -12 12 -17 -8 -38z m3001 -46 c1 -38 2 -77
2 -86 1 -11 -26 -27 -89 -52 -104 -41 -375 -178 -555 -281 -293 -167 -585
-299 -834 -375 -65 -20 -123 -36 -127 -36 -5 0 -9 19 -9 43 l0 43 58 18 c93
29 327 124 429 174 80 39 97 44 114 34 50 -32 122 2 133 62 6 32 19 42 148
122 119 74 144 85 159 75 29 -17 100 -13 136 9 38 23 55 51 62 104 6 35 12 42
74 77 66 37 67 38 61 14 -4 -15 -2 -25 4 -25 6 0 13 14 17 31 6 27 18 36 98
74 51 24 98 44 105 44 8 1 13 -20 14 -69z m-3217 39 c4 -12 3 -24 -2 -28 -10
-9 -267 -101 -282 -101 -6 0 -11 5 -11 10 0 6 -4 10 -10 10 -5 0 -10 -9 -10
-19 0 -14 -20 -31 -71 -57 -40 -21 -94 -59 -120 -85 -54 -53 -62 -47 -24 17
45 76 162 145 394 230 64 24 119 43 123 43 4 1 10 -8 13 -20z m245 -9 c0 -30
-63 -93 -127 -127 -32 -17 -123 -52 -203 -78 -144 -47 -324 -125 -379 -164
-23 -17 -31 -18 -40 -8 -8 11 -5 19 12 35 35 33 158 101 172 95 8 -2 22 4 32
14 11 11 65 36 122 56 88 32 104 35 117 23 18 -19 53 -9 66 19 6 13 42 37 89
60 44 22 91 52 106 67 32 33 33 34 33 8z m2560 -32 c0 -18 3 -42 6 -53 4 -18
0 -20 -45 -20 -73 0 -141 -58 -145 -124 -1 -29 -12 -38 -136 -115 -74 -46
-138 -81 -142 -79 -5 2 -8 28 -8 58 l0 54 113 76 c61 42 163 112 226 156 63
43 118 79 123 79 4 0 8 -15 8 -32z m-2800 -30 c-1 -17 -13 -29 -48 -45 -71
-34 -230 -91 -237 -85 -10 10 -5 41 8 49 13 8 256 100 270 102 4 1 7 -9 7 -21z
m2297 -84 c-3 -3 -40 -8 -84 -10 -64 -4 -75 -3 -58 7 38 24 166 27 142 3z
m-182 -3 c-6 -5 -27 -14 -47 -19 -34 -9 -38 -9 -38 9 0 16 7 19 47 19 28 0 43
-4 38 -9z m-2437 -43 c-2 -15 -23 -33 -67 -58 -35 -20 -81 -51 -103 -69 -32
-27 -42 -31 -49 -20 -12 19 56 86 134 133 72 42 90 45 85 14z m2630 -60 c3
-44 2 -46 -45 -76 -77 -48 -211 -122 -223 -122 -5 0 -10 22 -10 50 0 28 3 50
8 50 4 0 61 34 127 75 66 41 125 73 130 72 6 -2 11 -24 13 -49z m-171 -18
c-54 -33 -100 -60 -103 -60 -3 0 -4 24 -2 53 l3 52 60 6 c151 15 150 16 42
-51z m-127 -28 l0 -49 -142 -70 c-143 -71 -325 -142 -481 -187 -67 -20 -322
-76 -343 -76 -3 0 -4 17 -2 37 3 35 6 38 41 44 37 6 39 5 34 -17 -6 -32 -1
-30 18 6 9 17 24 30 34 30 34 0 298 79 397 119 121 48 288 127 369 175 33 19
63 35 68 35 4 1 7 -21 7 -47z m300 -85 l0 -53 -36 -1 c-37 -1 -84 -35 -84 -60
0 -29 -484 -237 -570 -245 -22 -3 -25 1 -28 35 -3 29 1 39 15 43 10 4 77 30
148 58 124 49 131 51 148 34 42 -43 130 -1 130 61 0 28 6 35 47 56 25 13 84
46 130 74 47 28 88 51 93 51 4 0 7 -24 7 -53z m-2863 11 c-3 -8 -6 -5 -6 6 -1
11 2 17 5 13 3 -3 4 -12 1 -19z m2563 -49 c0 -41 -3 -50 -15 -45 -23 9 -67
-12 -95 -44 -15 -17 -59 -42 -110 -63 l-85 -35 -3 31 c-2 18 -9 35 -15 39 -15
9 -15 9 93 57 52 23 122 57 155 75 33 19 63 34 68 35 4 0 7 -22 7 -50z m-2525
22 c7 -12 -12 -24 -25 -16 -11 7 -4 25 10 25 5 0 11 -4 15 -9z m58 -45 c18
-14 60 -38 94 -54 l61 -29 -34 -12 c-32 -12 -38 -10 -92 23 -66 40 -97 70 -87
85 10 17 23 13 58 -13z m-93 4 c0 -5 -4 -10 -10 -10 -5 0 -10 5 -10 10 0 6 5
10 10 10 6 0 10 -4 10 -10z m1052 -29 c4 -3 4 -41 1 -83 l-6 -78 -71 0 c-39 0
-87 3 -106 6 l-35 6 3 71 c2 40 5 77 7 83 4 12 194 8 207 -5z m-872 -125 c7
-24 44 -33 66 -16 18 16 44 -3 44 -31 0 -27 -23 -24 -106 16 -79 38 -192 134
-180 153 9 16 169 -94 176 -122z m1483 56 c13 -27 4 -37 -40 -45 l-33 -6 0 55
0 55 31 -18 c17 -10 36 -28 42 -41z m-1497 -99 c45 -22 87 -43 95 -45 11 -4
10 -9 -5 -26 l-19 -22 -71 37 c-86 45 -176 130 -176 167 0 24 3 22 48 -23 28
-28 81 -64 128 -88z m266 58 c105 -25 108 -27 108 -53 0 -33 1 -33 -104 -7
-95 24 -93 23 -125 68 -21 30 -22 33 -5 27 10 -5 67 -20 126 -35z m-157 9 c10
-11 15 -20 11 -20 -12 0 -76 29 -76 34 0 15 49 4 65 -14z m-202 -88 c23 -16
66 -41 95 -56 44 -23 51 -30 42 -42 -20 -23 -51 -16 -110 24 -58 41 -120 120
-120 155 0 18 4 15 25 -15 14 -21 44 -50 68 -66z m2049 47 l-4 -45 -61 -17
c-59 -15 -61 -15 -74 4 -20 28 -65 24 -97 -7 -14 -15 -26 -32 -26 -39 0 -7
-48 -20 -127 -34 -71 -13 -137 -25 -148 -28 -16 -4 -18 -3 -7 8 6 7 12 26 12
41 0 15 3 28 6 28 31 0 352 77 429 103 55 19 100 34 101 33 0 0 -1 -22 -4 -47z
m-1447 -14 c61 -8 118 -15 128 -15 9 0 17 -6 17 -14 0 -9 -8 -12 -25 -8 -14 2
-36 -3 -50 -12 -29 -19 -39 -19 -122 -5 -60 11 -63 12 -63 40 0 16 1 29 3 29
1 0 52 -7 112 -15z m895 -23 l0 -38 -116 -12 c-113 -12 -118 -12 -136 8 -25
27 -50 25 -86 -5 -26 -22 -40 -25 -101 -25 l-71 0 0 33 0 34 158 7 c124 6 335
27 350 35 1 0 2 -16 2 -37z m-1122 -13 c89 -22 92 -24 92 -51 0 -15 -3 -28 -7
-28 -8 0 -184 46 -210 55 -9 3 -9 10 0 29 7 14 17 24 22 22 6 -2 52 -14 103
-27z m550 11 c28 0 52 -4 52 -10 0 -5 -12 -7 -28 -4 -21 4 -33 -1 -51 -20 -38
-41 -141 -34 -141 8 0 34 10 39 65 32 28 -3 74 -6 103 -6z m1117 -107 c-8 -9
-204 -63 -229 -63 -3 0 -6 12 -6 28 0 24 4 27 37 28 27 0 42 8 60 29 15 17 46
34 81 44 l57 17 5 -35 c4 -20 1 -41 -5 -48z m-1466 56 c40 -7 73 -19 84 -30
21 -23 33 -23 71 -4 23 12 41 13 100 4 83 -12 91 -12 214 -3 l92 6 0 -37 0
-38 -172 6 c-150 6 -258 16 -435 43 -39 6 -43 9 -43 35 0 33 0 33 89 18z
m-235 -29 c112 -30 136 -40 96 -40 -13 0 -31 -7 -40 -15 -15 -14 -26 -13 -106
10 -49 15 -90 28 -92 30 -4 4 21 45 28 45 3 0 54 -13 114 -30z m1056 -9 c-5
-11 -7 -26 -4 -34 4 -11 -9 -16 -57 -21 -111 -11 -179 -8 -179 9 0 9 9 15 24
15 13 0 34 9 48 19 26 21 55 27 131 30 44 1 47 0 37 -18z m390 -49 l0 -39
-107 -17 c-140 -22 -249 -33 -400 -42 l-123 -7 0 35 0 35 108 7 c136 9 340 33
417 51 100 22 105 21 105 -23z m-1508 0 c48 -16 97 -37 108 -47 13 -12 28 -16
48 -12 16 3 82 -3 148 -14 108 -17 231 -29 467 -45 l88 -6 -3 -31 -3 -30 -85
2 c-286 7 -637 69 -849 151 -74 29 -80 33 -64 46 26 19 47 17 145 -14z m384
-2 c88 -11 230 -23 317 -27 l157 -6 0 -34 c0 -31 -2 -33 -36 -33 -140 0 -599
51 -616 68 -9 9 2 63 12 57 4 -3 79 -14 166 -25z m1394 -34 c0 -34 -4 -46 -17
-50 -16 -5 -211 -46 -218 -46 -8 0 -10 72 -2 77 9 5 210 60 230 62 4 1 7 -19
7 -43z m-260 -65 l0 -38 -77 -11 c-128 -19 -249 -30 -410 -38 l-153 -7 0 36 0
35 118 7 c148 8 366 32 446 49 33 7 64 11 69 9 4 -2 7 -21 7 -42z m264 -17 c3
-9 6 -26 6 -39 0 -26 8 -22 -189 -79 -30 -9 -56 -14 -59 -12 -10 11 12 25 67
40 63 18 76 28 67 51 -4 12 -15 11 -70 -4 -51 -14 -66 -15 -66 -5 0 7 23 17
58 24 31 7 82 18 112 25 30 7 58 13 61 14 4 1 10 -6 13 -15z"/>
<path d="M1246 5932 c-3 -6 -1 -14 5 -17 15 -10 25 3 12 16 -7 7 -13 7 -17 1z"/>
<path d="M1233 5847 c4 -14 26 -16 30 -3 1 5 -6 10 -16 12 -10 1 -16 -3 -14
-9z"/>
<path d="M6825 4884 c-113 -109 -120 -114 -123 -89 -2 15 -8 25 -15 22 -7 -2
-107 -19 -222 -37 l-211 -33 4 -158 4 -157 -39 -25 c-53 -34 -245 -130 -320
-160 l-61 -25 -27 28 c-14 15 -29 40 -34 55 -4 16 -13 31 -20 33 -10 3 -12
-12 -10 -68 3 -61 1 -73 -15 -82 -18 -10 -278 -78 -300 -78 -6 0 -16 10 -21
23 -8 17 -20 23 -53 25 -40 3 -47 0 -82 -37 l-38 -40 -100 -7 -99 -7 -6 84
c-4 46 -7 119 -7 161 0 42 -3 79 -7 81 -5 3 -91 -12 -193 -32 l-185 -37 3
-131 4 -130 -32 -7 c-18 -3 -105 -6 -194 -6 -147 0 -308 -9 -458 -26 l-58 -6
-1 39 c-1 75 5 74 -179 34 l-165 -36 -3 -51 -3 -51 -57 -13 c-171 -38 -440
-140 -620 -235 -57 -30 -107 -55 -113 -55 -5 0 -9 20 -9 45 0 25 -4 45 -8 45
-4 0 -72 -21 -151 -46 l-143 -45 3 -79 c2 -44 -1 -84 -6 -89 -15 -13 -196 -84
-305 -119 -135 -44 -218 -62 -224 -48 -3 7 -8 6 -14 -3 -9 -13 -128 -39 -184
-40 -22 -1 -28 4 -28 19 0 11 7 20 15 20 9 0 15 9 15 25 0 16 -6 25 -15 25
-20 0 -20 59 0 66 20 8 20 54 0 54 -10 0 -15 11 -15 35 0 50 -18 44 -22 -7 -2
-31 -8 -44 -20 -46 -15 -3 -18 4 -18 32 0 20 -4 36 -10 36 -5 0 -10 -18 -10
-39 0 -25 -5 -41 -15 -45 -19 -7 -19 -42 0 -50 20 -7 20 -62 0 -70 -20 -7 -20
-46 0 -46 8 0 15 -4 15 -10 0 -6 -36 -10 -89 -10 -84 0 -89 1 -95 23 -3 12
-26 49 -51 81 -25 32 -48 69 -51 82 -13 53 -24 18 -24 -76 0 -55 -4 -100 -9
-100 -84 0 -344 57 -521 116 -190 61 -184 54 -116 148 56 78 71 114 82 198 12
89 -42 249 -90 264 -30 10 -92 -64 -113 -135 -18 -61 -21 -180 -5 -248 9 -40
8 -43 -28 -78 l-37 -37 -83 42 c-45 23 -87 39 -93 37 -7 -2 26 -23 73 -47 47
-23 87 -44 89 -46 3 -3 -5 -14 -16 -25 l-21 -21 -57 26 c-64 29 -83 33 -67 14
6 -7 33 -22 61 -33 28 -11 51 -22 51 -25 0 -3 -9 -16 -18 -28 -18 -23 -19 -23
-56 -8 -21 9 -41 16 -45 16 -12 -1 42 -40 55 -40 15 0 17 -12 8 -47 -5 -18
-11 -21 -38 -17 l-31 5 28 -16 c20 -11 27 -24 27 -45 0 -24 -5 -29 -27 -32
l-28 -4 27 -13 c17 -9 28 -24 32 -45 9 -48 59 -121 106 -155 47 -34 135 -56
185 -47 39 8 42 1 52 -117 7 -90 -3 -118 -52 -142 -38 -17 -54 -19 -75 -5 -12
7 -9 13 13 30 36 29 37 81 2 115 -28 29 -54 31 -94 10 -33 -16 -41 -33 -41
-81 0 -25 9 -44 34 -71 31 -34 39 -37 97 -41 55 -3 69 0 99 20 53 36 62 61 55
153 -3 44 -8 96 -11 117 -5 30 -3 37 14 42 11 4 33 20 49 36 l29 30 118 -25
c222 -46 368 -58 626 -52 175 4 263 11 345 26 61 11 116 21 123 21 8 0 12 -20
12 -69 0 -38 3 -76 6 -85 7 -19 24 -11 24 10 0 9 20 41 45 73 26 33 45 68 45
82 0 23 8 27 98 54 143 43 253 86 450 177 192 88 379 168 392 168 4 0 11 -45
15 -100 4 -55 10 -100 14 -100 3 0 14 17 23 38 10 20 33 59 53 86 25 35 35 59
35 86 l0 38 108 26 c240 57 435 78 677 74 l170 -3 5 -109 c3 -68 9 -111 16
-113 6 -2 14 9 17 25 3 16 22 48 42 72 20 24 45 60 55 80 l19 37 240 -33 c459
-63 794 -80 1039 -53 284 30 575 119 867 264 187 92 465 263 465 285 0 15 2
16 -130 -71 -282 -188 -576 -321 -879 -400 -193 -50 -280 -61 -534 -66 -273
-6 -397 2 -797 56 l-275 36 -5 35 c-4 20 -10 41 -14 48 -10 17 30 16 274 -7
680 -65 992 -52 1350 56 293 88 648 271 928 478 45 33 82 66 82 74 0 9 -11 5
-32 -12 -75 -59 -301 -209 -415 -274 -280 -161 -590 -273 -878 -319 -55 -8
-197 -18 -315 -21 -218 -6 -337 0 -740 37 -118 11 -250 22 -292 26 -58 4 -78
9 -78 20 0 9 11 14 31 14 36 0 68 15 90 43 l17 20 288 -17 c159 -9 369 -16
467 -16 l177 0 0 -60 c0 -33 4 -60 10 -60 6 0 10 26 10 59 l0 60 43 5 c23 3
95 12 161 21 117 16 119 16 138 -5 10 -11 30 -20 44 -20 38 0 94 30 106 56 8
17 32 29 97 49 215 67 491 199 667 319 21 14 48 26 59 26 34 0 87 35 105 68
10 17 62 67 117 111 102 81 129 108 121 116 -3 3 -25 -12 -49 -33 -70 -60
-169 -135 -173 -131 -2 2 -6 44 -9 92 -5 86 -4 90 21 110 144 121 219 193 209
203 -3 3 -39 -25 -79 -63 -41 -37 -92 -83 -115 -101 l-41 -32 -4 92 -5 93 124
120 c68 66 123 126 123 133 0 6 -1 12 -2 12 -2 -1 -57 -53 -123 -116z m-165
-158 c-40 -37 -186 -150 -270 -210 l-95 -68 -8 112 c-4 62 -5 115 -2 118 5 5
331 59 370 61 17 1 17 -1 5 -13z m22 -107 c2 -50 1 -94 -2 -98 -11 -15 -132
-103 -250 -181 -142 -93 -138 -94 -138 25 l-1 60 115 80 c63 44 147 108 187
142 39 34 75 62 79 62 4 1 8 -40 10 -90z m8 -185 c0 -62 -1 -66 -20 -61 -77
20 -178 -91 -129 -140 17 -17 6 -27 -85 -82 -134 -81 -402 -207 -531 -250
l-120 -40 -8 42 c-4 23 -6 57 -5 76 3 32 7 36 57 53 30 10 56 16 58 14 2 -2 0
-22 -6 -45 -12 -54 5 -53 19 2 6 23 12 46 13 50 5 18 192 87 235 87 53 0 98
25 115 63 8 18 44 48 102 84 94 60 206 138 265 185 19 15 36 28 37 28 2 0 3
-30 3 -66z m-420 -87 l0 -53 -34 4 c-66 8 -131 -48 -124 -108 3 -31 1 -33 -87
-71 l-90 -38 -13 32 c-8 17 -25 46 -38 63 l-23 32 107 46 c59 26 145 69 192
96 47 27 91 49 98 49 8 1 12 -16 12 -52z m-1260 -26 c0 -13 -8 -15 -189 -51
-84 -17 -156 -28 -159 -25 -14 13 23 26 158 53 160 33 190 36 190 23z m0 -128
c0 -32 3 -75 6 -95 l7 -38 -177 0 -176 0 0 63 0 63 158 31 c86 17 163 32 170
32 8 1 12 -17 12 -56z m825 -23 c32 -20 55 -48 68 -82 5 -13 -6 -21 -52 -36
l-58 -20 -6 71 c-8 95 -5 100 48 67z m-75 -75 l0 -74 -41 -11 c-98 -27 -280
-60 -356 -66 l-83 -7 0 43 c0 32 3 41 14 37 26 -10 84 13 109 43 21 25 41 33
141 55 63 14 133 32 153 40 63 23 63 22 63 -60z m-1875 -55 c0 -23 -6 -25
-130 -47 -71 -12 -139 -23 -150 -25 -14 -2 -20 3 -20 16 0 17 20 24 140 52 77
18 145 31 150 30 6 -2 10 -13 10 -26z m1368 -37 c2 -32 2 -61 -2 -65 -3 -4
-62 -10 -131 -14 l-124 -7 22 28 c14 17 22 42 22 66 l0 38 58 4 c31 2 78 4
103 5 l47 2 5 -57z m-236 41 c-3 -3 -12 -4 -19 -1 -8 3 -5 6 6 6 11 1 17 -2
13 -5z m-365 -44 c4 -40 3 -40 -32 -40 -20 0 -45 -7 -56 -15 -15 -11 -59 -15
-209 -15 -104 -1 -244 -5 -310 -9 -83 -5 -122 -4 -127 3 -13 18 -9 76 5 76 6
0 53 5 102 11 50 6 203 14 340 18 138 4 257 8 266 9 13 2 18 -8 21 -38z m256
10 c-25 -25 -29 -36 -24 -60 l6 -30 -105 0 -105 0 0 60 0 60 129 0 129 0 -30
-30z m-1012 -96 c0 -1 -53 -9 -116 -19 -63 -9 -131 -20 -152 -24 l-36 -8 -4
38 c-4 47 -13 43 165 73 l132 22 6 -41 c4 -22 6 -41 5 -41z m1868 64 c3 -13 6
-33 6 -45 0 -20 -5 -23 -37 -23 -47 0 -100 -32 -109 -64 -5 -21 -15 -26 -67
-35 -77 -13 -258 -33 -262 -29 -1 2 -6 33 -9 69 l-7 66 78 7 c76 7 372 62 382
71 10 10 19 4 25 -17z m-2196 -110 c-2 -6 -55 -23 -118 -39 -184 -46 -354
-108 -522 -191 l-158 -77 0 30 c0 35 12 44 195 133 149 74 275 122 460 176
l130 38 8 -30 c4 -16 7 -34 5 -40z m954 17 c-6 -35 14 -55 55 -55 37 0 93 33
93 54 0 10 65 14 292 19 161 3 294 5 294 4 1 -1 4 -30 6 -64 l4 -63 -208 0
c-115 0 -322 7 -461 16 -247 15 -252 16 -270 40 -25 32 -72 32 -117 -1 -32
-24 -41 -25 -163 -25 l-128 0 3 43 3 42 80 6 c44 3 180 6 301 7 l221 2 -5 -25z
m-622 -38 l0 -43 -107 -12 c-60 -7 -130 -16 -156 -19 l-48 -6 3 39 3 39 125
22 c184 31 180 32 180 -20z m-3212 11 c33 -33 -13 -170 -77 -232 l-29 -28 -7
46 c-19 125 58 269 113 214z m2882 -57 l0 -40 -77 -17 c-43 -9 -129 -32 -190
-50 -62 -19 -118 -34 -123 -34 -15 0 -208 -84 -311 -136 -85 -42 -87 -43 -93
-21 -3 12 -6 25 -6 29 0 20 330 171 485 221 71 24 288 84 308 86 4 1 7 -17 7
-38z m608 -56 l2 -45 -139 0 -140 0 15 28 c7 15 14 35 14 45 0 15 13 17 123
17 l124 0 1 -45z m-386 13 c-7 -7 -12 -24 -12 -39 0 -32 -7 -35 -107 -45 l-73
-7 0 41 0 40 63 10 c95 15 144 15 129 0z m-212 -33 c0 -10 -10 -15 -33 -15
-37 0 -75 -23 -86 -52 -6 -17 -31 -27 -122 -49 -63 -16 -115 -28 -117 -29 -2
0 0 9 3 20 4 12 2 27 -4 34 -9 11 10 20 96 44 208 60 263 70 263 47z m-840
-73 c0 -25 -11 -33 -121 -91 -133 -70 -141 -70 -137 3 l3 39 110 38 c137 46
145 47 145 11z m1440 -16 l0 -43 -237 -6 c-250 -6 -363 -19 -563 -64 -63 -15
-128 -27 -145 -27 -16 -1 -34 -7 -40 -13 -5 -7 -24 -15 -41 -19 -28 -5 -32 -3
-38 21 -4 16 -3 31 1 35 12 11 104 40 223 70 91 24 108 25 125 14 31 -22 69
-16 110 16 21 17 45 30 54 31 9 0 68 6 131 14 63 7 184 13 268 14 l152 1 0
-44z m114 28 c9 -8 16 -21 16 -27 0 -7 3 -22 6 -34 6 -22 4 -23 -50 -23 -48 0
-56 3 -56 19 0 10 -3 33 -6 50 -6 31 -6 31 34 31 24 0 47 -7 56 -16z m-1546
-91 c-2 -22 -17 -34 -83 -70 -44 -23 -101 -51 -127 -62 l-48 -20 0 27 c0 24
12 33 118 88 64 34 123 62 130 63 9 1 12 -8 10 -26z m342 -7 c0 -33 -2 -34
-92 -71 -51 -21 -119 -51 -150 -67 -32 -15 -60 -28 -63 -28 -3 0 -5 13 -5 30
0 26 7 33 63 61 77 40 229 108 240 109 4 0 7 -15 7 -34z m1186 -6 c19 0 34 -5
34 -10 0 -6 -19 -28 -42 -50 -47 -47 -58 -41 -58 29 0 35 3 42 16 37 9 -3 31
-6 50 -6z m-1517 -78 c1 -13 -244 -140 -253 -131 -3 3 -7 15 -8 27 -3 18 16
31 122 84 127 64 137 65 139 20z m335 2 c9 -34 6 -36 -84 -72 -41 -17 -149
-65 -240 -107 -331 -154 -603 -252 -621 -224 -5 8 -9 19 -9 25 0 5 64 31 143
58 78 26 194 70 257 98 72 31 127 50 148 49 27 -1 41 6 68 35 32 34 55 46 294
152 36 15 37 15 44 -14z m-624 -49 c0 -29 -15 -37 -155 -90 -121 -45 -238 -81
-323 -99 l-63 -14 3 26 c2 20 11 28 38 34 125 31 265 75 367 118 65 27 121 49
126 49 4 1 7 -10 7 -24z m740 -5 c0 -20 -12 -43 -36 -70 -20 -22 -41 -40 -46
-40 -5 0 -8 26 -6 57 l3 57 40 12 c22 7 41 13 43 13 1 1 2 -12 2 -29z m-453 4
c-3 -3 -12 -4 -19 -1 -8 3 -5 6 6 6 11 1 17 -2 13 -5z m-2174 -31 c7 -35 6
-36 -28 -23 -27 10 -27 11 -10 30 24 27 32 25 38 -7z m342 -81 c106 -28 188
-44 343 -67 36 -6 42 -10 42 -31 0 -20 -5 -24 -27 -24 -39 0 -195 26 -300 50
-65 15 -338 96 -349 104 -1 1 -5 16 -9 34 l-7 32 94 -33 c51 -19 147 -48 213
-65z m743 27 c-23 -15 -28 -10 -28 25 0 25 5 36 18 38 21 4 31 -50 10 -63z
m984 24 c-5 -10 -7 -23 -5 -30 4 -11 -114 -73 -138 -73 -5 0 -9 11 -9 25 0 21
12 31 78 64 42 21 78 37 80 35 2 -1 -1 -11 -6 -21z m-182 -13 c0 -24 -4 -30
-22 -30 -12 0 -38 -11 -57 -24 -20 -13 -79 -38 -132 -57 l-95 -33 -21 21 -21
21 136 47 c76 26 153 56 172 66 19 10 36 18 38 19 1 0 2 -13 2 -30z m-1915 3
c41 -20 43 -25 11 -42 -21 -12 -86 -8 -86 5 0 7 32 54 36 54 2 0 19 -8 39 -17z
m831 -47 c40 -40 43 -56 12 -56 -55 0 -68 10 -68 51 0 48 12 49 56 5z m-867
-22 c2 -2 -2 -15 -9 -29 -15 -27 -37 -32 -63 -12 -16 11 -16 14 -1 35 13 19
22 22 43 17 14 -4 28 -9 30 -11z m1161 -14 c0 -13 -7 -20 -20 -20 -22 0 -28
25 -7 33 22 10 27 7 27 -13z m-780 -29 c89 -24 260 -56 348 -66 55 -6 62 -9
62 -29 0 -21 -4 -22 -67 -18 -80 4 -274 36 -355 59 -47 13 -61 22 -78 50 -18
31 -19 34 -3 29 10 -2 52 -14 93 -25z m1008 2 c-3 -26 -8 -29 -73 -40 -38 -7
-146 -16 -239 -20 -158 -6 -169 -5 -163 11 4 10 7 22 7 27 0 5 41 9 90 9 73 0
90 -3 90 -15 0 -8 5 -15 10 -15 6 0 10 7 10 15 0 8 9 15 20 15 11 0 20 -4 20
-10 0 -5 5 -10 10 -10 6 0 10 6 10 13 0 10 30 19 98 29 53 8 101 16 105 17 5
0 7 -11 5 -26z m473 -35 c-9 -9 -258 -87 -303 -94 -31 -5 -38 -4 -38 10 0 11
9 16 29 16 15 0 41 10 57 22 16 13 76 39 133 59 106 36 106 36 117 15 6 -11 8
-24 5 -28z m-977 26 c9 -3 16 -17 16 -30 0 -22 -4 -24 -45 -24 -43 0 -45 1
-45 30 0 26 3 30 29 30 16 0 36 -3 45 -6z m-949 -16 c19 -9 25 -19 25 -44 0
-32 -1 -33 -30 -22 -37 12 -44 22 -36 54 7 28 7 28 41 12z m278 -26 c13 -16
30 -52 23 -52 -1 0 -23 7 -49 16 -41 14 -47 19 -47 44 0 28 1 28 29 19 16 -6
36 -18 44 -27z m1296 6 c-23 -44 -52 -51 -47 -11 2 19 10 29 28 33 32 9 34 6
19 -22z m-1409 3 c0 -14 -5 -18 -20 -14 -21 5 -25 15 -13 26 13 14 33 6 33
-12z m1288 -56 c-13 -12 -279 -35 -414 -35 l-164 0 0 31 c0 26 3 30 18 24 48
-18 529 9 552 32 3 3 6 -7 8 -22 2 -15 2 -28 0 -30z m52 41 c0 -7 -7 -19 -15
-26 -13 -11 -15 -8 -15 14 0 16 5 26 15 26 8 0 15 -6 15 -14z m-1339 -24 c4
-4 11 -19 14 -34 6 -23 4 -28 -12 -28 -33 0 -83 21 -83 35 0 35 13 47 44 41
17 -4 34 -10 37 -14z m399 -22 c80 -16 155 -30 168 -30 25 0 27 -7 7 -34 -12
-16 -22 -18 -62 -12 -83 11 -269 47 -280 54 -5 4 -13 20 -17 36 -6 26 -5 28
16 22 13 -3 88 -20 168 -36z m-282 -11 c21 -8 31 -46 16 -61 -12 -12 -73 16
-78 36 -13 50 -10 52 62 25z m1280 -6 c-3 -27 -6 -29 -123 -51 -94 -18 -170
-24 -352 -29 l-232 -6 11 29 11 29 206 1 c126 1 238 7 288 16 58 10 84 11 87
4 3 -8 7 -7 13 1 7 9 59 29 86 32 5 1 7 -11 5 -26z m-1561 7 c16 -6 37 -24 47
-40 17 -30 73 -67 84 -56 3 4 -8 20 -24 37 l-29 32 30 -7 c60 -15 79 -29 87
-70 10 -49 -1 -59 -62 -51 -92 11 -156 62 -175 138 -8 30 -3 32 42 17z m533
-60 c83 -16 161 -30 174 -30 13 0 29 -7 37 -16 9 -11 23 -14 48 -10 20 3 115
5 211 5 186 0 317 11 468 40 l92 18 0 -28 c0 -32 -13 -36 -215 -65 -143 -21
-461 -24 -605 -6 -88 11 -371 61 -378 67 -4 3 9 55 14 55 1 0 71 -13 154 -30z
m1138 4 c2 -16 -5 -23 -35 -32 -41 -12 -57 -5 -51 24 6 35 81 42 86 8z m-1385
-33 c11 -10 -29 -44 -42 -36 -6 3 -11 17 -11 31 0 22 3 24 23 19 12 -4 25 -10
30 -14z m1390 -28 c-8 -23 -43 -62 -65 -74 -16 -9 -18 -5 -18 30 0 37 3 41 33
50 49 14 57 13 50 -6z"/>
<path d="M6905 2223 c-283 -431 -719 -880 -1109 -1143 l-90 -60 -30 28 c-17
16 -50 43 -74 61 -23 18 -54 53 -68 78 -15 25 -30 41 -35 36 -5 -5 2 -71 17
-152 14 -78 25 -143 23 -145 -13 -10 -237 -108 -296 -129 -125 -45 -195 -60
-205 -45 -7 10 -11 10 -21 -4 -7 -9 -39 -21 -71 -27 -73 -13 -246 -26 -246
-18 0 4 37 53 83 109 159 197 225 306 245 403 13 60 -1 124 -58 265 -9 25 -30
86 -45 135 -15 50 -36 113 -45 140 -10 28 -21 66 -24 85 -3 19 -12 47 -20 61
-7 14 -16 47 -20 73 -16 102 -109 175 -237 184 -272 19 -629 -167 -954 -497
-70 -71 -85 -82 -85 -58 0 6 -4 18 -9 26 -7 10 -35 -7 -124 -75 -64 -49 -116
-95 -117 -103 0 -7 8 -35 17 -62 l18 -49 -55 -56 c-83 -85 -249 -226 -334
-283 -99 -67 -260 -146 -361 -176 -73 -22 -225 -47 -225 -37 0 2 33 40 74 83
95 101 152 189 167 257 14 60 17 51 -74 292 -30 80 -63 168 -72 195 -40 118
-91 184 -166 217 -25 11 -28 18 -35 85 -4 44 -11 73 -18 73 -6 0 -72 9 -146
20 -189 28 -174 31 -166 -40 l7 -60 -101 0 c-56 0 -152 -7 -213 -16 -109 -16
-408 -87 -496 -118 -59 -22 -61 -21 -61 19 0 19 -5 35 -11 35 -8 0 -9 -13 -5
-40 5 -33 3 -42 -11 -47 -10 -3 -80 -30 -156 -59 -76 -30 -140 -54 -141 -54
-2 0 8 21 20 47 52 105 52 226 -1 337 -37 78 -55 85 -104 41 -62 -57 -85 -121
-85 -240 1 -55 5 -116 11 -136 11 -37 11 -37 -71 -122 -48 -50 -104 -98 -138
-117 -32 -17 -60 -35 -63 -41 -8 -11 18 -12 31 -1 5 5 26 19 46 31 l38 22 -25
-53 c-14 -29 -25 -63 -25 -76 0 -21 -11 -34 -55 -66 -29 -21 -12 -31 19 -11
28 19 28 18 40 -37 3 -14 8 -32 11 -40 3 -8 -13 -24 -40 -41 -25 -16 -45 -33
-45 -38 0 -16 16 -10 58 20 l40 30 24 -35 c12 -18 26 -34 31 -34 20 0 0 -21
-73 -74 -71 -53 -94 -76 -73 -76 4 0 32 20 62 43 105 82 101 81 160 53 l51
-23 -27 -18 c-16 -10 -70 -52 -122 -94 -51 -42 -103 -84 -114 -93 -12 -9 -19
-20 -15 -23 4 -4 63 38 132 93 160 129 160 129 228 134 l57 5 13 -56 c7 -31
12 -82 13 -114 0 -54 -3 -61 -33 -88 -25 -23 -42 -29 -77 -29 -48 0 -68 15
-32 24 25 6 47 43 47 77 0 29 -53 79 -84 79 -14 0 -38 -11 -53 -24 -24 -21
-28 -32 -28 -76 0 -46 4 -55 32 -80 69 -62 165 -60 229 4 44 44 50 87 30 198
-9 50 -13 94 -9 98 4 3 25 18 45 33 21 16 47 49 62 80 l25 53 178 86 c98 47
211 98 250 112 l73 26 0 -30 c0 -26 -4 -30 -26 -30 -16 0 -37 -12 -54 -30 -15
-16 -33 -30 -40 -30 -6 0 1 -13 17 -30 30 -32 52 -37 86 -18 41 22 48 39 42
110 -5 58 -4 67 12 71 10 3 28 8 41 12 20 6 22 3 22 -26 0 -40 17 -27 22 16 3
29 6 30 98 52 216 52 434 53 622 2 l78 -21 -103 -108 c-127 -131 -182 -203
-208 -269 -27 -71 -24 -110 15 -225 34 -98 112 -349 134 -431 14 -51 73 -109
132 -130 113 -42 292 -26 479 41 53 18 97 34 97 34 1 0 7 -20 13 -45 l11 -45
53 24 c160 71 223 100 231 107 4 4 1 31 -7 60 -9 29 -15 54 -14 55 1 1 40 30
87 65 88 64 207 165 390 328 340 302 573 441 873 520 20 5 37 7 37 5 0 -2 -36
-48 -81 -102 -94 -113 -143 -190 -170 -267 -23 -65 -23 -106 -3 -160 63 -163
143 -381 161 -435 8 -25 23 -67 33 -95 10 -27 24 -73 30 -102 59 -262 438
-345 952 -208 441 117 959 430 1373 827 69 66 125 127 125 135 0 8 -60 -43
-133 -114 -74 -70 -188 -172 -254 -225 -164 -132 -457 -330 -467 -316 -5 6
-28 179 -25 182 2 2 30 19 61 39 76 48 235 165 330 244 51 41 86 63 103 63 58
0 135 68 135 119 0 20 18 44 71 96 l71 70 -5 -37 c-3 -21 -2 -38 2 -38 11 0
21 36 21 73 0 20 15 45 45 80 25 29 45 58 45 66 0 17 -3 15 -54 -47 l-35 -43
-16 38 c-9 21 -18 61 -20 88 -1 28 -6 57 -9 65 -4 10 19 45 64 100 60 73 82
110 65 110 -2 0 -20 -20 -39 -45 -19 -25 -51 -64 -71 -86 l-36 -40 -34 29
c-18 17 -47 38 -64 48 -17 10 -31 21 -31 24 0 3 31 43 69 88 108 128 211 267
211 287 0 10 -30 -22 -67 -73 -38 -50 -106 -136 -152 -192 l-84 -101 -24 23
c-14 13 -32 36 -40 52 -26 50 -35 16 -17 -70 l16 -79 -144 -141 c-194 -187
-435 -380 -620 -493 l-68 -41 0 53 c-1 28 -7 63 -15 77 -8 14 -14 30 -15 36 0
6 42 38 93 72 226 149 546 436 750 672 203 236 419 540 383 540 -2 0 -20 -26
-41 -57z m-2249 -98 c57 -17 105 -61 129 -119 9 -21 14 -40 12 -42 -2 -2 -26
8 -53 23 -47 27 -55 28 -179 27 -112 0 -142 -4 -220 -28 -216 -66 -459 -221
-676 -432 -42 -41 -79 -74 -82 -74 -4 0 -12 19 -19 41 l-12 42 125 121 c247
241 494 393 714 441 82 18 201 18 261 0z m-16 -126 c72 -11 145 -49 155 -78 3
-11 3 -31 -1 -46 -5 -19 -11 -24 -23 -19 -47 21 -151 35 -209 30 -60 -6 -63
-6 -53 13 24 44 8 89 -33 93 -12 0 2 4 29 8 28 4 55 8 60 8 6 1 39 -3 75 -9z
m-219 -35 c-26 -21 -31 -33 -31 -68 l0 -42 -57 -18 c-32 -10 -96 -36 -142 -57
-89 -41 -101 -45 -101 -29 0 6 11 10 24 10 29 0 81 41 89 71 4 13 -2 28 -15
41 -11 11 -18 21 -16 23 13 11 94 46 148 63 120 38 141 40 101 6z m-2361 1
c162 -23 158 -22 166 -61 3 -19 5 -37 2 -39 -2 -2 -37 5 -78 15 -41 11 -105
22 -142 26 l-66 6 -4 34 c-2 20 0 34 7 34 5 0 57 -7 115 -15z m-1344 -19 c43
-32 12 -148 -64 -236 l-37 -44 -6 30 c-18 81 2 180 47 234 29 34 33 35 60 16z
m1173 -52 c27 -6 31 -11 31 -39 l0 -32 -122 -8 c-68 -5 -128 -8 -135 -6 -6 1
-14 -3 -18 -9 -4 -6 -14 -4 -29 5 -21 14 -25 14 -47 -4 -13 -10 -56 -26 -96
-35 -64 -14 -272 -75 -314 -91 -12 -5 -20 3 -29 27 l-12 33 -14 -32 c-18 -41
-28 -42 -31 -3 -3 38 14 47 169 94 146 44 355 85 489 95 57 5 109 9 115 10 6
0 26 -2 43 -5z m199 -20 c118 -24 142 -37 142 -75 0 -29 -2 -31 -27 -24 -71
18 -161 35 -188 35 -60 1 -75 10 -75 46 0 32 2 34 35 34 20 0 71 -7 113 -16z
m2748 -28 c5 -22 4 -28 -7 -24 -8 2 -15 20 -17 39 -4 40 13 30 24 -15z m-138
13 c77 -16 86 -26 69 -74 l-14 -40 -79 3 c-43 2 -114 -3 -156 -11 l-77 -13
-11 48 c-16 76 -16 75 53 86 87 13 158 14 215 1z m-630 -61 c1 -24 3 -50 5
-59 1 -10 -30 -38 -88 -77 l-90 -61 -9 30 c-13 42 -29 36 -21 -8 6 -37 4 -39
-67 -100 -40 -34 -96 -82 -125 -108 l-51 -45 -15 45 -16 44 97 89 c113 103
209 181 305 246 38 25 69 46 70 46 2 0 4 -19 5 -42z m339 -15 c4 -27 8 -52 8
-56 0 -4 -37 -21 -83 -37 -45 -16 -106 -40 -135 -53 -28 -13 -56 -24 -62 -24
-5 -1 -15 21 -21 48 l-11 50 41 24 c34 19 130 61 206 88 39 14 49 7 57 -40z
m-2099 7 c40 -28 102 -103 102 -121 0 -5 -21 6 -47 25 -27 18 -63 41 -80 50
-26 13 -33 23 -33 46 0 37 7 37 58 0z m2527 -43 c-7 -34 -8 -35 -36 -25 -33
11 -32 9 -20 40 5 13 12 32 16 42 6 19 6 19 26 -1 16 -16 19 -27 14 -56z
m-2907 11 l3 -38 -53 0 c-29 0 -91 -5 -137 -10 -47 -5 -86 -8 -88 -6 -2 2 2
21 9 42 13 38 15 39 68 45 30 3 87 6 125 5 l70 -1 3 -37z m172 20 c36 -6 82
-17 103 -25 33 -14 37 -19 37 -50 0 -29 -3 -34 -17 -28 -35 13 -139 34 -205
40 l-68 7 0 39 0 39 43 -5 c23 -3 71 -11 107 -17z m-522 -30 c9 -9 18 -9 37 0
23 11 25 10 25 -12 0 -32 -15 -42 -85 -56 -33 -6 -85 -18 -115 -26 -49 -14
-55 -14 -66 0 -15 22 -27 20 -19 -3 5 -15 -8 -23 -87 -51 -51 -18 -99 -35
-106 -38 -10 -3 -12 7 -10 43 l3 48 70 24 c97 33 285 82 316 83 14 0 30 -5 37
-12z m3296 -20 c9 -37 7 -48 -9 -42 -9 4 -15 19 -15 35 0 34 15 38 24 7z
m-3820 -40 c6 -35 4 -45 -11 -56 -15 -11 -18 -11 -21 2 -5 22 -19 20 -25 -4
-5 -20 -27 -28 -27 -10 0 6 -5 10 -11 10 -6 0 -8 -7 -5 -16 4 -11 -8 -21 -47
-37 -28 -12 -96 -43 -151 -70 -54 -26 -100 -46 -101 -45 -1 2 -5 19 -9 38 -11
63 33 91 304 196 47 18 88 33 91 34 4 0 9 -19 13 -42z m1261 16 c60 -40 95
-76 95 -97 0 -10 -3 -17 -7 -15 -5 2 -38 19 -75 38 -63 32 -68 37 -68 67 0 18
3 33 8 33 4 0 25 -12 47 -26z m2411 18 c8 -5 1 -23 -21 -58 l-33 -51 -78 -7
c-44 -3 -89 -9 -100 -12 -24 -6 -29 2 -39 68 l-7 45 59 10 c70 13 204 16 219
5z m78 -25 c17 -13 17 -15 -3 -56 -21 -40 -23 -42 -59 -35 -20 4 -38 8 -40 9
-2 1 10 23 25 49 29 48 47 55 77 33z m-2974 -11 c-6 -8 -10 -25 -8 -38 3 -22
-2 -24 -122 -45 -69 -12 -150 -27 -182 -34 -55 -13 -57 -12 -94 16 l-38 29 30
12 c16 7 71 21 121 32 l93 20 -6 -24 c-4 -15 -2 -24 5 -24 6 0 11 6 11 13 1
35 51 52 164 56 32 1 37 -1 26 -13z m312 -7 c49 -10 57 -14 42 -22 -11 -5 -28
-18 -39 -28 -17 -15 -34 -17 -126 -12 -104 6 -106 6 -88 24 11 11 19 29 19 40
0 21 3 22 66 16 37 -4 93 -12 126 -18z m1956 -40 l9 -47 -90 -56 c-50 -31 -94
-53 -98 -49 -5 5 -9 28 -11 53 l-3 44 84 58 c47 32 88 55 92 51 4 -5 11 -29
17 -54z m336 14 c4 -21 9 -45 12 -54 4 -13 -10 -21 -65 -38 -38 -12 -105 -36
-149 -55 l-80 -34 -7 36 c-3 20 -8 45 -11 54 -4 13 10 25 58 49 68 35 219 89
229 83 4 -2 10 -21 13 -41z m436 2 c7 -9 9 -26 5 -45 -6 -28 -10 -31 -33 -25
-36 9 -36 8 -21 49 14 38 29 45 49 21z m-3740 -29 c0 -7 3 -27 6 -43 6 -32 10
-29 -93 -70 -9 -3 -13 4 -13 20 0 14 6 27 13 30 9 3 9 9 0 25 -11 19 -9 22 30
35 54 20 57 20 57 3z m1222 -28 c41 -26 46 -32 38 -49 -13 -24 -11 -24 -81 4
-39 14 -57 26 -54 35 3 8 5 23 5 33 0 25 23 19 92 -23z m2571 -57 c-2 -3 -11
2 -20 11 -11 12 -13 24 -8 45 l8 28 12 -40 c7 -22 11 -42 8 -44z m-3563 55 c0
-7 3 -27 6 -43 5 -27 3 -30 -37 -42 -23 -7 -94 -35 -157 -62 -64 -27 -118 -47
-120 -44 -2 2 -1 24 2 49 7 43 9 45 69 70 71 30 218 85 230 86 4 0 7 -6 7 -14z
m-368 -18 c-7 -7 -12 -8 -12 -2 0 14 12 26 19 19 2 -3 -1 -11 -7 -17z m1137
-7 c16 -21 24 -23 65 -18 34 5 59 1 99 -14 66 -26 69 -29 49 -56 l-17 -22 -84
25 c-169 49 -415 50 -627 1 l-101 -23 -13 31 c-8 16 -15 33 -17 36 -2 4 27 14
65 23 155 38 217 45 390 43 170 -2 173 -2 191 -26z m314 -1 c3 -11 1 -20 -4
-20 -5 0 -9 2 -9 4 0 2 -3 11 -6 20 -3 9 -2 16 4 16 5 0 12 -9 15 -20z m2201
8 c-4 -7 -25 -35 -45 -63 -37 -49 -40 -51 -131 -74 -301 -76 -517 -211 -928
-576 -197 -175 -396 -335 -404 -324 -1 2 -7 21 -13 41 l-11 37 77 57 c92 69
172 137 310 264 218 199 325 292 329 281 8 -25 41 -32 76 -16 41 20 61 54 53
94 -6 30 -4 32 85 85 83 49 94 52 105 37 11 -14 12 -14 13 6 0 17 12 29 48 47
47 24 215 86 233 86 5 0 15 -12 21 -27 l12 -28 4 32 c2 24 9 34 25 38 12 2 31
6 42 8 11 3 39 5 63 6 32 1 41 -2 36 -11z m119 5 c8 -7 -39 -93 -57 -105 -6
-4 -35 -8 -63 -8 l-53 0 47 60 c42 54 50 60 83 60 20 0 40 -3 43 -7z m-3811
-25 c-15 -15 -16 -42 -2 -33 6 3 10 -5 10 -19 0 -21 -13 -32 -87 -70 -83 -43
-89 -45 -130 -34 -23 5 -49 8 -57 5 -16 -6 -31 22 -18 35 13 13 286 137 291
132 3 -2 -1 -10 -7 -16z m2547 -26 c-18 -20 -61 -68 -95 -106 l-64 -68 -10 27
c-5 14 -10 29 -9 33 1 12 194 159 202 155 4 -3 -7 -21 -24 -41z m1359 22 c2
-1 -6 -22 -17 -46 -20 -42 -22 -43 -61 -40 -22 2 -40 7 -40 11 0 4 13 28 30
54 28 45 31 46 57 35 16 -7 29 -13 31 -14z m-734 -54 l6 -45 -84 -49 c-47 -27
-88 -49 -92 -50 -4 0 -13 21 -20 47 l-12 49 91 59 c100 64 101 64 111 -11z
m-2710 39 c-8 -14 -24 -10 -24 6 0 9 6 12 15 9 8 -4 12 -10 9 -15z m2476 -30
c12 -48 11 -51 -11 -67 -13 -9 -72 -58 -130 -108 l-107 -92 1 36 c1 21 -2 44
-7 54 -6 12 19 40 111 122 64 58 120 106 124 106 4 0 12 -23 19 -51z m-1450 0
c0 -22 -4 -23 -31 -9 -16 9 -17 15 -8 31 8 16 13 18 25 8 8 -6 14 -20 14 -30z
m-1431 -10 c-21 -13 -29 -11 -29 10 0 24 22 33 34 13 5 -9 4 -17 -5 -23z
m2550 -8 l11 -34 -97 -99 -98 -99 -13 40 -14 41 94 99 c51 55 96 97 99 93 4
-4 11 -22 18 -41z m1342 39 c13 -8 19 -21 19 -46 0 -40 -15 -49 -53 -35 l-26
10 17 40 c19 46 17 44 43 31z m-3413 -62 c-4 -11 -76 -43 -82 -37 -2 2 -6 22
-8 43 -3 35 0 41 22 47 19 5 30 1 48 -18 13 -14 21 -30 20 -35z m5194 33 c63
-27 91 -57 78 -81 -6 -11 -15 -20 -21 -20 -33 0 -119 73 -119 102 0 23 8 23
62 -1z m-6080 -69 c-25 -20 -112 -63 -112 -56 0 3 26 32 57 66 l57 60 8 -29
c6 -21 4 -31 -10 -41z m776 20 c2 -27 -1 -42 -9 -42 -24 0 -199 -75 -341 -146
l-146 -73 -4 47 c-3 26 -3 50 -2 53 9 18 459 210 484 206 10 -1 16 -16 18 -45z
m1092 39 c0 -5 3 -18 7 -28 6 -16 5 -16 -10 -4 -19 15 -23 41 -7 41 6 0 10 -4
10 -9z m-66 -14 c19 -14 13 -47 -9 -47 -40 0 -57 24 -33 48 15 15 20 15 42 -1z
m2561 -38 c8 -37 5 -41 -18 -24 -13 9 -16 20 -11 39 8 32 20 26 29 -15z m1651
-114 l6 -50 -93 -90 c-94 -91 -220 -198 -337 -288 l-62 -48 25 37 c26 39 32
82 15 115 -8 14 -22 19 -53 19 l-42 1 25 20 c165 135 255 213 360 316 l125
121 12 -51 c7 -29 16 -74 19 -102z m-5590 69 c-10 -26 -26 -14 -26 20 0 40 23
55 28 19 2 -14 1 -31 -2 -39z m-66 40 c0 -8 4 -13 9 -10 5 3 11 -8 13 -25 4
-28 1 -32 -55 -60 l-59 -30 -33 35 -32 35 71 35 c81 41 86 42 86 20z m1510
-25 c0 -23 -9 -24 -35 -5 -16 12 -17 16 -6 30 16 20 41 4 41 -25z m2178 -11
c-203 -238 -300 -379 -320 -466 -7 -29 -16 -52 -20 -52 -9 0 -28 68 -28 102 0
69 65 188 178 329 111 138 112 139 177 139 l57 0 -44 -52z m152 41 c0 -13 -70
-117 -134 -198 -47 -60 -51 -62 -60 -42 -10 24 -47 37 -68 25 -7 -4 -2 6 12
23 171 213 161 203 207 203 24 0 43 -5 43 -11z m-1196 -86 c6 -18 3 -23 -9
-23 -9 0 -53 -38 -98 -85 l-80 -86 -14 33 c-8 17 -12 37 -11 44 2 7 43 56 92
109 l90 97 12 -33 c6 -19 14 -44 18 -56z m1265 76 c17 -6 31 -13 31 -15 0 -18
-57 -113 -79 -131 -24 -20 -27 -20 -44 -5 -22 19 -52 6 -52 -23 0 -27 31 -43
55 -27 33 20 23 1 -41 -78 -33 -41 -86 -108 -117 -148 l-56 -74 -18 53 -18 52
43 56 c23 31 69 89 102 131 33 41 82 108 108 148 27 39 50 72 51 72 2 0 17 -5
35 -11z m-2505 -10 l25 -12 -26 -33 c-29 -39 -43 -42 -68 -14 -18 20 -18 21 5
45 27 29 30 29 64 14z m1555 -36 c12 -48 6 -62 -27 -63 -8 0 -39 -26 -70 -57
-118 -120 -519 -476 -629 -559 -75 -56 -93 -64 -93 -39 0 8 6 15 14 15 30 0
69 45 69 80 0 28 11 41 86 106 47 40 96 74 107 74 31 0 74 38 74 64 0 16 29
51 93 113 164 160 339 313 358 313 4 0 12 -21 18 -47z m-3299 9 c-30 -10 -100
-89 -100 -113 0 -29 -6 -38 -47 -66 -41 -29 -43 -29 -43 10 1 66 30 106 110
152 51 30 78 40 85 33 7 -7 5 -12 -5 -16z m6180 -20 c0 -23 0 -23 -24 -5 -22
17 -23 19 -8 36 18 20 32 7 32 -31z m-1836 -25 c-10 -58 -83 -192 -162 -294
-145 -190 -187 -242 -194 -242 -3 -1 -13 20 -22 46 -18 53 -29 34 118 218 112
141 104 135 98 76 -3 -31 -1 -51 6 -51 5 0 13 31 17 69 4 45 16 85 31 113 14
24 34 62 45 85 20 42 20 43 44 27 20 -13 23 -22 19 -47z m-2455 25 c12 -22 11
-23 -8 -13 -12 7 -18 17 -14 27 6 17 6 17 22 -14z m-71 6 c17 -17 15 -29 -11
-61 -22 -27 -22 -27 -49 -9 l-27 18 25 32 c27 34 43 39 62 20z m4251 -24 c2
-2 -4 -13 -15 -25 -17 -19 -19 -19 -25 -2 -14 35 -10 45 14 37 12 -3 24 -8 26
-10z m-4409 -53 c0 -7 -33 -50 -74 -95 -95 -105 -151 -186 -172 -248 -14 -42
-18 -48 -26 -33 -6 9 -8 43 -6 75 5 76 46 143 162 267 88 93 90 94 102 71 7
-12 13 -29 14 -37z m2731 10 c22 -73 -20 -190 -116 -321 -114 -156 -227 -288
-243 -284 -73 14 -73 14 -62 35 6 11 15 17 21 14 5 -4 9 3 9 14 0 11 53 86
118 168 164 208 242 337 242 404 0 31 18 13 31 -30z m-2513 26 c8 -10 4 -27
-15 -67 -16 -35 -27 -49 -31 -40 -2 8 -11 23 -19 32 -13 15 -12 21 12 52 30
39 37 42 53 23z m4273 -20 c19 -12 42 -40 53 -61 l19 -38 -69 -69 c-37 -38
-71 -65 -75 -61 -3 4 -14 49 -24 100 l-18 93 29 30 c33 35 41 36 85 6z m-3425
-34 l16 -36 -79 -79 c-148 -151 -337 -290 -508 -376 -142 -71 -381 -124 -473
-106 l-42 9 35 38 c31 33 39 37 84 37 74 0 180 25 296 70 185 73 371 200 550
378 55 54 101 100 103 100 2 1 10 -14 18 -35z m-2589 -5 c7 -6 13 -13 13 -17
0 -8 -60 -45 -64 -39 -2 1 -7 20 -10 42 -7 38 -7 38 21 31 15 -3 34 -11 40
-17z m1783 -25 c0 -41 -45 -130 -98 -195 l-38 -45 -10 43 c-9 38 -8 46 8 60 9
9 20 25 24 36 4 15 9 17 20 7 11 -9 14 -7 14 10 0 28 59 133 71 125 5 -3 9
-21 9 -41z m1390 27 c0 -11 -9 -29 -20 -40 -23 -23 -60 -27 -60 -6 0 15 55 66
71 66 5 0 9 -9 9 -20z m-3277 -7 c19 -70 19 -72 -23 -98 -22 -14 -42 -25 -44
-25 -14 0 -15 62 -2 89 24 46 61 64 69 34z m1719 6 c20 -11 19 -11 -8 -40
l-28 -29 -13 31 c-19 47 2 63 49 38z m-67 -51 c13 -32 13 -33 -58 -111 -88
-95 -141 -167 -164 -219 -19 -43 -36 -45 -41 -4 -7 59 58 168 178 299 34 37
64 67 66 67 3 0 11 -15 19 -32z m120 2 c15 -28 14 -32 -11 -70 -15 -22 -30
-40 -34 -40 -3 0 -13 15 -22 32 -15 32 -14 34 15 70 17 21 32 38 33 38 2 0 10
-13 19 -30z m4220 -37 c3 -27 9 -58 12 -70 5 -21 2 -23 -33 -23 -53 0 -101
-32 -124 -82 -19 -43 -14 -83 13 -100 8 -5 9 -10 2 -15 -6 -5 -56 -44 -111
-88 -124 -100 -331 -241 -340 -232 -6 6 -32 134 -33 164 -1 6 35 37 80 68 118
83 311 241 419 343 52 49 98 88 101 86 4 -2 10 -25 14 -51z m-5843 11 c11 -40
4 -55 -37 -81 -38 -25 -40 -24 -50 33 -6 39 -4 43 27 62 41 25 50 23 60 -14z
m1773 -54 c-12 -82 -57 -151 -184 -282 -67 -71 -78 -78 -113 -78 -21 0 -38 4
-38 9 0 6 52 67 117 138 123 135 187 224 199 276 l7 32 9 -25 c5 -14 6 -45 3
-70z m991 50 c8 0 27 8 42 17 15 9 23 12 17 7 -5 -6 -47 -45 -92 -88 l-82 -78
-16 38 -16 38 53 53 c49 50 52 51 65 33 8 -11 21 -20 29 -20z m-263 -144
c-116 -110 -198 -177 -317 -257 -79 -53 -91 -59 -102 -45 -14 19 -63 21 -88 3
-10 -7 -21 -29 -25 -47 -6 -31 -13 -37 -60 -54 l-54 -20 -18 23 c-29 36 -23
48 36 70 198 74 391 203 595 399 l95 90 17 -36 16 -36 -95 -90z m-2770 112
c17 -42 17 -43 -5 -60 -33 -25 -44 -22 -69 19 l-23 36 30 23 c16 13 34 24 39
24 6 0 18 -19 28 -42z m147 -17 c0 -10 3 -31 6 -47 5 -26 1 -31 -38 -53 l-44
-24 -50 22 c-47 21 -48 23 -29 37 36 28 51 33 66 23 7 -5 20 -9 28 -9 11 0 11
3 0 16 -11 14 -9 19 11 35 32 24 50 24 50 0z m1674 -48 c5 -17 3 -23 -8 -23
-15 0 -170 -176 -202 -229 -21 -35 -22 -36 -48 -16 -18 13 -17 16 17 77 36 64
82 123 166 211 45 46 46 47 57 25 6 -13 15 -33 18 -45z m2141 -19 c13 -41 12
-42 -30 -103 -23 -33 -53 -86 -66 -116 -13 -30 -27 -55 -30 -55 -3 0 -14 9
-23 19 -14 16 -16 29 -11 62 13 74 133 283 143 248 2 -8 9 -33 17 -55z m-1085
27 c0 -5 3 -16 6 -25 4 -11 1 -16 -11 -16 -9 0 -30 -14 -47 -30 -24 -24 -29
-37 -26 -61 4 -28 -3 -37 -83 -105 -53 -44 -96 -74 -110 -74 -25 0 -69 -36
-69 -56 0 -20 -243 -164 -256 -151 -2 2 -7 18 -10 35 -6 28 -4 32 16 32 12 0
34 13 48 28 15 15 68 54 117 87 115 76 262 195 345 279 62 64 80 76 80 57z
m-2620 -9 c0 -5 -11 -19 -24 -31 -19 -18 -24 -19 -29 -7 -3 8 3 21 16 30 25
17 37 20 37 8z m3760 -12 c0 -4 -7 -13 -15 -20 -12 -10 -15 -9 -15 7 0 11 7
20 15 20 8 0 15 -4 15 -7z m-3855 -49 c-3 -6 -14 -11 -23 -11 -13 0 -13 2 4
14 21 15 30 14 19 -3z m4956 -24 c19 -14 18 -16 -27 -42 -25 -15 -49 -23 -54
-19 -4 5 -10 30 -13 56 l-6 47 40 -14 c22 -8 49 -21 60 -28z m-1123 -46 c17
-57 16 -65 -28 -132 -22 -34 -40 -66 -40 -71 0 -14 -27 -9 -49 10 -21 17 -22
18 -6 57 19 45 97 174 106 175 3 0 11 -17 17 -39z m1622 -5 c0 -15 -14 -37
-39 -59 -70 -63 -118 -60 -86 7 31 64 125 104 125 52z m-437 -27 c11 -21 16
-51 15 -78 -3 -43 -5 -45 -64 -78 l-61 -33 -15 86 -14 86 50 29 c28 16 56 27
61 26 6 -2 18 -19 28 -38z m-3423 16 c7 -8 19 -15 27 -15 8 0 -14 -32 -49 -70
-54 -61 -66 -70 -88 -65 -14 4 -27 8 -29 11 -9 8 103 154 119 154 4 0 13 -7
20 -15z m3700 -10 c-12 -14 -11 -57 3 -168 1 -13 -25 -34 -94 -77 -90 -55
-309 -170 -324 -170 -4 0 5 14 20 32 25 30 27 37 22 101 l-4 68 43 25 c23 14
49 24 56 22 7 -1 24 8 38 21 29 26 243 168 249 164 2 -1 -2 -9 -9 -18z m-428
-126 l15 -82 -82 -37 c-136 -63 -408 -150 -423 -136 -6 7 -25 147 -20 152 3 2
43 15 89 28 94 26 271 94 339 131 25 13 50 24 56 25 5 0 17 -37 26 -81z m-977
-21 c4 -16 -1 -32 -15 -50 -19 -24 -23 -26 -53 -16 -17 6 -35 14 -40 18 -4 3
11 35 34 71 l42 64 13 -31 c7 -17 16 -42 19 -56z m-2535 37 c0 -8 -2 -15 -4
-15 -2 0 -6 7 -10 15 -3 8 -1 15 4 15 6 0 10 -7 10 -15z m4051 -4 c-14 -10
-37 -26 -53 -35 -28 -17 -28 -17 -28 8 0 21 5 26 28 27 15 0 36 4 47 9 31 13
32 11 6 -9z m-4002 -20 c13 -8 7 -51 -7 -51 -12 0 -33 40 -27 50 8 12 16 12
34 1z m89 -36 c2 -2 -4 -15 -13 -29 -14 -21 -21 -24 -36 -15 -21 11 -25 39 -7
57 10 10 36 4 56 -13z m2175 -12 c-6 -14 -8 -14 -14 3 -12 30 -10 37 5 24 8
-6 12 -19 9 -27z m-2073 -2 c-1 -14 -50 -61 -64 -61 -21 0 -46 11 -46 20 0 4
9 18 19 32 16 19 26 23 55 20 20 -2 36 -7 36 -11z m2128 -9 c22 -17 22 -19 6
-57 -15 -37 -17 -38 -30 -20 -15 20 -20 95 -6 95 4 0 17 -8 30 -18z m-2328
-28 c0 -8 -4 -12 -10 -9 -5 3 -10 13 -10 21 0 8 5 12 10 9 6 -3 10 -13 10 -21z
m3926 -61 c21 -108 22 -106 -53 -151 -247 -145 -590 -275 -794 -299 l-47 -6
-8 69 c-5 38 -9 73 -9 78 0 5 47 19 105 32 205 46 459 152 665 278 66 40 122
71 124 69 2 -1 10 -33 17 -70z m-1503 50 c9 -3 17 -9 17 -15 0 -20 -41 -88
-54 -88 -19 0 -47 35 -42 51 25 68 27 71 44 64 9 -4 25 -10 35 -12z m-2376
-13 c2 -8 -2 -22 -7 -30 -9 -13 -11 -13 -20 0 -16 25 -12 52 7 48 10 -2 19
-10 20 -18z m3443 5 c0 -9 -9 -15 -22 -15 -22 1 -23 1 -4 15 25 19 26 19 26 0z
m-551 -58 c18 -101 25 -93 -104 -107 -91 -10 -135 -10 -215 0 -55 7 -102 15
-105 19 -2 4 13 33 33 64 l36 57 66 1 c36 0 106 6 155 13 50 7 97 14 106 15
13 1 19 -14 28 -62z m-2425 37 c10 -27 7 -54 -8 -54 -13 0 -26 28 -26 58 0 18
27 15 34 -4z m473 -19 c11 -34 10 -36 -31 -64 -23 -16 -78 -47 -121 -69 -84
-43 -86 -42 -99 11 -6 25 -3 29 36 46 24 11 77 40 118 65 41 25 78 45 81 45 3
1 10 -15 16 -34z m1571 20 c6 -5 -70 -115 -79 -115 -19 0 -59 21 -59 30 0 7
12 31 26 56 25 43 27 44 67 38 23 -4 43 -8 45 -9z m-2444 -1 c11 -4 13 -11 6
-22 -24 -43 -27 -44 -48 -33 -19 10 -20 15 -10 36 11 25 24 30 52 19z m352
-18 c14 -56 4 -63 -112 -81 -39 -6 -42 -4 -47 23 -3 16 -16 33 -29 39 -26 12
-32 10 107 31 33 5 63 10 67 11 4 0 10 -10 14 -23z m-279 -3 c-9 -2 -24 -18
-32 -34 -15 -28 -35 -39 -35 -19 0 27 33 60 59 59 17 -1 20 -3 8 -6z m509 -51
c6 -30 4 -33 -37 -52 -24 -11 -50 -20 -57 -20 -29 0 -60 54 -39 67 29 19 113
49 119 43 4 -3 11 -20 14 -38z m2653 8 c-27 -51 -22 -79 18 -106 l32 -22 -62
-22 c-95 -35 -144 -49 -239 -69 -49 -10 -88 -18 -89 -17 0 0 -6 36 -13 79
l-13 77 26 6 c92 20 218 58 277 83 38 16 72 29 76 30 4 1 -2 -17 -13 -39z
m-3325 15 c3 -8 1 -15 -4 -15 -6 0 -10 7 -10 15 0 8 2 15 4 15 2 0 6 -7 10
-15z m218 -2 c25 -22 24 -53 -2 -53 -11 0 -20 5 -20 10 0 6 -12 15 -27 21 -27
10 -27 11 -9 25 25 18 35 18 58 -3z m2073 -3 c3 -5 1 -10 -4 -10 -6 0 -11 5
-11 10 0 6 2 10 4 10 3 0 8 -4 11 -10z m-2241 -53 c-3 -9 -10 -17 -15 -17 -14
0 -22 27 -15 47 6 15 8 15 22 2 8 -9 12 -23 8 -32z m2290 20 c16 -12 17 -19 9
-53 l-10 -39 -17 37 c-27 62 -20 83 18 55z m-1347 -32 c10 -32 9 -37 -13 -54
-14 -11 -70 -43 -125 -71 l-99 -51 -10 27 c-6 15 -10 33 -8 41 3 11 220 141
239 143 3 0 10 -16 16 -35z m-874 5 c27 -21 62 -26 72 -10 7 12 25 13 43 2 9
-6 10 -16 1 -40 -13 -37 -30 -40 -103 -18 -66 20 -78 32 -64 62 14 29 18 30
51 4z m400 0 c3 -10 -1 -24 -9 -31 -11 -9 -16 -6 -23 12 -5 13 -7 27 -4 32 8
14 31 7 36 -13z m-58 -6 c40 -41 -2 -69 -119 -80 -75 -7 -79 -6 -71 12 4 10
10 29 12 41 3 12 12 24 20 27 10 4 13 2 10 -8 -9 -22 17 -40 32 -22 9 11 9 16
-1 22 -9 6 -4 11 17 15 53 12 83 9 100 -7z m1979 -15 c6 -6 2 -26 -13 -56
l-22 -46 -25 24 c-21 22 -23 28 -13 62 10 35 13 38 37 32 15 -3 31 -11 36 -16z
m-1742 -25 c4 -16 6 -34 4 -41 -7 -16 -205 -79 -299 -93 -83 -14 -213 -8 -231
10 -7 7 -7 10 1 10 6 0 24 10 40 23 23 19 49 26 147 36 126 13 135 11 136 -31
0 -10 5 -18 10 -18 6 0 10 16 8 36 -4 43 18 58 28 20 9 -36 22 -33 20 4 -1 28
4 33 54 54 30 13 59 23 64 22 6 -1 14 -16 18 -32z m-662 1 c0 -8 -2 -15 -4
-15 -2 0 -6 7 -10 15 -3 8 -1 15 4 15 6 0 10 -7 10 -15z m2579 -6 c70 -8 225
-1 305 14 10 2 40 -142 31 -151 -10 -10 -198 -24 -240 -17 l-46 6 7 37 c3 20
8 45 11 55 6 24 -6 21 -33 -8 -30 -33 -40 -32 -48 6 -5 26 -10 30 -32 27 -15
-2 -33 -12 -40 -23 -12 -18 -11 -24 2 -44 15 -20 23 -23 65 -19 36 4 49 2 49
-8 0 -7 -4 -15 -8 -18 -13 -8 -128 22 -172 44 l-40 20 16 38 c9 20 18 43 21
50 4 10 15 12 37 7 17 -3 69 -10 115 -16z m1311 7 c0 -2 7 -40 15 -85 9 -45
13 -86 9 -92 -8 -14 -276 -145 -379 -186 -306 -121 -651 -172 -859 -128 -85
18 -180 61 -228 104 -39 34 -78 104 -78 139 0 22 2 21 53 -13 64 -43 178 -81
275 -90 57 -6 72 -11 72 -24 0 -9 7 -27 16 -39 12 -17 25 -22 60 -22 41 0 50
5 92 49 39 40 55 49 94 55 97 14 285 68 407 116 132 52 333 150 398 194 35 24
53 32 53 22z m-3777 -44 c31 -9 57 -19 57 -22 0 -3 -16 -15 -34 -28 -29 -20
-38 -22 -58 -12 -38 20 -68 52 -68 73 0 16 4 18 23 12 12 -4 48 -14 80 -23z
m869 -2 c0 -11 1 -25 2 -30 1 -6 -48 -33 -108 -60 -142 -65 -142 -65 -149 -41
-4 17 5 25 47 44 28 13 83 43 121 65 39 23 73 42 78 42 4 0 8 -9 9 -20z m-293
-57 c6 -21 7 -41 3 -44 -15 -15 -210 -77 -279 -89 -82 -15 -233 -9 -278 11
-54 24 -85 50 -105 89 -11 22 -20 41 -20 44 0 3 21 -8 48 -24 106 -66 283 -63
494 9 62 21 116 39 120 39 4 1 12 -15 17 -35z m1670 -3 c0 -8 -4 -24 -8 -34
-7 -18 -9 -16 -19 14 -18 51 -16 63 8 48 11 -7 20 -20 19 -28z m181 -56 c59
-9 60 -9 50 -47 -20 -80 -21 -87 -6 -87 10 0 19 19 26 58 l12 57 121 1 c67 0
134 3 149 7 28 7 30 6 43 -59 6 -29 5 -30 -23 -26 -34 5 -77 -15 -111 -52 -29
-31 -59 -33 -169 -10 -87 17 -182 58 -229 98 -32 27 -39 49 -27 92 l6 21 56
-23 c31 -13 77 -26 102 -30z"/>
<path d="M2420 630 c0 -15 5 -20 18 -18 9 2 17 10 17 18 0 8 -8 16 -17 18 -13
2 -18 -3 -18 -18z"/>
</g>
</svg>
