<?xml version="1.0" encoding="UTF-8"?>
<svg version="1.1" xmlns="http://www.w3.org/2000/svg" width="4000" height="3000">
<path d="M0 0 C17.98022776 0.94632778 33.42817685 9.49399791 46 22 C46.62519531 22.59039063 47.25039062 23.18078125 47.89453125 23.7890625 C57.63112267 33.7674203 64.71353169 50.52003424 65.09375 64.4296875 C65.0628125 65.27789063 65.031875 66.12609375 65 67 C65.61746094 67.18175781 66.23492188 67.36351562 66.87109375 67.55078125 C72.62042737 69.25720447 78.32305366 71.06654726 84 73 C82.44397006 78.51683341 79.84444899 83.05964123 77 88 C73.37 87.67 69.74 87.34 66 87 C65.01 89.97 64.02 92.94 63 96 C68.12600561 94.91266548 73.05918728 93.77362508 78 92 C79.85131483 95.92857754 80.22004943 98.98775112 80.125 103.3125 C80.10695313 104.38113281 80.08890625 105.44976563 80.0703125 106.55078125 C80.04710938 107.35902344 80.02390625 108.16726563 80 109 C73.93107371 109.25287193 68.83799592 108.69832609 63 107 C61.03145631 111.7476642 60.63939914 115.01113019 62 120 C64.45817955 122.79245093 64.45817955 122.79245093 67 125 C67 125.66 67 126.32 67 127 C68.65 127.66 70.3 128.32 72 129 C69.87452471 135.04942966 69.87452471 135.04942966 67 137 C63.875 137.25 63.875 137.25 61 137 C60.67 136.67 60.34 136.34 60 136 C56.57862222 135.77255113 56.57862222 135.77255113 53 137 C50.66416869 139.40154524 49.46121645 141.67347635 49 145 C49.97009033 147.32561833 51.22863397 149.09617281 52.7265625 151.1171875 C54 153 54 153 54.625 156.25 C53.7615394 160.04922663 52.24188164 160.91938939 49 163 C45.73828125 163.42578125 45.73828125 163.42578125 42.3125 163.3125 C41.17425781 163.28800781 40.03601562 163.26351563 38.86328125 163.23828125 C36 163 36 163 34 162 C34 169.26 34 176.52 34 184 C31.36 182.02 28.72 180.04 26 178 C22.24938299 177.4041367 22.24938299 177.4041367 19 179 C16.87423764 181.29844333 16.1794403 182.97447923 15 186 C15.68620759 188.91638225 17.15019339 190.1630671 19.1875 192.375 C21 195 21 195 21.0625 198.0625 C19.73641385 201.72873819 18.35199035 203.0511684 15 205 C12.9375 205.0625 12.9375 205.0625 11 204 C10.38125 203.175 9.7625 202.35 9.125 201.5 C7.1689164 198.70721157 7.1689164 198.70721157 3.75 198.1875 C2.8425 198.125625 1.935 198.06375 1 198 C-1.16231091 202.84583661 -1.16231091 202.84583661 -2 208 C0.15618937 210.56411708 1.99099627 212.49549813 5 214 C3.53033642 217.39859703 1.61962486 219.64963709 -1 222.25 C-2.051875 223.30960938 -2.051875 223.30960938 -3.125 224.390625 C-5 226 -5 226 -7 226 C-8.01866229 224.34467377 -9.01810813 222.67739862 -10 221 C-13.40943989 219.29528005 -16.37121353 219.0781796 -20 220 C-23.78040304 222.59317024 -26.85959608 225.81053011 -30.046875 229.08984375 C-30.98049866 230.02292862 -31.91412231 230.95601349 -32.8760376 231.91737366 C-34.84865704 233.89173275 -36.80691294 235.87899619 -38.75537109 237.87719727 C-41.23711156 240.42109024 -43.74635163 242.93548121 -46.26646042 245.44130611 C-48.21689282 247.3852821 -50.15441459 249.34172746 -52.08817291 251.30227852 C-53.45179993 252.68188691 -54.82379864 254.05320465 -56.19598389 255.42430115 C-63.32922092 262.77496034 -68.16489588 270.2762423 -68.09765625 280.765625 C-68.09443359 281.65507813 -68.09121094 282.54453125 -68.08789062 283.4609375 C-68.07951172 284.38132812 -68.07113281 285.30171875 -68.0625 286.25 C-68.05798828 287.18585938 -68.05347656 288.12171875 -68.04882812 289.0859375 C-68.03706918 291.39069041 -68.02063426 293.69531227 -68 296 C-60.26659049 297.89436611 -54.19993887 298.93843332 -46.75 295.5 C-43.16260233 292.23872939 -40.56608314 288.62033484 -39 284 C-39.3402726 281.13567998 -40.08668117 278.73995649 -41 276 C-41.6215203 269.41188479 -39.76057954 266.39118455 -35.69824219 261.40087891 C-26.98625669 254.21436758 -5.55306052 257.37392932 5 258 C22.41823862 259.8694705 37.08292845 268.62994035 49 281 C49.79921875 281.79148437 50.5984375 282.58296875 51.421875 283.3984375 C58.21424295 290.448447 64.87475926 299.62427777 68 309 C67.22623044 312.72245896 65.64943303 315.29286607 63 318 C59.84213531 319.32827912 56.79676657 320.24702956 53.5012207 321.13427734 C38.94022085 325.09098155 29.42386711 332.4154023 20 344 C19.22269531 344.94359375 18.44539063 345.8871875 17.64453125 346.859375 C16.18132785 348.65147545 14.72548942 350.44961626 13.27734375 352.25390625 C10.78173453 355.26319147 8.16233195 358.13937022 5.5 361 C1.21610048 365.60385882 -2.79363257 370.36491246 -6.73828125 375.265625 C-9.90795681 379.09770253 -13.2626428 382.74608969 -16.640625 386.39453125 C-19.07918514 388.99640216 -19.07918514 388.99640216 -21.2421875 392.06640625 C-24.39115051 395.86307585 -28.36719661 397.36021414 -32.875 399.125 C-34.1283313 399.63365601 -34.1283313 399.63365601 -35.40698242 400.15258789 C-56.45194761 408.48125953 -81.3746358 412.51747473 -103 404 C-127.51795126 393.37232416 -140.98277057 370.51586597 -151 347 C-159.9060909 324.20394614 -154.81965893 295.07613033 -145.4921875 273.265625 C-141.45487486 264.43004026 -136.659084 258.09687845 -130 251 C-128.82725615 249.65109291 -127.66012536 248.29727484 -126.5 246.9375 C-120.15476388 239.68995967 -113.32828115 233.25871638 -105.8046875 227.24609375 C-103.97789738 225.78313509 -102.16933051 224.29703045 -100.3828125 222.78515625 C-88.95915486 213.14114854 -76.53040573 205.4875109 -63.40869141 198.3737793 C-55.83005545 194.18132701 -49.60781206 189.12368911 -43.9375 182.5625 C-39.87928493 177.9556874 -35.71067764 173.46782621 -31.5 169 C-25.92019574 163.06804871 -20.39772529 157.09887311 -15 151 C-14.44699219 150.37609375 -13.89398437 149.7521875 -13.32421875 149.109375 C-8.55451875 143.69081367 -3.87057229 138.19767518 0.8203125 132.7109375 C2.88970698 130.2917862 4.96777307 127.88061267 7.0546875 125.4765625 C12.57925105 119.09965816 17.98095811 112.65686585 23.12158203 105.96435547 C25.11666392 103.36819589 27.11072147 100.87904377 29.32421875 98.4609375 C40.76222601 85.81781672 40.26689849 67.1306774 40 51 C40.04125 50.17628906 40.0825 49.35257813 40.125 48.50390625 C40.125 45.3107188 39.24995351 43.30027601 37.234375 40.87890625 C27.81293846 31.87862664 16.2389275 24.55970313 4.29296875 19.44921875 C1.34279855 17.58463077 0.83412297 16.36509038 0 13 C-0.1953125 9.66796875 -0.1953125 9.66796875 -0.125 6.1875 C-0.10695313 5.02605469 -0.08890625 3.86460938 -0.0703125 2.66796875 C-0.04710937 1.78753906 -0.02390625 0.90710937 0 0 Z " fill="#4A4944" transform="translate(2010,1110)"/>
<path d="M0 0 C425.7 0 851.4 0 1290 0 C1290 8.58 1290 17.16 1290 26 C864.3 25.67 438.6 25.34 0 25 C0 16.75 0 8.5 0 0 Z " fill="#434443" transform="translate(2198,1431)"/>
<path d="M0 0 C425.7 0 851.4 0 1290 0 C1290 8.58 1290 17.16 1290 26 C864.3 25.67 438.6 25.34 0 25 C0 16.75 0 8.5 0 0 Z " fill="#434443" transform="translate(503,1431)"/>
<path d="M0 0 C426.03 0 852.06 0 1291 0 C1291 7.92 1291 15.84 1291 24 C864.97 24 438.94 24 0 24 C0 16.08 0 8.16 0 0 Z " fill="#464544" transform="translate(2197,1486)"/>
<path d="M0 0 C426.03 0 852.06 0 1291 0 C1291 7.92 1291 15.84 1291 24 C864.97 24 438.94 24 0 24 C0 16.08 0 8.16 0 0 Z " fill="#464544" transform="translate(502,1486)"/>
<path d="M0 0 C10.98096649 2.12553988 16.86629956 5.93510091 23.19726562 15.24365234 C26.05754464 19.61696628 28.75858587 24.07648204 31.4375 28.5625 C47.3669811 54.95740485 64.37048179 80.71107082 82 106 C82.710354 107.0211792 82.710354 107.0211792 83.43505859 108.06298828 C90.73765818 118.5443948 98.27645055 128.82518219 106 139 C108.90494704 136.44540385 110.49862434 133.55451917 112.3359375 130.171875 C112.65137512 129.59514038 112.96681274 129.01840576 113.29180908 128.42419434 C113.97014768 127.18281689 114.64617972 125.9401768 115.32012939 124.69641113 C117.11442154 121.38564468 118.92580892 118.08423344 120.734375 114.78125 C121.09806183 114.11587219 121.46174866 113.45049438 121.8364563 112.76495361 C125.04681949 106.89672217 128.32174382 101.06644672 131.625 95.25 C136.10857011 87.34727457 140.56600779 79.43065824 145 71.5 C150.00296025 62.55401701 155.02676286 53.62027699 160.08569336 44.70581055 C163.01639333 39.5353304 165.91678213 34.34988312 168.78515625 29.14453125 C169.41550781 28.005 170.04585937 26.86546875 170.6953125 25.69140625 C171.9132008 23.48748705 173.12570404 21.2805809 174.33203125 19.0703125 C174.88375 18.07386719 175.43546875 17.07742188 176.00390625 16.05078125 C176.48674072 15.17075439 176.9695752 14.29072754 177.46704102 13.3840332 C180.62205904 8.47739982 183.8146365 6.21610326 189.2734375 4.52734375 C194.50607883 3.51529994 199.69032957 3.8323262 205 4 C205.33 8.29 205.66 12.58 206 17 C205.34 17 204.68 17 204 17 C204 83.99 204 150.98 204 220 C197.07 220 190.14 220 183 220 C183.01740234 215.32457031 183.01740234 215.32457031 183.03515625 210.5546875 C183.11800702 180.93882827 182.93569097 151.3302411 182.59428024 121.71646881 C182.56306599 118.98699227 182.53288756 116.25750606 182.50296021 113.52801514 C182.29583374 94.82276318 182.02539577 76.11943245 181.58921623 57.41797066 C181.54839966 55.66051749 181.50886783 53.90303396 181.47070503 52.14552116 C181.41717948 49.71740578 181.35782477 47.28950503 181.29663086 44.86157227 C181.28170279 44.15085886 181.26677471 43.44014545 181.25139427 42.70789528 C181.14289489 38.72214329 180.75149091 34.91564559 180 31 C179.61368408 31.69746338 179.22736816 32.39492676 178.8293457 33.11352539 C172.09519065 45.26642325 165.35344726 57.41383137 158.5 69.5 C151.25140863 82.28789331 144.12565285 95.14331748 137 108 C129.68025922 121.20687175 122.35645095 134.41101665 114.9375 147.5625 C114.16962158 148.92616699 114.16962158 148.92616699 113.38623047 150.31738281 C110.01972138 156.27053182 106.54560751 162.15182588 103 168 C92.23200686 165.22642601 88.17422945 158.6715327 82.53125 149.4453125 C81.47822056 147.75189752 80.42346025 146.05955792 79.3671875 144.36816406 C78.81836914 143.48890259 78.26955078 142.60964111 77.70410156 141.70373535 C73.03629644 134.29777434 68.18412905 127.00880351 63.36376953 119.70166016 C61.49824018 116.87233099 59.63766715 114.03978532 57.77734375 111.20703125 C50.79423542 100.5970287 43.65852232 90.12217362 36.27398682 79.78771973 C34.45704291 77.23809644 32.66306841 74.67268201 30.87109375 72.10546875 C30.29166016 71.27595703 29.71222656 70.44644531 29.11523438 69.59179688 C27.96140074 67.93828208 26.80776605 66.28462844 25.65429688 64.63085938 C25.08646484 63.81810547 24.51863281 63.00535156 23.93359375 62.16796875 C23.43915771 61.45922607 22.94472168 60.7504834 22.43530273 60.02026367 C20.99057429 57.98673282 19.50542178 55.98889861 18 54 C16.26460047 65.70471601 14.58519887 77.18212714 14.9921875 89.0390625 C14.99881194 92.39765597 14.80570837 95.60097509 14.51538086 98.94165039 C13.98940712 105.59915405 13.80637335 112.21822709 13.76171875 118.89453125 C13.753647 120.08439133 13.74557526 121.2742514 13.73725891 122.50016785 C13.72352497 125.00522452 13.71275583 127.51029906 13.70483398 130.01538086 C13.69336764 132.52715716 13.67300191 135.03891013 13.64331055 137.55053711 C13.43785492 155.00737868 13.41139882 173.23419647 19 190 C19.09475392 192.02952166 19.13072224 194.06201869 19.1328125 196.09375 C19.13474609 197.88619141 19.13474609 197.88619141 19.13671875 199.71484375 C19.13285156 200.96394531 19.12898437 202.21304687 19.125 203.5 C19.13080078 205.37365234 19.13080078 205.37365234 19.13671875 207.28515625 C19.13542969 208.48011719 19.13414062 209.67507813 19.1328125 210.90625 C19.13168457 212.00259766 19.13055664 213.09894531 19.12939453 214.22851562 C19 217 19 217 18 220 C10.74 220 3.48 220 -4 220 C-4.11992783 199.72420231 -3.70038846 179.48495481 -3.20236206 159.21710205 C-2.96219778 149.43400147 -2.73377378 139.65062525 -2.5078125 129.8671875 C-2.48517523 128.88889355 -2.46253796 127.91059959 -2.43921471 126.90266037 C-2.01496699 108.47789888 -1.69552488 90.05276299 -1.4375 71.625 C-1.10198841 47.74555866 -0.6418747 23.87319806 0 0 Z " fill="#59520D" transform="translate(835,1589)"/>
<path d="M0 0 C7.00686482 7.17586156 10.1536984 18.01657526 13.91796875 27.15625 C14.24182556 27.93867065 14.56568237 28.72109131 14.89935303 29.52722168 C35.68414829 79.76922359 54.65230504 130.81695385 72.63356018 182.12200928 C74.36797612 187.06992788 76.124808 192.00880981 77.90234375 196.94140625 C78.65760017 199.05467032 79.41281381 201.16794967 80.16796875 203.28125 C80.49708252 204.18174072 80.82619629 205.08223145 81.1652832 206.01000977 C83.21890724 211.81593452 83.21890724 211.81593452 82.10546875 215.15625 C77.11440215 217.90642955 72.78361085 219.00240451 67.10546875 218.15625 C63.59013011 217.08096994 60.74045298 215.79123423 58.10546875 213.15625 C57.45966459 211.38567939 56.89125356 209.58655036 56.36328125 207.77734375 C56.02586914 206.64570801 55.68845703 205.51407227 55.34082031 204.34814453 C54.9744043 203.10919434 54.60798828 201.87024414 54.23046875 200.59375 C46.92332963 176.41981897 38.1024873 152.86802789 28.11816406 129.67626953 C27.84911255 129.04918594 27.58006104 128.42210236 27.30285645 127.77601624 C26.57526991 126.08410267 25.84203171 124.39462269 25.10839844 122.70532227 C24.10546875 120.15625 24.10546875 120.15625 24.10546875 118.15625 C0.00552213 114.28543414 -22.79458463 114.28543414 -46.89453125 118.15625 C-47.06734619 119.18286743 -47.06734619 119.18286743 -47.24365234 120.23022461 C-47.99586282 123.61178594 -49.10808629 126.72213523 -50.30859375 129.97265625 C-50.82062523 131.36989948 -51.33249882 132.76720058 -51.84423828 134.16455078 C-52.11673401 134.90481506 -52.38922974 135.64507935 -52.66998291 136.40777588 C-58.32664793 151.79525397 -63.73519204 167.26230727 -69.01953125 182.78125 C-69.34254211 183.72759308 -69.66555298 184.67393616 -69.99835205 185.6489563 C-70.92711916 188.37192048 -71.85289512 191.09587949 -72.77734375 193.8203125 C-73.04873169 194.61695816 -73.32011963 195.41360382 -73.59973145 196.23439026 C-75.25543193 201.13413779 -76.73314746 206.04705039 -78.06100464 211.04672241 C-79.41318752 214.4688892 -81.66474191 215.64022643 -84.89453125 217.15625 C-88.2242337 218.21375207 -91.34821467 218.32178394 -94.83203125 218.34375 C-95.85167969 218.35792969 -96.87132812 218.37210938 -97.921875 218.38671875 C-100.96612792 218.15069914 -103.14190768 217.43877995 -105.89453125 216.15625 C-104.56559554 211.99390839 -103.02695815 208.01922532 -101.26171875 204.0234375 C-100.7090256 202.76109039 -100.15698139 201.49845902 -99.60546875 200.2355957 C-99.30866211 199.55695465 -99.01185547 198.8783136 -98.70605469 198.17910767 C-75.23894636 144.35876906 -54.69824115 89.3027538 -35.3046875 33.90625 C-34.93387558 32.85424408 -34.56306366 31.80223816 -34.18101501 30.71835327 C-32.27099602 25.26212368 -30.45403448 19.7934031 -28.76123047 14.265625 C-28.41458847 13.15606445 -28.06794647 12.04650391 -27.71080017 10.90332031 C-27.05472323 8.78921846 -26.41835527 6.66886636 -25.8049469 4.54199219 C-23.61423197 -2.46003114 -23.61423197 -2.46003114 -19.81005859 -4.48828125 C-12.09706317 -5.42866991 -6.54481593 -4.22404631 0 0 Z " fill="#5B5410" transform="translate(698.89453125,1596.84375)"/>
<path d="M0 0 C4.06925076 1.90536424 7.253026 4.57120233 10.625 7.5 C11.24600586 8.03826416 11.86701172 8.57652832 12.50683594 9.13110352 C21.63862029 17.11611113 29.46798821 25.58004158 36.71142578 35.28808594 C38.89066384 38.18327678 41.13232606 41.02883707 43.375 43.875 C43.8277832 44.45056641 44.28056641 45.02613281 44.74707031 45.61914062 C49.68876667 51.89089299 54.68153154 58.12174602 59.67773438 64.35009766 C61.43495915 66.54273522 63.18576715 68.74047371 64.9375 70.9375 C68.92780212 75.92951697 72.97111198 80.87800966 77.00927734 85.83129883 C80.58044287 90.22242208 84.08929701 94.6562003 87.5625 99.125 C91.777641 104.53787758 96.16928483 109.77195463 100.65820312 114.95922852 C104.42775236 119.31639117 108.09061443 123.74992482 111.72265625 128.22265625 C114.74485223 131.90838753 117.83147207 135.53744822 120.91870117 139.16870117 C123.77859495 142.53870316 126.59262982 145.94035256 129.375 149.375 C133.41347399 154.33490834 137.57661784 159.17628922 141.78076172 163.99560547 C147.56418574 170.62619986 153.27885756 177.31569046 159 184 C159.38849648 150.39461361 158.96249559 116.89209778 157.625 83.3125 C157.59128044 82.46592583 157.55756088 81.61935165 157.52281952 80.74712372 C156.49795378 55.15844439 155.37140023 29.57258083 154 4 C161.26 4 168.52 4 176 4 C176.63337033 56.07711589 174.3878582 108.17653564 172 160.1875 C171.93692406 161.57085604 171.93692406 161.57085604 171.87257385 162.98215866 C170.85259933 185.343607 169.68275307 207.67731338 168 230 C164.28713351 228.28677801 162.47568214 226.42783346 159.9375 223.1875 C159.15246094 222.20136719 158.36742188 221.21523437 157.55859375 220.19921875 C157.14335449 219.67634277 156.72811523 219.1534668 156.30029297 218.61474609 C154.08622891 215.86524934 151.79066232 213.18570061 149.5 210.5 C145.37801942 205.65123979 141.33006654 200.74836747 137.3125 195.8125 C134.73853608 192.68200334 132.12430914 189.58827539 129.5 186.5 C125.37898366 181.65040619 121.33008646 176.74839194 117.3125 171.8125 C114.73853608 168.68200334 112.12430914 165.58827539 109.5 162.5 C105.37898366 157.65040619 101.33008646 152.74839194 97.3125 147.8125 C94.73853608 144.68200334 92.12430914 141.58827539 89.5 138.5 C85.37898366 133.65040619 81.33008646 128.74839194 77.3125 123.8125 C74.73853608 120.68200334 72.12430914 117.58827539 69.5 114.5 C65.37898366 109.65040619 61.33008646 104.74839194 57.3125 99.8125 C54.73853608 96.68200334 52.12430914 93.58827539 49.5 90.5 C45.37898366 85.65040619 41.33008646 80.74839194 37.3125 75.8125 C34.73853353 72.68200024 32.12417836 69.58838974 29.5 66.5 C16.3124151 50.96862266 16.3124151 50.96862266 13 46 C12.96951427 63.99999194 12.94896919 81.99998589 12.9375 100 C12.9370657 100.66223509 12.93663139 101.32447018 12.93618393 102.00677299 C12.91506837 135.09052958 12.90547146 168.17064634 13.5 201.25 C13.51195782 201.9160022 13.52391563 202.58200439 13.53623581 203.26818848 C13.67373382 210.84593365 13.83294382 218.42280912 14 226 C6.74 226 -0.52 226 -8 226 C-8.14425267 207.60331928 -7.74728768 189.25848234 -7.05621767 170.87632895 C-6.9190316 167.20080521 -6.78720295 163.52508833 -6.65463257 159.84939575 C-6.43075559 153.66217507 -6.20344426 147.47508892 -5.97363281 141.28808594 C-5.65630933 132.74474514 -5.34578733 124.20116701 -5.03641748 115.65753508 C-4.07945511 89.25355953 -3.10409755 62.85006968 -2.02393723 36.45080948 C-1.94189682 34.4452297 -1.86051187 32.43962297 -1.77986526 30.43398666 C-1.369321 20.2700975 -0.89176816 10.13515667 0 0 Z " fill="#5C5510" transform="translate(2914,1589)"/>
<path d="M0 0 C1.06992188 -0.03738281 2.13984375 -0.07476563 3.2421875 -0.11328125 C4.52351563 0.02722656 5.80484375 0.16773438 7.125 0.3125 C7.99044434 0.40120361 8.85588867 0.48990723 9.74755859 0.58129883 C13.69877434 1.42750106 16.83062739 2.47044284 19.24053955 5.90005493 C22.11086464 11.20973543 23.99689129 16.94854021 26 22.625 C26.71232569 24.54472587 27.42882716 26.46290666 28.14916992 28.37963867 C29.69514291 32.50903634 31.21838076 36.64589612 32.72705078 40.7890625 C35.13921923 47.38809895 37.65040279 53.94662189 40.18359375 60.5 C56.23118151 102.06306574 71.66332816 143.85837278 86.83911133 185.74682617 C87.14064621 186.57894119 87.44218109 187.41105621 87.75285339 188.26838684 C88.33927842 189.88761113 88.92508119 191.50706094 89.51020813 193.12675476 C91.02530946 197.31320975 92.56167205 201.49053153 94.12646484 205.65869141 C94.45257248 206.53084793 94.77868011 207.40300446 95.1146698 208.30158997 C95.73964134 209.97006571 96.368604 211.63705365 97.00215149 213.30229187 C99.125 218.97855498 99.125 218.97855498 99.125 222.3125 C96.95949764 222.42199169 94.79233141 222.49875496 92.625 222.5625 C91.4184375 222.60890625 90.211875 222.6553125 88.96875 222.703125 C84.20232326 222.21873204 80.80762589 221.47455538 77.125 218.3125 C74.70360374 214.61910937 73.16196056 210.66691753 71.5625 206.5625 C71.06637207 205.34675293 70.57024414 204.13100586 70.05908203 202.87841797 C68.36696463 198.70790894 66.74432566 194.51169321 65.125 190.3125 C64.51029073 188.72882685 63.89554368 187.14516837 63.28076172 185.56152344 C56.54377916 168.15248996 50.08762817 150.64885844 44.1875 132.9375 C43.97381775 132.29685608 43.7601355 131.65621216 43.53997803 130.99615479 C40.125 120.71237989 40.125 120.71237989 40.125 118.3125 C15.705 118.6425 -8.715 118.9725 -33.875 119.3125 C-42.38605085 147.12910523 -50.25816729 175.04241171 -57.70713806 203.15992737 C-59.40063219 209.55219837 -61.12698083 215.93492325 -62.875 222.3125 C-72.08798939 223.82282613 -80.72443296 223.15878311 -88.875 218.3125 C-88.28448082 213.60674423 -86.91260032 209.58716809 -85.015625 205.27734375 C-84.39893367 203.84153786 -83.78240604 202.40566166 -83.16601562 200.96972656 C-82.83512939 200.20535278 -82.50424316 199.440979 -82.16333008 198.65344238 C-61.16121522 150.03944762 -42.48032842 100.37910851 -24.375 50.625 C-23.95725311 49.47735168 -23.53950623 48.32970337 -23.10910034 47.14727783 C-18.40664529 34.21404411 -13.76496875 21.26420495 -9.3236084 8.23860168 C-9.01507935 7.34026108 -8.70655029 6.44192047 -8.38867188 5.51635742 C-8.11921753 4.7254924 -7.84976318 3.93462738 -7.57214355 3.11979675 C-6.1121895 -0.6650338 -3.7916451 0.08475442 0 0 Z " fill="#5A530F" transform="translate(1765.875,1592.6875)"/>
<path d="M0 0 C80.64127479 -0.73397506 80.64127479 -0.73397506 102.1875 19.00390625 C111.07002861 28.47987966 114.49818579 39.9198227 114.25390625 52.6875 C113.34956761 64.48564097 111.41056175 77.20645581 102.5625 85.625 C92.95884281 93.59519057 82.7529556 98.99899384 71 103 C72.09054688 103.4021875 72.09054688 103.4021875 73.203125 103.8125 C88.25717497 109.67971948 104.82494376 120.1377288 112.07955933 135.24865723 C113.03113397 137.66790507 113.89766048 140.10119276 114.734375 142.5625 C115.05408768 143.46386185 115.37380035 144.36522369 115.70320129 145.29389954 C116.38111111 147.20771902 117.05318141 149.1236158 117.71975708 151.04141235 C119.45064694 156.01207438 121.2340542 160.96388493 123.01171875 165.91796875 C123.35794785 166.88598923 123.70417694 167.8540097 124.06089783 168.85136414 C126.76387849 176.39314685 129.54786398 183.8885048 132.5625 191.3125 C132.91860352 192.22708984 133.27470703 193.14167969 133.64160156 194.08398438 C138.9800947 206.94602831 150.88858658 213.28706914 163 219 C156.17380014 223.10881574 146.88940747 221.3923161 139.4375 219.875 C131.67193642 217.90294315 124.65125385 214.43416923 118 210 C116.82763672 207.54614258 116.82763672 207.54614258 115.6796875 204.39453125 C115.23512207 203.20190674 114.79055664 202.00928223 114.33251953 200.78051758 C114.09615784 200.13595612 113.85979614 199.49139465 113.61627197 198.82730103 C108.57477323 185.12434556 102.97466811 171.68784321 97.125 158.3125 C96.76500916 157.48569733 96.40501831 156.65889465 96.03411865 155.80703735 C86.85737192 134.75371536 78.55658778 118.19540116 56.00976562 109.20654297 C51.72280364 107.63665501 47.37433807 106.30622595 43 105 C40.99773635 104.34016311 38.99693504 103.67579204 37 103 C37 102.67 37 102.34 37 102 C38.84851562 101.54560547 38.84851562 101.54560547 40.734375 101.08203125 C58.0496127 96.74008033 73.99396283 91.94003774 84.18359375 76.16796875 C90.78251429 64.29958052 89.52542423 50.94237349 86.1875 38.25 C85.47106069 35.82952969 84.74312131 33.41241218 84 31 C83.79375 30.11957031 83.5875 29.23914062 83.375 28.33203125 C81.69620014 22.79008399 78.18670748 20.38445713 73.25 17.6875 C57.87517084 9.99728559 43.53172596 9.76224895 26 9 C26 31.11 26 53.22 26 76 C24.68 76 23.36 76 22 76 C22 122.53 22 169.06 22 217 C14.41 217 6.82 217 -1 217 C-1.02313515 189.44498783 -1.04098755 161.889978 -1.05181217 134.33495808 C-1.05697151 121.54109174 -1.06400733 108.74723154 -1.07543945 95.95336914 C-1.08539733 84.80405571 -1.09185607 73.65474672 -1.09408849 62.50542897 C-1.09539372 56.60034236 -1.09846774 50.69526847 -1.10573006 44.79018593 C-1.11250765 39.23433401 -1.11461339 33.67850008 -1.11310768 28.12264442 C-1.11338322 26.08163353 -1.11537804 24.04062204 -1.11920547 21.99961472 C-1.12416982 19.2162584 -1.12298809 16.43297027 -1.12025452 13.64961243 C-1.12316736 12.8392956 -1.1260802 12.02897876 -1.12908131 11.19410688 C-1.11882266 7.337882 -0.9420647 3.74810246 0 0 Z " fill="#5A520E" transform="translate(3331,1593)"/>
<path d="M0 0 C67.76666667 0 67.76666667 0 82 7 C82.96421875 7.4434375 83.9284375 7.886875 84.921875 8.34375 C95.37534457 13.5416078 104.29425937 21.1441825 109 32 C113.63277507 46.14493682 113.27684191 62.35573717 107.5625 76.25 C100.43253169 88.41130443 87.08759781 97.46536062 74 102 C73.01 102 72.02 102 71 102 C71 102.66 71 103.32 71 104 C72.794375 104.4640625 72.794375 104.4640625 74.625 104.9375 C84.22793776 108.17867993 92.81001831 114.62275385 100.4375 121.1875 C101.34371094 121.96480469 102.24992187 122.74210937 103.18359375 123.54296875 C111.52762364 132.61508086 115.80002213 147.15337796 120.64996338 158.32574463 C121.83376814 161.04892443 123.02489597 163.76879054 124.21826172 166.48779297 C127.55129547 174.08425187 130.8748388 181.68299488 134.11328125 189.3203125 C134.95026956 191.25531704 135.7874806 193.19022527 136.625 195.125 C136.9650708 195.95644531 137.3051416 196.78789063 137.65551758 197.64453125 C141.44530688 206.29013144 148.3850708 211.0752902 156.5 215.4375 C157.13164062 215.78748047 157.76328125 216.13746094 158.4140625 216.49804688 C159.93790409 217.34077745 161.46824767 218.17173505 163 219 C156.77470191 223.15019873 146.55498624 221.60526705 139.375 220.3828125 C127.06573905 217.03919114 117.94990478 209.57949324 111 199 C109.27785594 195.11358932 108.12280525 191.15702413 107 187.0625 C106.33859484 184.8430855 105.67054745 182.62564033 104.99609375 180.41015625 C104.66593262 179.3236377 104.33577148 178.23711914 103.99560547 177.11767578 C97.64001798 157.2155541 87.38441356 138.7394512 75 122 C74.26394531 120.94425781 73.52789063 119.88851563 72.76953125 118.80078125 C69.07856785 115.06817087 65.30878262 113.65273428 60.4375 111.875 C59.10755005 111.36525635 59.10755005 111.36525635 57.75073242 110.84521484 C51.90336515 108.62642151 46.01184322 106.58256566 40.01953125 104.7890625 C38 104 38 104 37 102 C38.23234375 101.70867187 39.4646875 101.41734375 40.734375 101.1171875 C56.15647545 97.34983772 71.33905161 92.51477933 80.875 78.9375 C88.21885882 66.43586127 88.01618205 52.6904712 84.63891602 38.97436523 C82.69884591 31.52099375 80.77468965 25.09802274 74.875 19.875 C74.17117187 19.23304687 73.46734375 18.59109375 72.7421875 17.9296875 C65.93093675 13.13658512 59.28395065 11.35202842 51.0625 10.75 C49.84723633 10.63398437 49.84723633 10.63398437 48.60742188 10.515625 C39.69868704 9.7580105 31.01201484 10 22 10 C22 79.96 22 149.92 22 222 C14.74 222 7.48 222 0 222 C0 148.74 0 75.48 0 0 Z " fill="#5A530F" transform="translate(2710,1593)"/>
<path d="M0 0 C23.53218865 12.05369117 40.31248224 32.27883915 48.44238281 57.43579102 C53.93453131 75.35122739 56.01705281 93.28764084 56.10009766 111.98901367 C56.10722778 113.30252808 56.10722778 113.30252808 56.11450195 114.64257812 C56.0896456 124.37430024 55.15319339 131.99155573 50.97509766 140.86401367 C50.57427979 141.7313916 50.17346191 142.59876953 49.76049805 143.49243164 C44.1531923 155.39030007 37.58188197 166.24683148 28.97509766 176.23901367 C28.09144531 177.33922852 28.09144531 177.33922852 27.18994141 178.46166992 C8.23127299 201.28452553 -20.28285202 211.92832897 -49.06323242 214.72338867 C-80.08945221 217.37177432 -107.70423356 206.96263711 -131.57177734 187.12182617 C-155.06167362 166.62287942 -168.65988529 138.73596972 -170.88720703 107.60375977 C-171.83468246 91.33204524 -171.43663976 76.70882083 -166.02490234 61.23901367 C-165.68797363 60.24683838 -165.68797363 60.24683838 -165.34423828 59.23461914 C-159.85696234 43.39180715 -151.59526716 29.35297931 -140.02490234 17.23901367 C-139.12255859 16.29413086 -138.22021484 15.34924805 -137.29052734 14.37573242 C-100.84631342 -21.21274719 -44.16142541 -21.38859212 0 0 Z M-112.02490234 12.23901367 C-112.82412109 12.90416992 -113.62333984 13.56932617 -114.44677734 14.25463867 C-127.17461201 25.24326612 -137.39041075 37.83015492 -141.21240234 54.42651367 C-141.58292725 55.98583618 -141.58292725 55.98583618 -141.9609375 57.57666016 C-147.87001751 83.39914476 -148.47680978 108.5597422 -144.41748047 134.70874023 C-144.08883467 136.82695232 -143.79484477 138.95050259 -143.50927734 141.07495117 C-141.17913812 154.55647097 -131.67654889 166.06284791 -123.02490234 176.23901367 C-122.58404297 176.82424805 -122.14318359 177.40948242 -121.68896484 178.01245117 C-109.4554958 193.80474757 -89.66908763 202.98280031 -70.34130859 205.77026367 C-54.16442156 207.27668278 -39.47512459 204.12105521 -24.21630859 198.96655273 C-22.36522383 198.35199919 -20.49355327 197.79998011 -18.61865234 197.26245117 C-0.1944648 191.17058271 13.43373439 169.00808368 21.97119141 152.58203125 C29.30862917 137.83156398 33.23333691 121.67365032 33.97509766 105.23901367 C34.01634766 104.47975586 34.05759766 103.72049805 34.10009766 102.93823242 C34.90238063 73.90561727 25.72674271 44.67837099 6.35009766 22.80151367 C4.89932505 21.27346623 3.44165801 19.75191515 1.97509766 18.23901367 C1.15138672 17.30508789 1.15138672 17.30508789 0.31103516 16.35229492 C-14.59979891 0.00913936 -37.85718723 -5.31938545 -59.02490234 -6.76098633 C-80.77799949 -7.18337656 -95.32500753 -1.81773232 -112.02490234 12.23901367 Z " fill="#5B5410" transform="translate(2587.02490234375,1602.760986328125)"/>
<path d="M0 0 C2.484375 2.4765625 2.484375 2.4765625 4.75 5.625 C5.16846191 6.19766602 5.58692383 6.77033203 6.01806641 7.36035156 C7.36865412 9.22485316 8.68754493 11.10849244 10 13 C10.43860352 13.6280957 10.87720703 14.25619141 11.32910156 14.90332031 C13.62518508 18.20047608 15.89725404 21.51328166 18.15625 24.8359375 C21.0215235 29.04480265 23.93806143 33.21589897 26.875 37.375 C27.37185303 38.07866699 27.86870605 38.78233398 28.38061523 39.50732422 C32.55547814 45.40290312 36.79720079 51.24903707 41.04956055 57.08886719 C43.98120088 61.13536909 46.84476111 65.21768525 49.640625 69.359375 C50.23431885 70.23867676 50.8280127 71.11797852 51.43969727 72.02392578 C52.58716668 73.73158594 53.72849591 75.44339131 54.86303711 77.15966797 C55.37616455 77.92424316 55.88929199 78.68881836 56.41796875 79.4765625 C57.09508911 80.4987085 57.09508911 80.4987085 57.78588867 81.54150391 C58.18654541 82.02280762 58.58720215 82.50411133 59 83 C59.66 83 60.32 83 61 83 C62.96197272 80.62148538 64.80631056 78.23498349 66.625 75.75 C67.16624512 75.0185376 67.70749023 74.2870752 68.26513672 73.53344727 C72.71200127 67.48367393 76.89929999 61.28882057 81 55 C81.76112681 53.86331281 82.52423851 52.72795283 83.2890625 51.59375 C92.26420054 38.27446474 100.89130923 24.7249049 109.05883789 10.89453125 C115.3444403 0.27735218 115.3444403 0.27735218 119.25 -1.375 C126.0952375 -2.51587292 131.41775413 -2.19408196 138 0 C136.67626016 2.79275877 135.19609726 5.26493873 133.3828125 7.765625 C132.86468994 8.48226318 132.34656738 9.19890137 131.81274414 9.93725586 C131.25578857 10.70046143 130.69883301 11.46366699 130.125 12.25 C129.54419678 13.04994385 128.96339355 13.8498877 128.36499023 14.67407227 C124.15754717 20.45323833 119.89002807 26.1854077 115.58789062 31.89428711 C109.92555314 39.41054181 104.35631622 46.99486316 98.78222656 54.57666016 C96.43771197 57.76455767 94.0902527 60.95027938 91.74243164 64.13574219 C90.58768419 65.7025874 89.43322107 67.26964221 88.27905273 68.83691406 C85.20514635 73.01072225 82.12688672 77.1812386 79.04296875 81.34765625 C78.07520508 82.65669922 78.07520508 82.65669922 77.08789062 83.9921875 C75.84434799 85.67410128 74.59960347 87.35512727 73.35351562 89.03515625 C72.79728516 89.78796875 72.24105469 90.54078125 71.66796875 91.31640625 C71.17578857 91.98099854 70.6836084 92.64559082 70.17651367 93.33032227 C68.93757917 95.00015955 68.93757917 95.00015955 68 97 C68.73222974 98.68723617 68.73222974 98.68723617 69.98046875 100.53125 C70.47063477 101.30041748 70.96080078 102.06958496 71.46582031 102.86206055 C72.03397461 103.73258057 72.60212891 104.60310059 73.1875 105.5 C73.79045898 106.43561768 74.39341797 107.37123535 75.01464844 108.33520508 C84.81802296 123.45830373 94.88795984 138.41002832 104.91009521 153.38848877 C108.42252129 158.63834324 111.92892859 163.89210353 115.42578125 169.15234375 C124.73403046 183.1563456 124.73403046 183.1563456 134.1875 197.0625 C134.61716064 197.68809814 135.04682129 198.31369629 135.48950195 198.95825195 C137.37577893 201.69239521 139.29143121 204.39800311 141.25390625 207.078125 C141.91261719 207.98046875 142.57132813 208.8828125 143.25 209.8125 C143.81203125 210.56144531 144.3740625 211.31039063 144.953125 212.08203125 C145.29859375 212.71496094 145.6440625 213.34789062 146 214 C145 217 145 217 142.0625 218.6875 C136.15790733 220.96222013 129.77155341 221.0507552 123.875 218.6875 C119.00902297 215.8627181 116.25977029 211.45208947 113.21484375 206.8359375 C110.7914082 203.17351078 108.29257712 199.56169301 105.8125 195.9375 C105.2551416 195.11999268 104.6977832 194.30248535 104.12353516 193.46020508 C87.27542015 168.78957909 69.0303169 145.02433402 50 122 C43.05609394 133.04124194 36.5354728 144.32473995 29.97998047 155.59912109 C24.76410087 164.55808568 19.51801981 173.49934672 14.26367188 182.43579102 C12.03953614 186.22124391 9.82767133 190.01359041 7.62384033 193.81089783 C6.1662058 196.31945675 4.70189181 198.82407515 3.23626709 201.32797241 C2.54355947 202.51490392 1.8537611 203.70353865 1.16705322 204.89395142 C0.21670863 206.54053041 -0.74491934 208.18058145 -1.70703125 209.8203125 C-2.2481958 210.75117676 -2.78936035 211.68204102 -3.34692383 212.64111328 C-6.09451064 216.56183161 -9.16570848 218.45903198 -13.80859375 219.65234375 C-20.57483338 220.72577571 -27.66512927 220.8154981 -34 218 C-32.62619542 215.06333892 -31.03858855 212.55780042 -29.0859375 209.97265625 C-28.49796387 209.19140381 -27.90999023 208.41015137 -27.30419922 207.60522461 C-26.66756348 206.76612549 -26.03092773 205.92702637 -25.375 205.0625 C-24.71129395 204.18150635 -24.04758789 203.3005127 -23.36376953 202.39282227 C-19.90115137 197.80373688 -16.41546378 193.2332298 -12.90625 188.6796875 C-5.8669296 179.53410035 0.96319084 170.32382943 7.41186523 160.75073242 C10.72875384 155.8305171 14.14518984 151.01021397 17.6875 146.25 C22.16179103 140.22369933 26.38600925 134.06737792 30.4921875 127.78515625 C32.23436041 125.12608677 34.03656178 122.52143213 35.8828125 119.93359375 C36.35195068 119.26457031 36.82108887 118.59554688 37.30444336 117.90625 C38.20309428 116.62704065 39.11475298 115.35683662 40.04125977 114.09765625 C41.92079811 111.39057962 43.02171024 109.60524058 42.90185547 106.26391602 C41.74088045 102.06221729 39.74472614 99.01656464 37.30859375 95.4375 C36.82216904 94.70499023 36.33574432 93.97248047 35.83457947 93.21777344 C34.78131421 91.63367078 33.72355378 90.05254967 32.6618042 88.47412109 C30.98401708 85.97620436 29.32218466 83.46836015 27.66455078 80.95703125 C24.74268619 76.53310084 21.80742178 72.1182818 18.86645508 67.70703125 C17.06534813 65.00427393 15.26796582 62.29906468 13.47070312 59.59375 C6.15455001 48.60170654 -1.31592253 37.73796023 -9 27 C-9.68956787 26.03384766 -10.37913574 25.06769531 -11.08959961 24.07226562 C-12.72055346 21.79388131 -14.35824222 19.52060588 -16 17.25 C-16.53238281 16.51007813 -17.06476563 15.77015625 -17.61328125 15.0078125 C-19.80413227 11.97432647 -21.9983716 9.00198193 -24.375 6.109375 C-26 4 -26 4 -26 2 C-17.43160326 -2.58309593 -9.17924245 -3.47514367 0 0 Z " fill="#5C5510" transform="translate(1919,1595)"/>
<path d="M0 0 C1.64158983 0.02377396 3.28319193 0.04671401 4.92480469 0.06884766 C18.97154978 0.34329929 32.71465949 1.93925653 46.5 4.6875 C47.37519287 4.85540039 48.25038574 5.02330078 49.15209961 5.19628906 C49.96171143 5.3609668 50.77132324 5.52564453 51.60546875 5.6953125 C52.31082764 5.83855957 53.01618652 5.98180664 53.74291992 6.12939453 C55.5 6.6875 55.5 6.6875 57.5625 8.6875 C59.28820957 14.20977061 59.5259042 19.55019958 57 24.8125 C56.505 25.43125 56.01 26.05 55.5 26.6875 C51.7700449 25.33539127 48.7632312 23.61847145 45.5 21.375 C39.47256709 17.47585203 33.30167157 14.92846258 26.5 12.6875 C25.77683594 12.44 25.05367187 12.1925 24.30859375 11.9375 C13.10864075 8.78134886 -3.63180765 8.93963323 -14.140625 13.9453125 C-19.96791435 17.27768455 -26.50529584 21.15143353 -29.875 27.125 C-31.93677496 35.57827732 -31.73613965 44.05996915 -31.5 52.6875 C-31.52578125 53.68652344 -31.5515625 54.68554688 -31.578125 55.71484375 C-31.2624859 61.68568339 -28.92266534 64.67331857 -24.65527344 68.56762695 C-21.35596636 71.3884117 -17.94431005 74.04725937 -14.5 76.6875 C-13.41498557 77.54866741 -12.33151899 78.41179058 -11.25 79.27734375 C-8.04007388 81.80352285 -4.78628199 84.26222565 -1.5 86.6875 C-0.47302002 87.44546875 -0.47302002 87.44546875 0.57470703 88.21875 C11.98039028 96.60357745 23.47812079 104.96142482 35.671875 112.17578125 C53.42037806 122.72223124 64.81158302 137.80343528 70.5 157.6875 C73.95460174 172.17025344 69.96699459 186.3088498 62.62451172 198.921875 C59.17922741 204.3314052 54.88549438 209.03389679 50.5 213.6875 C49.83097656 214.41066406 49.16195313 215.13382813 48.47265625 215.87890625 C34.82914639 229.23396981 10.38386136 230.29267477 -7.55004883 230.16210938 C-17.5603639 229.90592729 -26.8961395 228.46971479 -36.5 225.6875 C-37.17933594 225.50026367 -37.85867188 225.31302734 -38.55859375 225.12011719 C-46.19178306 222.96630792 -52.47656665 220.85273788 -56.5 213.6875 C-59.02488648 208.63772703 -58.56930865 204.08804874 -57.5 198.6875 C-57.005 197.6975 -57.005 197.6975 -56.5 196.6875 C-52.94407342 198.26143471 -50.21011738 200.44603638 -47.1875 202.875 C-28.94723094 216.91492703 -7.52023802 220.77166205 15.046875 218.42236328 C23.79224684 217.23452172 30.80353923 215.15127219 36.7109375 208.171875 C45.57136194 195.86787949 50.37322952 183.99226173 48.5 168.6875 C47.56571667 163.90031094 46.05353795 159.30444008 44.5 154.6875 C44.37496094 153.93984375 44.24992187 153.1921875 44.12109375 152.421875 C43.65162217 150.51379203 43.65162217 150.51379203 41.69921875 149.67578125 C40.97347656 149.34964844 40.24773437 149.02351563 39.5 148.6875 C38.07014971 147.45506493 36.67835409 146.17800063 35.3125 144.875 C17.02887876 128.14401424 -4.349592 113.30087417 -25.7265625 100.80078125 C-32.57300442 96.75515648 -37.00991777 92.24460247 -41.5 85.6875 C-42.04398438 84.90503906 -42.58796875 84.12257813 -43.1484375 83.31640625 C-51.22191955 70.83734389 -55.67354737 55.7532551 -53.00390625 40.93359375 C-49.12946282 26.94619627 -39.67105651 16.56455474 -28.5 7.6875 C-27.77603027 7.08341309 -27.05206055 6.47932617 -26.30615234 5.85693359 C-17.8901894 -0.38974378 -9.9976944 -0.29048559 0 0 Z " fill="#5B540F" transform="translate(1322.5,1588.3125)"/>
<path d="M0 0 C1.82763359 0.01894016 3.6552704 0.03757237 5.48291016 0.0559082 C28.49822277 0.37353172 51.00203167 2.95962128 73.61328125 7.31640625 C74.54825439 7.49631104 75.48322754 7.67621582 76.4465332 7.86157227 C77.49393677 8.17759399 77.49393677 8.17759399 78.5625 8.5 C80.4072087 12.18941739 79.26992736 16.54566246 78.5625 20.5 C77 24.125 77 24.125 75.5625 26.5 C71.2369557 25.87860651 67.94044352 24.29077524 64.0625 22.3125 C57.74151798 19.22120507 51.32880848 17.0376557 44.5625 15.125 C43.67884766 14.87468018 42.79519531 14.62436035 41.88476562 14.36645508 C16.75537146 7.50452768 -8.49112774 11.60254972 -32.4375 20.5 C-33.41976562 20.85578125 -34.40203125 21.2115625 -35.4140625 21.578125 C-53.1492277 29.12260797 -66.00719601 53.731911 -73.4375 70.5 C-85.57603516 100.68778859 -83.93573467 132.30705538 -71.48535156 162.08984375 C-60.41943287 187.54248804 -41.55678182 204.79132595 -15.6875 215.03125 C9.36191705 224.00729111 33.53785336 220.83961599 57.140625 209.73046875 C62.78073183 206.96117134 68.11828079 203.73662257 73.42578125 200.3828125 C76.11091222 198.77106514 78.62211451 197.54816743 81.5625 196.5 C83.06529132 201.87063128 83.75665183 207.55178284 81.62109375 212.82421875 C76.54303654 221.43622173 68.6621567 222.86330365 59.52734375 225.28955078 C23.5503004 234.55618936 -14.81628268 233.71170506 -47.4375 214.5 C-55.38879881 209.23962253 -62.51449184 203.03330241 -69.4375 196.5 C-70.17484375 195.82710937 -70.9121875 195.15421875 -71.671875 194.4609375 C-82.23131878 184.46316626 -90.13474567 171.98019941 -97.4375 159.5 C-98.01628906 158.56542969 -98.59507812 157.63085938 -99.19140625 156.66796875 C-103.12585858 150.04102373 -104.69371178 144.14073352 -105.4375 136.5 C-105.54707031 135.47003906 -105.65664062 134.44007813 -105.76953125 133.37890625 C-108.72153974 101.22169376 -103.67339156 67.93576013 -82.8828125 42.21484375 C-71.24212145 28.40332113 -57.60561711 18.59788021 -41.75 10.125 C-41.01499268 9.7321582 -40.27998535 9.33931641 -39.52270508 8.93457031 C-37.18561901 7.72969087 -34.8220667 6.60785449 -32.4375 5.5 C-31.51622314 5.04399414 -30.59494629 4.58798828 -29.64575195 4.11816406 C-19.78928674 -0.29169844 -10.57916078 -0.19945738 0 0 Z " fill="#5B540F" transform="translate(2290.4375,1588.5)"/>
<path d="M0 0 C0.71945801 0.1640332 1.43891602 0.32806641 2.18017578 0.49707031 C9.93473691 2.34581492 9.93473691 2.34581492 13 4 C15.34389986 8.2483185 15.49637675 12.26532948 15 17 C14 20 14 20 13 22 C9.2770664 20.65284221 6.30686593 18.94205938 3.0625 16.6875 C-13.58889391 5.91570879 -34.20130093 3.55683644 -53.46875 7.15625 C-56.9472218 8.3157406 -59.17591433 10.13813978 -61.6953125 12.7578125 C-63 14 -63 14 -65 14 C-65.268125 14.57105469 -65.53625 15.14210938 -65.8125 15.73046875 C-67.04345378 18.08304818 -68.46302967 20.14921426 -70 22.3125 C-76.08610705 31.48619306 -76.25797737 41.27517414 -74.265625 51.92578125 C-72.04758813 60.64199007 -68.2417893 65.66004992 -60.76367188 70.75244141 C-58.77164821 72.16152792 -56.88228542 73.66577511 -54.984375 75.19921875 C-41.54282424 86.03600554 -27.34468419 95.39575116 -12.37060547 103.97509766 C5.56681086 114.28476423 20.44315126 126.65725435 26.96875 147.0234375 C30.57778678 160.55732543 30.82184688 177.60836299 24.81640625 190.55078125 C23.35912404 192.87500189 21.77539981 194.90863921 20 197 C19.2884375 197.88171875 18.576875 198.7634375 17.84375 199.671875 C7.15843756 212.23058637 -6.19259385 220.1979068 -22.125 224.3125 C-22.75051758 224.48434814 -23.37603516 224.65619629 -24.02050781 224.83325195 C-38.13146649 228.15296766 -52.46689694 225.60957984 -66.375 222.6875 C-67.93852067 222.37424316 -69.50232334 222.0623905 -71.06640625 221.75195312 C-94.12632986 217.12329018 -94.12632986 217.12329018 -97.1875 213.1875 C-99.04621072 206.78527418 -99.09717794 198.29153381 -97 192 C-93.85828082 193.3604095 -91.3824264 195.218733 -88.73901367 197.37646484 C-75.35062552 208.25161903 -58.74239275 216.1192604 -41.1171875 215.37890625 C-25.10597662 213.43268137 -8.85313432 207.22598436 3 196 C4.96662899 193.11937634 6.06864467 190.34830811 7 187 C7.22042969 186.24460937 7.44085937 185.48921875 7.66796875 184.7109375 C10.51527348 173.58925055 8.81373918 161.95714663 3.2734375 151.85546875 C-1.281624 145.21849264 -7.93918564 140.26485334 -14.16015625 135.28125 C-15.99903843 133.80407367 -17.82078823 132.3052046 -19.62109375 130.78125 C-28.2670486 123.48421827 -37.4797816 116.84905275 -47.515625 111.58984375 C-65.08346582 102.29803443 -86.70593295 84.93230272 -93.23828125 65.2734375 C-96.82435182 49.86252911 -96.00195211 33.30403477 -87.70703125 19.51953125 C-80.60734018 9.04058219 -68.3442296 -1.61024399 -55.6328125 -4.546875 C-36.92460174 -6.06218179 -18.24590066 -4.17113346 0 0 Z " fill="#5B540F" transform="translate(1621,1593)"/>
<path d="M0 0 C32.01 0 64.02 0 97 0 C97 4.62 97 9.24 97 14 C72.03334082 14.1873351 46.30698957 12.07674739 22 6 C22 37.02 22 68.04 22 100 C30.559375 99.525625 39.11875 99.05125 47.9375 98.5625 C50.60191162 98.41498291 53.26632324 98.26746582 56.01147461 98.11547852 C68.34232769 97.43176109 80.67210694 96.73524782 93 96 C93 101.94 93 107.88 93 114 C90.47214844 113.79503906 87.94429687 113.59007812 85.33984375 113.37890625 C82.76437299 113.17527863 80.18871858 112.97413637 77.61303711 112.77319336 C75.88464317 112.63708569 74.1564354 112.49858297 72.4284668 112.35717773 C55.60585249 110.98380191 38.90951096 110.5454681 22 110 C22.33 143.66 22.66 177.32 23 212 C59.63 208.04 59.63 208.04 97 204 C97 209.94 97 215.88 97 222 C64.99 222 32.98 222 0 222 C0 148.74 0 75.48 0 0 Z " fill="#5A540F" transform="translate(1122,1593)"/>
<path d="M0 0 C30.69 0 61.38 0 93 0 C93 4.62 93 9.24 93 14 C79.18685532 13.75355674 65.56865668 12.91128446 51.875 11.125 C50.62130615 10.96354492 49.3676123 10.80208984 48.07592773 10.63574219 C39.2980635 9.44540578 30.66395604 7.82665457 22 6 C21.68644677 9.8749155 21.37436206 13.74994805 21.0625 17.625 C20.97548828 18.70007812 20.88847656 19.77515625 20.79882812 20.8828125 C20.52786041 24.25485512 20.26350477 27.62736616 20 31 C19.87135559 32.61322144 19.87135559 32.61322144 19.7401123 34.2590332 C19.12668151 42.31005419 18.80289816 50.32606865 18.68359375 58.3984375 C18.66281265 59.59941071 18.64203156 60.80038391 18.62062073 62.03775024 C18.55603331 65.816784 18.49666954 69.59587794 18.4375 73.375 C18.39422807 75.96094334 18.35061127 78.54688094 18.30664062 81.1328125 C18.2004473 87.4218142 18.0985248 93.71087373 18 100 C41.69569391 99.00339972 65.36316505 97.99091621 89 96 C89 101.94 89 107.88 89 114 C87.70191406 113.91435791 86.40382813 113.82871582 85.06640625 113.74047852 C80.12372166 113.41516082 75.18079316 113.09367688 70.23779297 112.77319336 C68.12216766 112.63552298 66.00660456 112.49689253 63.89111328 112.35717773 C60.80257903 112.1533845 57.71381669 111.95336818 54.625 111.75390625 C53.72080322 111.6934462 52.81660645 111.63298615 51.88500977 111.57069397 C40.59413056 110.84951654 29.31310046 110.47137919 18 110 C18.33 143.66 18.66 177.32 19 212 C42.6503349 209.3677834 42.6503349 209.3677834 66.30053711 206.734375 C70.86633301 206.2265625 70.86633301 206.2265625 73.00123596 205.98925781 C74.49788113 205.82279286 75.99450208 205.65611 77.49110413 205.48925781 C79.75304644 205.23712214 82.01506376 204.98566988 84.27709961 204.734375 C86.19237709 204.52119629 86.19237709 204.52119629 88.14634705 204.30371094 C91 204 91 204 92 204 C92 208.29 92 212.58 92 217 C61.64 217 31.28 217 0 217 C-0.29107747 167.53026455 -0.29107747 167.53026455 -0.40429688 146.73632812 C-0.4823993 132.40142828 -0.56161396 118.06654094 -0.64819336 103.73168945 C-0.71125462 93.28984526 -0.77043519 82.84798732 -0.82505554 72.40609545 C-0.85407958 66.88290767 -0.88497908 61.35974544 -0.92053413 55.83659554 C-0.95401911 50.62545464 -0.98226886 45.41431021 -1.00670624 40.20311928 C-1.01650447 38.30259387 -1.02812608 36.40207673 -1.04183006 34.50157547 C-1.06044284 31.88008272 -1.07210668 29.25863756 -1.08229065 26.63710022 C-1.08909444 25.90842887 -1.09589823 25.17975751 -1.10290819 24.42900521 C-1.11964519 16.23598673 -0.4842323 8.23194916 0 0 Z " fill="#57500B" transform="translate(3172,1593)"/>
<path d="M0 0 C5.61 0 11.22 0 17 0 C17.69958131 4.89706914 18.11826358 8.99943174 18.08901978 13.85684204 C18.08649621 14.51050322 18.08397265 15.1641644 18.08137262 15.83763349 C18.07171713 18.00981386 18.0546717 20.18187017 18.03759766 22.35400391 C18.02908024 23.92059604 18.02101014 25.48719066 18.01335144 27.05378723 C17.99119183 31.30576039 17.96248406 35.55766632 17.93239641 39.80958986 C17.90153251 44.29925875 17.87601278 48.78895857 17.84970093 53.27865601 C17.80449374 60.84953422 17.75507729 68.42037618 17.703125 75.99121094 C17.64380499 84.64236858 17.59076581 93.29354616 17.54135668 101.94476569 C17.49322889 110.34722842 17.44058242 118.74965746 17.38599777 127.15208054 C17.36312177 130.68291941 17.34166455 134.21376214 17.32149124 137.74461746 C17.19081009 160.26074988 16.80384337 182.75594252 16.11413002 205.26210022 C15.98567587 209.46913307 15.86534226 213.6763644 15.7469244 217.88368988 C15.65504985 220.8487503 15.53276642 223.811927 15.3996582 226.77539062 C15.33993427 228.21411832 15.29133645 229.65333866 15.25219727 231.09277344 C14.72474963 249.94953963 7.80869135 265.39931576 -5.5 278.9375 C-6.03375244 279.48164551 -6.56750488 280.02579102 -7.11743164 280.58642578 C-10.77820609 284.16627139 -14.46432847 286.62335394 -19 289 C-21 286 -21 286 -20.859375 283.71875 C-19.77698489 280.2944613 -18.12034078 277.56567135 -16.25 274.5 C-3.87906891 253.51226618 -3.02165837 231.18984011 -2.5 207.5 C-2.4801001 206.62802979 -2.4602002 205.75605957 -2.43969727 204.85766602 C-2.28175951 197.90533216 -2.13931579 190.95272846 -2 184 C-1.979375 182.99388672 -1.95875 181.98777344 -1.9375 180.95117188 C-0.70595142 120.64377743 -0.45182945 60.31713501 0 0 Z " fill="#554F0A" transform="translate(527,1593)"/>
<path d="M0 0 C2.63277516 2.3297764 3.88865448 4.56336398 5.27734375 7.77734375 C5.70208984 8.75106934 6.12683594 9.72479492 6.56445312 10.72802734 C7.01755859 11.78715332 7.47066406 12.8462793 7.9375 13.9375 C8.41767578 15.04561035 8.89785156 16.1537207 9.39257812 17.29541016 C10.41465619 19.65789138 11.43327476 22.02187178 12.44873047 24.38720703 C13.95962212 27.90596288 15.48067457 31.42016513 17.00390625 34.93359375 C22.1847274 46.91418993 27.26979615 58.93470849 32.25 71 C32.72824219 72.14581543 33.20648437 73.29163086 33.69921875 74.47216797 C34.13363281 75.53322754 34.56804688 76.59428711 35.015625 77.6875 C35.40008789 78.61949219 35.78455078 79.55148437 36.18066406 80.51171875 C37 83 37 83 37 87 C19.38137719 91.82261573 -7.49871951 96.83376016 -25 91 C-23.34344308 68.24769786 -16.86275652 16.86275652 0 0 Z " fill="#A29C56" transform="translate(681,1611)"/>
<path d="M0 0 C4.40276974 3.94299711 6.58294909 9.44499282 9.25 14.625 C9.5531311 15.21157379 9.85626221 15.79814758 10.1685791 16.40249634 C42 78.15433424 42 78.15433424 42 89 C31.81058123 91.33982207 21.72788201 91.30675031 11.32739258 91.26074219 C8.44005395 91.25000949 5.55333555 91.2606932 2.66601562 91.2734375 C-15.19188813 91.28498219 -15.19188813 91.28498219 -24 89 C-23.41882788 84.1525312 -22.42361787 79.76477956 -20.890625 75.1328125 C-20.68361465 74.50112152 -20.47660431 73.86943054 -20.26332092 73.21859741 C-19.82354856 71.87778363 -19.38136452 70.53775873 -18.93692017 69.19848633 C-17.77520903 65.69183115 -16.63781546 62.17726516 -15.49609375 58.6640625 C-15.05461155 57.30889099 -14.61304586 55.95374667 -14.17138672 54.59863281 C-9.75326257 41.0256545 -6.38961683 27.34758694 -3.3215332 13.41992188 C-3.1751088 12.75596405 -3.02868439 12.09200623 -2.87782288 11.40792847 C-2.47540971 9.57790498 -2.07599564 7.74722275 -1.67675781 5.91650391 C-1 3 -1 3 0 0 Z " fill="#A49D58" transform="translate(1760,1611)"/>
<path d="M0 0 C3.4908913 2.50138686 6.75828388 5.1858224 10 8 C10.78246094 8.6496875 11.56492187 9.299375 12.37109375 9.96875 C17.67474272 14.47640443 21.9365159 19.3555462 26 25 C24 26 24 26 21.453125 25.1796875 C19.86757812 24.53386719 19.86757812 24.53386719 18.25 23.875 C17.06792969 23.40707031 15.88585938 22.93914062 14.66796875 22.45703125 C13.45753906 21.97621094 12.24710938 21.49539063 11 21 C0.1131245 16.78615442 -10.96809656 13.69846447 -22.24560547 10.72753906 C-24.83430497 10.04376628 -27.41950707 9.34826085 -30.00390625 8.6484375 C-31.58585002 8.22363244 -33.16787951 7.79914644 -34.75 7.375 C-35.51344727 7.16786377 -36.27689453 6.96072754 -37.06347656 6.74731445 C-41.03882556 5.69186352 -44.99047839 4.79084667 -49.04296875 4.08203125 C-49.8637793 3.93008301 -50.68458984 3.77813477 -51.53027344 3.62158203 C-53.08694897 3.34087523 -54.64912047 3.08851978 -56.21582031 2.87060547 C-59.24039511 2.31505713 -61.45587968 1.70217157 -63.37841797 -0.77880859 C-65.78646712 -5.35230098 -66.42794607 -8.86464716 -66 -14 C-45.61028452 -20.49954941 -16.95670598 -10.65597429 0 0 Z " fill="#9F9959" transform="translate(2047,1391)"/>
<path d="M0 0 C0.495 3.465 0.495 3.465 1 7 C0.20734741 7.45270264 0.20734741 7.45270264 -0.60131836 7.91455078 C-3.04860503 9.31475428 -5.49304992 10.71985074 -7.9375 12.125 C-8.76830078 12.599375 -9.59910156 13.07375 -10.45507812 13.5625 C-15.44198695 16.43433855 -20.27670818 19.44640827 -25.02490234 22.69873047 C-26.87036529 23.91459172 -28.7369598 24.96448873 -30.6875 26 C-33.47688446 27.68415665 -34.98947994 28.92429367 -37.125 31.25 C-40 34 -40 34 -42.875 34.375 C-43.926875 34.189375 -43.926875 34.189375 -45 34 C-46.34738164 27.75304878 -46.34738164 27.75304878 -44.8359375 24.4765625 C-42.77299174 21.69378034 -40.89924539 20.33954723 -37.9375 18.5625 C-36.46796875 17.66917969 -36.46796875 17.66917969 -34.96875 16.7578125 C-33.9890625 16.17773438 -33.009375 15.59765625 -32 15 C-30.71609375 14.22269531 -30.71609375 14.22269531 -29.40625 13.4296875 C-27.76787849 12.43940599 -26.12596231 11.45496407 -24.48046875 10.4765625 C-22.7700349 9.45838298 -21.06457545 8.4318162 -19.36328125 7.3984375 C-6.41698804 -0.45835629 -6.41698804 -0.45835629 0 0 Z " fill="#4C4B44" transform="translate(2135,1356)"/>
<path d="M0 0 C5.625 -0.25 5.625 -0.25 9 2 C8.34 3.65 7.68 5.3 7 7 C6.34 7 5.68 7 5 7 C4.72027344 7.56589844 4.44054688 8.13179687 4.15234375 8.71484375 C2.99074163 11.01835981 1.7938222 13.29548622 0.5625 15.5625 C0.15128906 16.32691406 -0.25992188 17.09132813 -0.68359375 17.87890625 C-1.97056453 19.95257134 -3.09755254 21.47417919 -5 23 C-8.1875 23.1875 -8.1875 23.1875 -11 23 C-11.66 21.68 -12.32 20.36 -13 19 C-12.56429687 18.55011719 -12.12859375 18.10023437 -11.6796875 17.63671875 C-6.69490141 12.25271819 -3.28280166 6.54155349 0 0 Z " fill="#555347" transform="translate(2081,1343)"/>
<path d="M0 0 C2.97752446 0.33083605 4.81374721 0.87415352 7.3125 2.5625 C9.24837267 5.35876052 9.62883363 7.44052491 9.45703125 10.83203125 C8.63602256 14.72655966 6.7329357 18.11603364 4 21 C1.828125 21.72265625 1.828125 21.72265625 0 22 C-2.49111925 18.26332113 -2.29613477 15.32129024 -2.25 11 C-2.25773437 10.27554687 -2.26546875 9.55109375 -2.2734375 8.8046875 C-2.25942063 5.00611507 -2.15441944 3.23162916 0 0 Z " fill="#514F45" transform="translate(2035,1339)"/>
<path d="M0 0 C0.33 0 0.66 0 1 0 C1 22.11 1 44.22 1 67 C-0.32 67 -1.64 67 -3 67 C-3.19604618 57.15702951 -2.67111194 47.34080502 -2.20043945 37.51269531 C-2.06316017 34.6388204 -1.93069813 31.76475265 -1.79882812 28.890625 C-1.34887975 19.24565802 -0.83758658 9.62040893 0 0 Z " fill="#908A45" transform="translate(3356,1602)"/>
<path d="M0 0 C1.53637695 1.53808594 1.53637695 1.53808594 3 4 C2.97960126 6.59981066 2.80385019 8.84510188 2.41796875 11.390625 C2.32493973 12.09523865 2.23191071 12.79985229 2.13606262 13.52581787 C1.83602128 15.76975682 1.51213691 18.00950068 1.1875 20.25 C0.97953775 21.77322234 0.77313918 23.29665905 0.56835938 24.8203125 C0.06366543 28.54960263 -0.46243253 32.27531241 -1 36 C-1.33 36 -1.66 36 -2 36 C-2.02700675 33.08327116 -2.04684237 30.16679323 -2.0625 27.25 C-2.07087891 26.425 -2.07925781 25.6 -2.08789062 24.75 C-2.09111328 23.95078125 -2.09433594 23.1515625 -2.09765625 22.328125 C-2.10289307 21.5949707 -2.10812988 20.86181641 -2.11352539 20.10644531 C-1.99706234 17.94549223 -1.55116932 16.08731804 -1 14 C-0.77882441 11.5861824 -0.59427758 9.16885403 -0.4375 6.75 C-0.35371094 5.48671875 -0.26992188 4.2234375 -0.18359375 2.921875 C-0.12300781 1.95765625 -0.06242188 0.9934375 0 0 Z " fill="#807934" transform="translate(850,1636)"/>
<path d="M0 0 C0.66 0.33 1.32 0.66 2 1 C2.02903577 4.10414702 2.0468107 7.20825909 2.0625 10.3125 C2.07087891 11.19357422 2.07925781 12.07464844 2.08789062 12.98242188 C2.09111328 13.82998047 2.09433594 14.67753906 2.09765625 15.55078125 C2.10289307 16.33106689 2.10812988 17.11135254 2.11352539 17.9152832 C2 20 2 20 1 23 C-0.65 23 -2.3 23 -4 23 C-4 22.01 -4 21.02 -4 20 C-3.01 19.67 -2.02 19.34 -1 19 C-0.67 12.73 -0.34 6.46 0 0 Z " fill="#5F5814" transform="translate(852,1786)"/>
<path d="M0 0 C0.66 0.33 1.32 0.66 2 1 C-4.93 7.93 -11.86 14.86 -19 22 C-19 17.83256273 -16.7220201 16.1175327 -14 13.25 C-13.50395264 12.71793945 -13.00790527 12.18587891 -12.49682617 11.63769531 C-8.56892151 7.476431 -4.4406485 3.61359362 0 0 Z " fill="#716A26" transform="translate(2459,1609)"/>
<path d="M0 0 C0.33 0 0.66 0 1 0 C1.50682442 3.01982884 2.00563335 6.04062817 2.5 9.0625 C2.64308594 9.91005859 2.78617188 10.75761719 2.93359375 11.63085938 C3.72200421 16.49272389 4.16037074 21.07528186 4 26 C3.67 26 3.34 26 3 26 C0.29031963 17.19353881 -0.36706108 9.19012194 0 0 Z " fill="#847D39" transform="translate(848,1752)"/>
<path d="M0 0 C0.66 0.33 1.32 0.66 2 1 C-2.29 5.29 -6.58 9.58 -11 14 C-11 10.30159372 -10.17133056 9.68584567 -7.75 7 C-7.14671875 6.319375 -6.5434375 5.63875 -5.921875 4.9375 C-4.06233388 3.06284066 -2.15205789 1.52358081 0 0 Z " fill="#726B26" transform="translate(1547,1598)"/>
<path d="M0 0 C3.125 -0.1875 3.125 -0.1875 6 0 C5.278125 0.556875 4.55625 1.11375 3.8125 1.6875 C1.02542701 3.97909334 -1.48641528 6.41459857 -4 9 C-2.94124926 5.59687262 -1.99097846 2.98646769 0 0 Z " fill="#716E4E" transform="translate(2081,1343)"/>
<path d="M0 0 C1.65 0 3.3 0 5 0 C5.33 2.31 5.66 4.62 6 7 C4.35 7.66 2.7 8.32 1 9 C1.33 8.01 1.66 7.02 2 6 C2.99 6 3.98 6 5 6 C3.63016497 2.83884224 3.0109362 2.0072908 0 0 Z " fill="#6A684C" transform="translate(2130,1356)"/>
<path d="M0 0 C0 1.65 0 3.3 0 5 C-1.65 5 -3.3 5 -5 5 C-5 4.01 -5 3.02 -5 2 C-1.125 0 -1.125 0 0 0 Z " fill="#7C7531" transform="translate(853,1804)"/>
</svg>
