<?xml version="1.0" encoding="UTF-8"?>
<!DOCTYPE svg PUBLIC "-//W3C//DTD SVG 1.1//EN" "http://www.w3.org/Graphics/SVG/1.1/DTD/svg11.dtd">
<svg xmlns="http://www.w3.org/2000/svg" version="1.1" width="760px" height="220px" viewBox="100 250 760 220" style="shape-rendering:geometricPrecision; text-rendering:geometricPrecision; image-rendering:optimizeQuality; fill-rule:evenodd; clip-rule:evenodd" xmlns:xlink="http://www.w3.org/1999/xlink">
<g><path style="opacity:1" fill="#494844" d="M 496.5,298.5 C 495.473,297.152 494.14,296.652 492.5,297C 493.336,299.82 492.669,302.32 490.5,304.5C 490.437,306.468 490.437,308.468 490.5,310.5C 488.338,307.811 486.671,308.145 485.5,311.5C 487.836,313.073 487.836,314.406 485.5,315.5C 483.82,312.839 482.487,313.006 481.5,316C 481.905,316.945 482.572,317.612 483.5,318C 482.667,318.833 481.833,319.667 481,320.5C 480.275,318.842 479.108,318.342 477.5,319C 474,322.5 470.5,326 467,329.5C 465.578,332.03 465.245,334.697 466,337.5C 469.685,339.189 472.185,338.022 473.5,334C 472.14,332.062 472.473,330.396 474.5,329C 485.607,326.722 493.607,330.555 498.5,340.5C 498.167,341.167 497.833,341.833 497.5,342.5C 494.548,343.068 491.881,344.234 489.5,346C 485.167,351 480.833,356 476.5,361C 461.876,368.009 451.709,363.843 446,348.5C 444.669,341.715 445.669,335.382 449,329.5C 454.652,322.512 461.486,317.012 469.5,313C 477.039,305.13 484.206,296.963 491,288.5C 492.325,284.572 492.658,280.572 492,276.5C 489.344,274.004 486.344,272.004 483,270.5C 482.51,269.207 482.343,267.873 482.5,266.5C 491.549,268.05 496.716,273.383 498,282.5C 499.399,283.227 500.899,283.727 502.5,284C 501.929,285.205 501.262,286.372 500.5,287.5C 498.38,286.128 497.38,286.795 497.5,289.5C 498.822,289.67 499.989,289.337 501,288.5C 501.49,289.793 501.657,291.127 501.5,292.5C 500.07,292.579 498.736,292.246 497.5,291.5C 496.004,294.175 496.671,296.175 499.5,297.5C 498.743,299.404 497.743,299.737 496.5,298.5 Z"/></g>
<g><path style="opacity:1" fill="#605e49" d="M 496.5,298.5 C 494.879,298.787 493.879,299.787 493.5,301.5C 494.811,302.258 495.311,303.258 495,304.5C 493.586,305.413 492.086,305.413 490.5,304.5C 492.669,302.32 493.336,299.82 492.5,297C 494.14,296.652 495.473,297.152 496.5,298.5 Z"/></g>
<g><path style="opacity:1" fill="#676349" d="M 488.5,321.5 C 490.896,322.828 490.896,324.494 488.5,326.5C 487.948,324.997 487.948,323.331 488.5,321.5 Z"/></g>
<g><path style="opacity:1" fill="#6a664c" d="M 499.5,322.5 C 500.239,322.369 500.906,322.536 501.5,323C 500.257,324.154 499.257,325.488 498.5,327C 497.833,327.667 497.167,327.667 496.5,327C 497.883,325.729 498.883,324.229 499.5,322.5 Z"/></g>
<g><path style="opacity:1" fill="#5c5a48" d="M 511.5,325.5 C 512.773,326.077 512.773,326.743 511.5,327.5C 507.933,328.907 504.766,330.907 502,333.5C 501.383,332.551 501.549,331.718 502.5,331C 505.596,329.128 508.596,327.295 511.5,325.5 Z"/></g>
<g><path style="opacity:1" fill="#a19b5a" d="M 475.5,330.5 C 484.689,329.599 492.022,332.766 497.5,340C 490.816,337.446 483.816,335.446 476.5,334C 475.663,332.989 475.33,331.822 475.5,330.5 Z"/></g>
<g><path style="opacity:1" fill="#67644a" d="M 474.5,338.5 C 476.121,338.787 477.121,339.787 477.5,341.5C 477.154,342.696 476.654,342.696 476,341.5C 475.781,342.938 475.281,344.271 474.5,345.5C 473.355,344.224 473.355,342.891 474.5,341.5C 473.975,340.808 473.308,340.308 472.5,340C 473.416,339.722 474.082,339.222 474.5,338.5 Z"/></g>
<g><path style="opacity:1" fill="#434443" d="M 120.5,343.5 C 223.833,343.5 327.167,343.5 430.5,343.5C 430.5,345.5 430.5,347.5 430.5,349.5C 327.167,349.5 223.833,349.5 120.5,349.5C 120.5,347.5 120.5,345.5 120.5,343.5 Z"/></g>
<g><path style="opacity:1" fill="#444444" d="M 527.5,343.5 C 631.167,343.5 734.833,343.5 838.5,343.5C 838.5,345.5 838.5,347.5 838.5,349.5C 734.833,349.5 631.167,349.5 527.5,349.5C 527.5,347.5 527.5,345.5 527.5,343.5 Z"/></g>
<g><path style="opacity:1" fill="#68654b" d="M 466.5,350.5 C 465.934,346.194 465.268,345.861 464.5,349.5C 463.609,348.739 462.942,347.739 462.5,346.5C 468.082,344.719 469.415,346.052 466.5,350.5 Z"/></g>
<g><path style="opacity:1" fill="#9a9558" d="M 466.5,350.5 C 465.508,350.672 464.842,350.338 464.5,349.5C 465.268,345.861 465.934,346.194 466.5,350.5 Z"/></g>
<g><path style="opacity:1" fill="#7d7651" d="M 120.5,343.5 C 120.5,345.5 120.5,347.5 120.5,349.5C 223.833,349.5 327.167,349.5 430.5,349.5C 327.001,350.499 223.335,350.833 119.5,350.5C 119.198,347.941 119.532,345.607 120.5,343.5 Z"/></g>
<g><path style="opacity:1" fill="#464544" d="M 120.5,356.5 C 223.833,356.5 327.167,356.5 430.5,356.5C 430.5,358.5 430.5,360.5 430.5,362.5C 327.167,362.5 223.833,362.5 120.5,362.5C 120.5,360.5 120.5,358.5 120.5,356.5 Z"/></g>
<g><path style="opacity:1" fill="#434443" d="M 838.5,357.5 C 838.5,358.833 838.5,360.167 838.5,361.5C 735.167,361.5 631.833,361.5 528.5,361.5C 528.5,360.167 528.5,358.833 528.5,357.5C 631.833,357.5 735.167,357.5 838.5,357.5 Z"/></g>
<g><path style="opacity:1" fill="#4b4b44" d="M 838.5,357.5 C 735.167,357.5 631.833,357.5 528.5,357.5C 528.5,358.833 528.5,360.167 528.5,361.5C 631.833,361.5 735.167,361.5 838.5,361.5C 735.001,362.499 631.335,362.833 527.5,362.5C 527.5,360.5 527.5,358.5 527.5,356.5C 631.335,356.167 735.001,356.501 838.5,357.5 Z"/></g>
<g><path style="opacity:1" fill="#564f0a" d="M 249.5,382.5 C 249.5,399.833 249.5,417.167 249.5,434.5C 247.833,434.5 246.167,434.5 244.5,434.5C 244.667,418.83 244.5,403.163 244,387.5C 237.654,398.862 231.321,410.195 225,421.5C 223.739,421.241 222.739,420.574 222,419.5C 216.391,410.595 210.558,401.928 204.5,393.5C 204.217,392.711 203.717,392.044 203,391.5C 202.178,399.012 202.345,406.345 203.5,413.5C 203.5,415.833 203.5,418.167 203.5,420.5C 203.5,425.167 203.5,429.833 203.5,434.5C 202.167,434.5 200.833,434.5 199.5,434.5C 200.027,416.838 200.36,399.171 200.5,381.5C 202.91,381.921 204.743,383.254 206,385.5C 212.159,395.811 218.825,405.811 226,415.5C 232,404.833 238,394.167 244,383.5C 245.699,382.594 247.533,382.261 249.5,382.5 Z"/></g>
<g><path style="opacity:1" fill="#7c7531" d="M 249.5,382.5 C 250.497,399.992 250.83,417.659 250.5,435.5C 248.265,435.795 246.265,435.461 244.5,434.5C 246.167,434.5 247.833,434.5 249.5,434.5C 249.5,417.167 249.5,399.833 249.5,382.5 Z"/></g>

<g><path style="opacity:1" fill="#58510c" d="M 699.5,381.5 C 701.75,383.244 703.917,385.244 706,387.5C 716.289,400.791 726.955,413.791 738,426.5C 737.92,411.83 737.42,397.163 736.5,382.5C 738.167,382.5 739.833,382.5 741.5,382.5C 741.291,400.516 740.624,418.516 739.5,436.5C 727,421.5 714.5,406.5 702,391.5C 702.038,406.159 702.205,420.826 702.5,435.5C 700.833,435.5 699.167,435.5 697.5,435.5C 698.034,417.493 698.7,399.493 699.5,381.5 Z"/></g>
<g><path style="opacity:1" fill="#524c07" d="M 130.5,382.5 C 130.771,402.19 130.438,421.856 129.5,441.5C 128.227,445.697 125.727,449.03 122,451.5C 121.833,451.167 121.667,450.833 121.5,450.5C 124.495,446.348 125.995,441.681 126,436.5C 126.5,418.503 126.667,400.503 126.5,382.5C 127.833,382.5 129.167,382.5 130.5,382.5 Z"/></g>
<g><path style="opacity:1" fill="#76702b" d="M 130.5,382.5 C 131.662,400.662 131.829,418.995 131,437.5C 130.79,439.058 130.29,440.391 129.5,441.5C 130.438,421.856 130.771,402.19 130.5,382.5 Z"/></g>
<g><path style="opacity:1" fill="#58510d" d="M 162.5,382.5 C 165.547,381.855 167.713,382.855 169,385.5C 175.738,401.638 181.904,417.971 187.5,434.5C 185.647,435.76 183.814,435.76 182,434.5C 179.738,426.64 176.905,418.973 173.5,411.5C 167.833,410.167 162.167,410.167 156.5,411.5C 153.554,419.06 150.888,426.727 148.5,434.5C 146.579,435.641 144.579,435.808 142.5,435C 150.06,417.817 156.727,400.317 162.5,382.5 Z"/></g>
<g><path style="opacity:1" fill="#56500b" d="M 269.5,382.5 C 277.167,382.5 284.833,382.5 292.5,382.5C 292.5,383.5 292.5,384.5 292.5,385.5C 286.419,385.486 280.419,384.819 274.5,383.5C 274.5,391.167 274.5,398.833 274.5,406.5C 280.181,406.365 285.848,406.032 291.5,405.5C 291.5,406.833 291.5,408.167 291.5,409.5C 285.855,408.866 280.189,408.532 274.5,408.5C 274.5,416.833 274.5,425.167 274.5,433.5C 280.5,432.833 286.5,432.167 292.5,431.5C 292.5,432.833 292.5,434.167 292.5,435.5C 284.833,435.5 277.167,435.5 269.5,435.5C 269.5,417.833 269.5,400.167 269.5,382.5 Z"/></g>
<g><path style="opacity:1" fill="#57500b" d="M 313.5,381.5 C 319.262,381.149 324.928,381.649 330.5,383C 331.747,384.494 331.747,385.994 330.5,387.5C 325.85,383.687 320.516,382.52 314.5,384C 312.714,384.785 311.214,385.951 310,387.5C 309.333,390.5 309.333,393.5 310,396.5C 315.723,401.611 321.89,406.111 328.5,410C 336.677,418.299 336.344,426.299 327.5,434C 320.238,437.017 312.905,437.017 305.5,434C 303.637,432.582 303.137,430.749 304,428.5C 310.014,433.954 316.848,435.454 324.5,433C 329.596,428.752 330.763,423.585 328,417.5C 322.277,412.389 316.11,407.889 309.5,404C 301.966,394.899 303.3,387.399 313.5,381.5 Z"/></g>
<g><path style="opacity:1" fill="#57500b" d="M 375.5,381.5 C 381.196,381.025 386.696,381.692 392,383.5C 392.667,384.833 392.667,386.167 392,387.5C 387.139,383.716 381.639,382.549 375.5,384C 370.527,387.389 369.36,391.889 372,397.5C 377.063,401.949 382.563,405.783 388.5,409C 395.077,413.559 397.243,419.726 395,427.5C 391.336,433.335 386.002,436.335 379,436.5C 374.782,435.923 370.616,435.09 366.5,434C 365.424,432.274 365.257,430.441 366,428.5C 373.819,435.813 381.819,436.146 390,429.5C 392,425.833 392,422.167 390,418.5C 385.457,413.813 380.291,409.98 374.5,407C 371.628,404.463 369.128,401.63 367,398.5C 365.085,390.33 367.918,384.663 375.5,381.5 Z"/></g>
<g><path style="opacity:1" fill="#57500c" d="M 422.5,382.5 C 424.467,382.261 426.301,382.594 428,383.5C 434.825,400.799 441.325,418.132 447.5,435.5C 445.712,435.785 444.045,435.452 442.5,434.5C 439.097,426.62 436.097,418.62 433.5,410.5C 427.5,410.5 421.5,410.5 415.5,410.5C 412.964,418.775 410.63,427.109 408.5,435.5C 406.396,435.799 404.396,435.466 402.5,434.5C 409.753,417.339 416.419,400.005 422.5,382.5 Z"/></g>
<g><path style="opacity:1" fill="#58510c" d="M 454.5,383.5 C 456.288,382.378 458.288,382.211 460.5,383C 465.333,389.833 470.167,396.667 475,403.5C 479.873,396.924 484.373,390.09 488.5,383C 490.167,382.333 491.833,382.333 493.5,383C 487.819,390.677 482.152,398.344 476.5,406C 482.622,415.626 488.955,425.126 495.5,434.5C 493.5,435.833 491.5,435.833 489.5,434.5C 484.187,426.528 478.521,418.861 472.5,411.5C 468,419.167 463.5,426.833 459,434.5C 456.936,435.591 454.769,435.758 452.5,435C 459.201,426.431 465.535,417.598 471.5,408.5C 466.166,399.852 460.499,391.519 454.5,383.5 Z"/></g>
<g><path style="opacity:1" fill="#564f0a" d="M 545.5,381.5 C 553.269,381.195 560.935,381.862 568.5,383.5C 568.762,384.978 568.429,386.311 567.5,387.5C 558.249,382.383 548.916,382.216 539.5,387C 528.17,398.646 526.67,411.479 535,425.5C 545.419,436.301 556.752,437.301 569,428.5C 569.863,430.749 569.363,432.582 567.5,434C 548.14,440.395 533.973,434.561 525,416.5C 522.123,398.927 528.956,387.26 545.5,381.5 Z"/></g>
<g><path style="opacity:1" fill="#57500c" fill-rule="evenodd" d="M 600.5,381.5 C 624.322,380.488 635.488,391.821 634,415.5C 628.667,430.251 618.167,437.084 602.5,436C 586.798,431.45 579.298,420.95 580,404.5C 582.172,392.503 589.005,384.837 600.5,381.5 Z M 605,392 C 615,393 622,400 622,409 C 622,420 614,428 603,428 C 592,428 585,420 585,409 C 585,398 593,391 605,392 Z"/></g>
<g><path style="opacity:1" fill="#564f0b" d="M 650.5,382.5 C 655.844,382.334 661.177,382.501 666.5,383C 675.839,385.513 679.006,391.347 676,400.5C 673.659,403.835 670.493,406.002 666.5,407C 670.274,408.302 673.441,410.469 676,413.5C 678.667,419.5 681.333,425.5 684,431.5C 685.579,433.041 687.413,434.208 689.5,435C 684.048,436.023 679.881,434.19 677,429.5C 675.28,422.227 672.113,415.727 667.5,410C 664.911,408.803 662.244,407.803 659.5,407C 670.416,404.999 673.916,398.832 670,388.5C 668.786,386.951 667.286,385.785 665.5,385C 662.183,384.502 658.85,384.335 655.5,384.5C 655.5,401.5 655.5,418.5 655.5,435.5C 653.833,435.5 652.167,435.5 650.5,435.5C 650.5,417.833 650.5,400.167 650.5,382.5 Z"/></g>
<g><path style="opacity:1" fill="#6c611d" d="M 761.5,382.5 C 761.5,399.833 761.5,417.167 761.5,434.5C 768.833,434.5 776.167,434.5 783.5,434.5C 783.5,433.5 783.5,432.5 783.5,431.5C 784.434,432.568 784.768,433.901 784.5,435.5C 776.5,435.5 768.5,435.5 760.5,435.5C 760.17,417.659 760.503,399.992 761.5,382.5 Z"/></g>
<g><path style="opacity:1" fill="#534c07" d="M 761.5,382.5 C 768.833,382.5 776.167,382.5 783.5,382.5C 783.5,383.5 783.5,384.5 783.5,385.5C 777.753,385.406 772.086,384.74 766.5,383.5C 765.503,391.138 765.169,398.804 765.5,406.5C 771.189,406.468 776.855,406.134 782.5,405.5C 782.5,406.833 782.5,408.167 782.5,409.5C 776.848,408.968 771.181,408.635 765.5,408.5C 765.5,416.833 765.5,425.167 765.5,433.5C 771.489,432.74 777.489,432.073 783.5,431.5C 783.5,432.5 783.5,433.5 783.5,434.5C 776.167,434.5 768.833,434.5 761.5,434.5C 761.5,417.167 761.5,399.833 761.5,382.5 Z"/></g>
<g><path style="opacity:1" fill="#8c8541" d="M 799.5,382.5 C 799.5,399.833 799.5,417.167 799.5,434.5C 801.167,434.5 802.833,434.5 804.5,434.5C 804.17,417.658 804.503,400.992 805.5,384.5C 805.5,401.5 805.5,418.5 805.5,435.5C 803.167,435.5 800.833,435.5 798.5,435.5C 798.17,417.659 798.503,399.992 799.5,382.5 Z"/></g>
<g><path style="opacity:1" fill="#7c7530" d="M 204.5,393.5 C 203.509,399.979 203.176,406.646 203.5,413.5C 202.345,406.345 202.178,399.012 203,391.5C 203.717,392.044 204.217,392.711 204.5,393.5 Z"/></g>
<g><path style="opacity:1" fill="#564e0a" d="M 799.5,382.5 C 805.176,382.334 810.843,382.501 816.5,383C 825.958,386.083 828.791,392.25 825,401.5C 822.374,404.231 819.207,406.064 815.5,407C 819.813,408.306 823.313,410.806 826,414.5C 827.751,419.913 829.751,425.246 832,430.5C 833.731,432.617 835.898,434.117 838.5,435C 834.677,435.617 831.177,434.783 828,432.5C 825.528,426.085 822.862,419.752 820,413.5C 816.984,409.908 813.151,407.742 808.5,407C 820.27,404.961 823.77,398.461 819,387.5C 814.985,384.771 810.485,383.771 805.5,384.5C 804.503,400.992 804.17,417.658 804.5,434.5C 802.833,434.5 801.167,434.5 799.5,434.5C 799.5,417.167 799.5,399.833 799.5,382.5 Z"/></g>
<g><path style="opacity:1" fill="#7d7632" d="M 203.5,420.5 C 204.487,425.305 204.821,430.305 204.5,435.5C 202.585,435.784 200.919,435.451 199.5,434.5C 200.833,434.5 202.167,434.5 203.5,434.5C 203.5,429.833 203.5,425.167 203.5,420.5 Z"/></g>
</svg>