<svg version="1.2" xmlns="http://www.w3.org/2000/svg" viewBox="0 0 4000 3000" width="4000" height="3000">
	<style>
		.s0 { fill: #4a4944 } 
		.s1 { fill: #434443 } 
		.s2 { fill: #464544 } 
		.s3 { fill: #59520d } 
		.s4 { fill: #5b5410 } 
		.s5 { fill: #5c5510 } 
		.s6 { fill: #5a530f } 
		.s7 { fill: #5a520e } 
		.s8 { fill: #5b540f } 
		.s9 { fill: #5a540f } 
		.s10 { fill: #57500b } 
		.s11 { fill: #554f0a } 
		.s12 { fill: #fffffd } 
		.s13 { fill: #fcfcfa } 
		.s14 { fill: #9f9959 } 
		.s15 { fill: #4c4b44 } 
		.s16 { fill: #555347 } 
		.s17 { fill: #514f45 } 
		.s18 { fill: #908a45 } 
		.s19 { fill: #807934 } 
		.s20 { fill: #5f5814 } 
		.s21 { fill: #716a26 } 
		.s22 { fill: #847d39 } 
		.s23 { fill: #726b26 } 
		.s24 { fill: #716e4e } 
		.s25 { fill: #6a684c } 
		.s26 { fill: #7c7531 } 
	</style>
	<g id="Layer 1">
		<path class="s0" d="m2010 1110c17.98 0.95 33.43 9.49 46 22q0.93 0.88 1.89 1.79c9.74 9.98 16.82 26.73 17.2 40.64q-0.04 1.27-0.09 2.57 0.92 0.27 1.87 0.55 8.62 2.56 17.13 5.45c-1.56 5.52-4.16 10.06-7 15-3.63-0.33-7.26-0.66-11-1-0.99 2.97-1.98 5.94-3 9 5.13-1.09 10.06-2.23 15-4 1.85 3.93 2.22 6.99 2.13 11.31q-0.03 1.6-0.06 3.24-0.03 1.21-0.07 2.45c-6.07 0.25-11.16-0.3-17-2-1.97 4.75-2.36 8.01-1 13 2.46 2.79 2.46 2.79 5 5q0 0.99 0 2 2.46 0.99 5 2c-2.13 6.05-2.13 6.05-5 8-3.12 0.25-3.12 0.25-6 0q-0.49-0.49-1-1c-3.42-0.23-3.42-0.23-7 1-2.34 2.4-3.54 4.67-4 8 0.97 2.33 2.23 4.1 3.73 6.12 1.27 1.88 1.27 1.88 1.9 5.13-0.87 3.8-2.39 4.67-5.63 6.75-3.26 0.43-3.26 0.43-6.69 0.31q-1.7-0.03-3.45-0.07c-2.86-0.24-2.86-0.24-4.86-1.24 0 7.26 0 14.52 0 22-2.64-1.98-5.28-3.96-8-6-3.75-0.6-3.75-0.6-7 1-2.13 2.3-2.82 3.97-4 7 0.69 2.92 2.15 4.16 4.19 6.37 1.81 2.63 1.81 2.63 1.87 5.69-1.32 3.67-2.71 4.99-6.06 6.94-2.06 0.06-2.06 0.06-4-1q-0.92-1.23-1.87-2.5c-1.96-2.79-1.96-2.79-5.38-3.31q-1.35-0.09-2.75-0.19c-2.16 4.85-2.16 4.85-3 10 2.16 2.56 3.99 4.5 7 6-1.47 3.4-3.38 5.65-6 8.25-1.05 1.06-1.05 1.06-2.12 2.14-1.88 1.61-1.88 1.61-3.88 1.61q-1.53-2.48-3-5c-3.41-1.7-6.37-1.92-10-1-3.78 2.59-6.86 5.81-10.05 9.09q-1.39 1.39-2.83 2.83-2.95 2.96-5.88 5.96-3.72 3.81-7.51 7.56-2.92 2.92-5.82 5.86-2.05 2.07-4.11 4.12c-7.13 7.35-11.96 14.86-11.9 25.35q0.01 1.32 0.01 2.69 0.01 1.37 0.03 2.79 0 1.4 0.01 2.84 0.02 3.45 0.05 6.91c7.73 1.89 13.8 2.94 21.25-0.5 3.59-3.26 6.18-6.88 7.75-11.5-0.34-2.86-1.09-5.26-2-8-0.62-6.59 1.24-9.61 5.3-14.6 8.71-7.19 30.15-4.03 40.7-3.4 17.42 1.87 32.08 10.63 44 23q1.19 1.18 2.42 2.4c6.79 7.05 13.45 16.22 16.58 25.6-0.77 3.72-2.35 6.29-5 9-3.16 1.33-6.2 2.25-9.5 3.13-14.56 3.96-24.08 11.29-33.5 22.87q-1.16 1.41-2.36 2.86-2.19 2.69-4.36 5.39c-2.5 3.01-5.12 5.89-7.78 8.75-4.28 4.6-8.29 9.36-12.24 14.27-3.17 3.83-6.52 7.48-9.9 11.12-2.44 2.61-2.44 2.61-4.6 5.68-3.15 3.79-7.13 5.29-11.63 7.05-1.26 0.51-1.26 0.51-2.54 1.03-21.04 8.33-45.96 12.37-67.59 3.85-24.52-10.63-37.98-33.48-48-57-8.91-22.8-3.82-51.92 5.51-73.73 4.04-8.84 8.83-15.17 15.49-22.27q1.76-2.02 3.5-4.06c6.35-7.25 13.17-13.68 20.7-19.69q2.74-2.2 5.42-4.46c11.42-9.65 23.85-17.3 36.97-24.42 7.58-4.19 13.8-9.25 19.47-15.81 4.06-4.6 8.23-9.09 12.44-13.56 5.58-5.93 11.1-11.9 16.5-18q0.83-0.93 1.68-1.89c4.77-5.42 9.45-10.91 14.14-16.4q3.1-3.63 6.23-7.23c5.53-6.38 10.93-12.82 16.07-19.52 2-2.59 3.99-5.08 6.2-7.5 11.44-12.64 10.95-31.33 10.68-47.46q0.06-1.23 0.13-2.5c0-3.19-0.88-5.2-2.9-7.62-9.42-9-20.99-16.32-32.94-21.43-2.95-1.87-3.46-3.08-4.29-6.45-0.2-3.33-0.2-3.33-0.12-6.81q0.02-1.74 0.05-3.52 0.03-1.32 0.07-2.67z"/>
		<path class="s1" d="m2198 1431c425.7 0 851.4 0 1290 0 0 8.58 0 17.16 0 26-425.7-0.33-851.4-0.66-1290-1 0-8.25 0-16.5 0-25z"/>
		<path class="s1" d="m503 1431c425.7 0 851.4 0 1290 0 0 8.58 0 17.16 0 26-425.7-0.33-851.4-0.66-1290-1 0-8.25 0-16.5 0-25z"/>
		<path class="s2" d="m2197 1486c426.03 0 852.06 0 1291 0 0 7.92 0 15.84 0 24-426.03 0-852.06 0-1291 0 0-7.92 0-15.84 0-24z"/>
		<path class="s2" d="m502 1486c426.03 0 852.06 0 1291 0 0 7.92 0 15.84 0 24-426.03 0-852.06 0-1291 0 0-7.92 0-15.84 0-24z"/>
		<path class="s3" d="m835 1589c10.98 2.13 16.87 5.94 23.2 15.24 2.86 4.38 5.56 8.84 8.24 13.32 15.93 26.4 32.93 52.15 50.56 77.44 0.71 1.02 0.71 1.02 1.44 2.06 7.3 10.48 14.84 20.77 22.56 30.94 2.9-2.55 4.5-5.45 6.34-8.83q0.47-0.86 0.95-1.75 1.02-1.86 2.03-3.72 2.7-4.97 5.41-9.92 0.55-0.99 1.11-2.02 4.82-8.79 9.79-17.51 6.72-11.85 13.37-23.75 7.5-13.42 15.09-26.79 4.39-7.76 8.7-15.57 0.94-1.7 1.91-3.45 1.82-3.3 3.63-6.62 0.83-1.49 1.67-3.02 0.72-1.31 1.47-2.67c3.15-4.9 6.34-7.16 11.8-8.85 5.24-1.01 10.42-0.7 15.73-0.53 0.33 4.29 0.66 8.58 1 13q-0.99 0-2 0c0 66.99 0 133.98 0 203-6.93 0-13.86 0-21 0 0.02-4.68 0.02-4.68 0.04-9.45 0.08-29.61-0.1-59.22-0.45-88.83q-0.04-4.1-0.09-8.19c-0.2-18.71-0.47-37.41-0.91-56.11q-0.06-2.64-0.12-5.27-0.08-3.65-0.17-7.29-0.03-1.06-0.05-2.15c-0.11-3.99-0.5-7.79-1.25-11.71q-0.58 1.04-1.17 2.11c-6.73 12.16-13.48 24.3-20.33 36.39-7.25 12.79-14.37 25.64-21.5 38.5-7.32 13.21-14.64 26.41-22.06 39.56-0.77 1.37-0.77 1.37-1.55 2.76q-5.06 8.92-10.39 17.68c-10.77-2.77-14.83-9.33-20.47-18.55q-1.58-2.54-3.16-5.08-0.82-1.31-1.67-2.67c-4.66-7.4-9.52-14.69-14.34-22q-2.79-4.24-5.58-8.49c-6.99-10.61-14.12-21.09-21.51-31.42q-2.72-3.83-5.4-7.68-0.86-1.24-1.75-2.52-1.74-2.48-3.47-4.96-0.84-1.21-1.72-2.46-0.73-1.06-1.49-2.15-2.18-3.04-4.44-6.02c-1.74 11.7-3.41 23.18-3.01 35.04 0.01 3.36-0.18 6.56-0.47 9.9-0.53 6.66-0.71 13.28-0.76 19.95q-0.01 1.78-0.02 3.61-0.02 3.76-0.04 7.52-0.01 3.76-0.06 7.53c-0.2 17.46-0.23 35.68 5.36 52.45q0.14 3.05 0.13 6.09c0 1.8 0 1.8 0.01 3.62q-0.01 1.87-0.02 3.79c0.01 1.87 0.01 1.87 0.02 3.79q-0.01 1.78-0.01 3.62 0 1.63 0 3.32c-0.13 2.77-0.13 2.77-1.13 5.77-7.26 0-14.52 0-22 0-0.12-20.28 0.3-40.52 0.8-60.78q0.36-14.68 0.69-29.35 0.04-1.46 0.07-2.97 0.63-27.63 1-55.27 0.49-35.82 1.44-71.63z"/>
		<path class="s4" d="m698.89 1596.84c7.01 7.18 10.16 18.02 13.92 27.16q0.49 1.17 0.98 2.37c20.79 50.24 39.76 101.29 57.74 152.6q2.6 7.42 5.27 14.82 1.13 3.17 2.26 6.34 0.49 1.34 1 2.72c2.05 5.81 2.05 5.81 0.94 9.15-4.99 2.75-9.32 3.85-15 3-3.52-1.08-6.37-2.37-9-5q-0.96-2.66-1.74-5.38-0.51-1.69-1.02-3.43-0.55-1.85-1.11-3.75c-7.31-24.18-16.13-47.73-26.12-70.92q-0.4-0.94-0.81-1.9-1.1-2.54-2.2-5.07c-1-2.55-1-2.55-1-4.55-24.1-3.87-46.9-3.87-71 0-0.17 1.03-0.17 1.03-0.35 2.07-0.75 3.39-1.86 6.5-3.06 9.75q-0.77 2.09-1.54 4.19-0.41 1.1-0.83 2.24c-5.65 15.39-11.06 30.86-16.34 46.38q-0.49 1.41-0.98 2.86-1.4 4.09-2.78 8.17-0.41 1.19-0.83 2.42c-1.65 4.9-3.13 9.81-4.46 14.81-1.35 3.42-3.6 4.59-6.83 6.11-3.33 1.06-6.45 1.17-9.94 1.19q-1.52 0.02-3.09 0.04c-3.04-0.24-5.22-0.95-7.97-2.23 1.33-4.16 2.87-8.14 4.63-12.13q0.83-1.9 1.66-3.79 0.44-1.01 0.9-2.06c23.47-53.82 44.01-108.87 63.4-164.27q0.55-1.57 1.12-3.19 2.88-8.17 5.42-16.45 0.52-1.66 1.05-3.36 0.99-3.17 1.91-6.36c2.19-7.01 2.19-7.01 5.99-9.03 7.72-0.94 13.27 0.26 19.81 4.48z"/>
		<path class="s5" d="m2914 1589c4.07 1.91 7.25 4.57 10.63 7.5q0.92 0.8 1.88 1.63c9.13 7.99 16.96 16.45 24.2 26.16 2.18 2.89 4.42 5.74 6.67 8.59q0.67 0.85 1.37 1.74 7.42 9.4 14.93 18.73 2.63 3.29 5.26 6.59c3.99 4.99 8.03 9.94 12.07 14.89q5.35 6.59 10.55 13.29c4.22 5.42 8.61 10.65 13.1 15.84 3.77 4.36 7.43 8.79 11.06 13.26 3.02 3.69 6.11 7.32 9.2 10.95q4.28 5.05 8.46 10.21c4.03 4.95 8.2 9.8 12.4 14.62 5.78 6.63 11.5 13.32 17.22 20 0.39-33.61-0.04-67.11-1.38-100.69q-0.05-1.26-0.1-2.56c-1.02-25.59-2.15-51.18-3.52-76.75 7.26 0 14.52 0 22 0 0.63 52.08-1.61 104.18-4 156.19-0.06 1.38-0.06 1.38-0.13 2.79-1.02 22.36-2.19 44.7-3.87 67.02-3.71-1.71-5.52-3.57-8.06-6.81q-1.17-1.47-2.38-2.99-0.62-0.78-1.26-1.59c-2.21-2.74-4.51-5.42-6.8-8.11q-6.17-7.28-12.19-14.69-3.87-4.69-7.81-9.31-6.17-7.28-12.19-14.69-3.87-4.69-7.81-9.31-6.17-7.28-12.19-14.69-3.87-4.69-7.81-9.31-6.17-7.28-12.19-14.69-3.87-4.69-7.81-9.31-6.17-7.28-12.19-14.69-3.87-4.69-7.81-9.31-6.17-7.28-12.19-14.69-3.87-4.69-7.81-9.31c-13.19-15.53-13.19-15.53-16.5-20.5q-0.05 27-0.06 54 0 0.99 0 2.01c-0.02 33.08-0.03 66.16 0.56 99.24q0.02 0.99 0.04 2.02 0.21 11.36 0.46 22.73c-7.26 0-14.52 0-22 0-0.14-18.4 0.25-36.74 0.94-55.12q0.21-5.52 0.41-11.03 0.33-9.28 0.68-18.56 0.47-12.82 0.93-25.63c0.96-26.41 1.94-52.81 3.02-79.21q0.12-3.01 0.24-6.02c0.41-10.16 0.89-20.29 1.78-30.43z"/>
		<path class="s6" d="m1765.88 1592.69q1.59-0.06 3.24-0.12 1.91 0.21 3.88 0.43 1.29 0.13 2.62 0.27c3.95 0.85 7.09 1.89 9.5 5.32 2.87 5.31 4.75 11.05 6.75 16.72q1.07 2.88 2.15 5.76 2.32 6.19 4.58 12.41c2.41 6.6 4.93 13.15 7.46 19.71 16.05 41.56 31.48 83.36 46.65 125.24q0.45 1.25 0.92 2.53 0.88 2.42 1.76 4.85 2.27 6.28 4.61 12.54 0.49 1.3 0.99 2.64 0.94 2.5 1.89 5c2.12 5.68 2.12 5.68 2.12 9.01q-3.25 0.16-6.5 0.25-1.8 0.07-3.66 0.14c-4.76-0.48-8.16-1.23-11.84-4.39-2.42-3.69-3.96-7.65-5.56-11.75q-0.74-1.81-1.51-3.68c-1.69-4.17-3.31-8.37-4.93-12.57q-0.92-2.38-1.84-4.75c-6.74-17.41-13.2-34.91-19.1-52.63q-0.32-0.95-0.65-1.94c-3.41-10.28-3.41-10.28-3.41-12.68-24.42 0.33-48.84 0.66-74 1-8.51 27.82-16.38 55.73-23.83 83.85q-2.55 9.58-5.17 19.15c-9.21 1.51-17.85 0.85-26-4 0.59-4.71 1.96-8.73 3.86-13.04q0.92-2.15 1.85-4.3 0.49-1.14 1-2.32c21-48.61 39.68-98.27 57.79-148.03q0.62-1.71 1.27-3.48c4.7-12.93 9.34-25.88 13.78-38.9q0.46-1.34 0.94-2.73 0.4-1.18 0.81-2.39c1.46-3.79 3.78-3.04 7.57-3.12z"/>
		<path class="s7" d="m3331 1593c80.64-0.73 80.64-0.73 102.19 19 8.88 9.48 12.31 20.92 12.06 33.69-0.9 11.8-2.84 24.52-11.69 32.94-9.6 7.97-19.81 13.37-31.56 17.37 1.09 0.4 1.09 0.4 2.2 0.81 15.06 5.87 31.62 16.33 38.88 31.44q1.41 3.62 2.65 7.31 0.48 1.35 0.97 2.73 1.02 2.87 2.02 5.75 2.61 7.45 5.29 14.88 0.52 1.44 1.05 2.93c2.7 7.54 5.49 15.04 8.5 22.46q0.53 1.37 1.08 2.77c5.34 12.87 17.25 19.21 29.36 24.92-6.83 4.11-16.11 2.39-23.56 0.87-7.77-1.97-14.79-5.44-21.44-9.87-1.17-2.45-1.17-2.45-2.32-5.61q-0.66-1.78-1.35-3.61-0.35-0.96-0.71-1.95c-5.05-13.71-10.65-27.14-16.5-40.52q-0.53-1.23-1.09-2.5c-9.17-21.06-17.47-37.61-40.02-46.6-4.29-1.57-8.64-2.9-13.01-4.21q-3-0.99-6-2 0-0.49 0-1c1.85-0.45 1.85-0.45 3.73-0.92 17.32-4.34 33.26-9.14 43.45-24.91 6.6-11.87 5.35-25.23 2.01-37.92q-1.08-3.63-2.19-7.25-0.31-1.31-0.63-2.67c-1.67-5.54-5.18-7.95-10.12-10.64-15.37-7.69-29.72-7.93-47.25-8.69 0 22.11 0 44.22 0 67q-1.97 0-4 0c0 46.53 0 93.06 0 141-7.59 0-15.18 0-23 0q-0.04-41.33-0.05-82.67-0.01-19.19-0.03-38.38-0.01-16.72-0.01-33.44-0.01-8.86-0.02-17.72-0.01-8.33 0-16.67 0-3.06-0.01-6.12-0.01-4.18 0-8.35 0-1.21-0.01-2.46c0.01-3.85 0.19-7.44 1.13-11.19z"/>
		<path class="s6" d="m2710 1593c67.77 0 67.77 0 82 7q1.44 0.66 2.92 1.34c10.46 5.2 19.37 12.8 24.08 23.66 4.63 14.14 4.28 30.36-1.44 44.25-7.13 12.16-20.47 21.22-33.56 25.75q-1.48 0-3 0 0 0.99 0 2c1.79 0.46 1.79 0.46 3.63 0.94 9.6 3.24 18.18 9.68 25.81 16.25q1.35 1.16 2.74 2.35c8.35 9.08 12.62 23.61 17.47 34.79q1.78 4.08 3.57 8.16c3.33 7.59 6.65 15.19 9.89 22.83q1.26 2.9 2.52 5.81 0.5 1.24 1.03 2.51c3.79 8.65 10.73 13.44 18.84 17.8q0.94 0.52 1.91 1.06 2.29 1.26 4.59 2.5c-6.23 4.15-16.45 2.61-23.62 1.38-12.31-3.34-21.43-10.8-28.38-21.38-1.72-3.89-2.88-7.84-4-11.94q-0.99-3.33-2-6.65-0.5-1.62-1-3.29c-6.36-19.9-16.62-38.38-29-55.12q-1.1-1.58-2.23-3.2c-3.69-3.73-7.46-5.15-12.33-6.93-1.33-0.5-1.33-0.5-2.69-1.02-5.85-2.22-11.74-4.27-17.73-6.06-2.02-0.79-2.02-0.79-3.02-2.79q1.84-0.43 3.73-0.88c15.43-3.77 30.61-8.61 40.15-22.18 7.34-12.5 7.14-26.25 3.76-39.97-1.94-7.45-3.87-13.87-9.76-19.1q-1.06-0.95-2.14-1.94c-6.81-4.79-13.46-6.58-21.68-7.18-1.21-0.12-1.21-0.12-2.45-0.23-8.91-0.76-17.6-0.52-26.61-0.52 0 69.96 0 139.92 0 212-7.26 0-14.52 0-22 0 0-73.26 0-146.52 0-222z"/>
		<path class="s4" d="m2587.02 1602.76c23.54 12.05 40.32 32.28 48.45 57.44 5.49 17.91 7.57 35.85 7.66 54.55 0 1.31 0 1.31 0.01 2.65-0.03 9.74-0.96 17.35-5.14 26.22q-0.6 1.3-1.21 2.63c-5.61 11.9-12.18 22.76-20.79 32.75-0.88 1.1-0.88 1.1-1.79 2.22-18.95 22.83-47.47 33.47-76.25 36.26-31.02 2.65-58.64-7.76-82.51-27.6-23.49-20.5-37.08-48.38-39.31-79.52-0.95-16.27-0.55-30.89 4.86-46.36 0.34-0.99 0.34-0.99 0.68-2 5.49-15.85 13.75-29.89 25.32-42q1.35-1.41 2.73-2.86c36.45-35.59 93.13-35.77 137.29-14.38zm-112.02 12.24q-1.19 0.99-2.42 2.02c-12.73 10.98-22.95 23.57-26.77 40.17-0.37 1.56-0.37 1.56-0.75 3.15-5.91 25.82-6.51 50.98-2.45 77.13q0.48 3.18 0.91 6.37c2.33 13.48 11.83 24.98 20.48 35.16q0.66 0.87 1.34 1.77c12.23 15.8 32.02 24.97 51.34 27.76 16.18 1.51 30.87-1.65 46.13-6.8q2.78-0.91 5.6-1.71c18.42-6.09 32.05-28.25 40.59-44.68 7.33-14.75 11.26-30.91 12-47.34q0.06-1.13 0.13-2.3c0.8-29.03-8.38-58.26-27.75-80.14q-2.18-2.29-4.38-4.56c-0.82-0.93-0.82-0.93-1.66-1.89-14.91-16.34-38.17-21.67-59.34-23.11-21.75-0.42-36.3 4.94-53 19z"/>
		<path class="s5" d="m1919 1595c2.48 2.48 2.48 2.48 4.75 5.63q0.62 0.85 1.27 1.73 2.02 2.8 3.98 5.64 0.65 0.94 1.33 1.9 3.44 4.95 6.83 9.94 4.3 6.3 8.71 12.54 0.75 1.05 1.51 2.13c4.18 5.89 8.42 11.74 12.67 17.58q4.4 6.06 8.59 12.27 0.89 1.31 1.8 2.66 1.72 2.57 3.42 5.14 0.77 1.14 1.56 2.32c0.68 1.02 0.68 1.02 1.37 2.06q0.59 0.72 1.21 1.46 0.99 0 2 0c1.96-2.38 3.81-4.77 5.62-7.25q0.81-1.09 1.65-2.22c4.44-6.05 8.63-12.24 12.73-18.53q1.14-1.7 2.29-3.41c8.97-13.32 17.6-26.87 25.77-40.7 6.28-10.61 6.28-10.61 10.19-12.26 6.85-1.15 12.17-0.82 18.75 1.37-1.32 2.79-2.8 5.26-4.62 7.77q-0.77 1.07-1.57 2.17-0.83 1.14-1.69 2.31-0.86 1.19-1.76 2.42-6.31 8.67-12.77 17.22c-5.66 7.52-11.23 15.1-16.81 22.69q-3.52 4.78-7.04 9.56-1.73 2.35-3.46 4.7-4.61 6.26-9.24 12.51c-0.96 1.31-0.96 1.31-1.95 2.64q-1.87 2.53-3.74 5.05-0.83 1.12-1.68 2.28-0.74 0.99-1.49 2.01c-1.24 1.67-1.24 1.67-2.18 3.67 0.73 1.69 0.73 1.69 1.98 3.53q0.73 1.15 1.49 2.33 0.84 1.3 1.72 2.64 0.9 1.4 1.82 2.84c9.81 15.12 19.88 30.07 29.9 45.05q5.27 7.87 10.52 15.76c9.3 14.01 9.3 14.01 18.76 27.91q0.64 0.94 1.3 1.9 2.82 4.1 5.76 8.12 0.99 1.34 2 2.73 0.84 1.12 1.7 2.27 0.52 0.95 1.05 1.92c-1 3-1 3-3.94 4.69-5.9 2.27-12.29 2.36-18.19 0-4.86-2.83-7.61-7.24-10.66-11.85-2.42-3.67-4.92-7.28-7.4-10.9q-0.83-1.22-1.69-2.48c-16.84-24.67-35.09-48.44-54.12-71.46-6.94 11.04-13.46 22.32-20.02 33.6q-7.83 13.43-15.72 26.84-3.33 5.67-6.64 11.37-2.18 3.76-4.38 7.52-1.04 1.78-2.07 3.56-1.43 2.47-2.88 4.93-0.8 1.39-1.64 2.82c-2.74 3.92-5.82 5.82-10.46 7.01-6.76 1.08-13.86 1.17-20.19-1.65 1.37-2.94 2.96-5.44 4.91-8.03q0.88-1.16 1.79-2.36 0.95-1.26 1.92-2.55 1-1.31 2.02-2.67 5.19-6.88 10.45-13.71c7.04-9.15 13.87-18.36 20.32-27.93q4.97-7.37 10.28-14.5c4.47-6.03 8.7-12.18 12.8-18.46q2.62-3.98 5.39-7.86 0.7-0.99 1.42-2.02 1.35-1.92 2.74-3.81c1.88-2.71 2.98-4.49 2.86-7.84-1.16-4.2-3.16-7.24-5.59-10.82q-0.73-1.1-1.48-2.22-1.58-2.38-3.17-4.75-2.51-3.74-5-7.51-4.38-6.64-8.79-13.25-2.7-4.06-5.4-8.12-10.96-16.48-22.47-32.59-1.03-1.44-2.09-2.93-2.45-3.41-4.91-6.82-0.79-1.1-1.61-2.24c-2.19-3.04-4.39-6.01-6.77-8.9-1.62-2.11-1.62-2.11-1.62-4.11 8.57-4.58 16.82-5.48 26-2z"/>
		<path class="s8" d="m1322.5 1588.31q2.46 0.04 4.92 0.07c14.05 0.28 27.79 1.87 41.58 4.62q1.31 0.25 2.65 0.51 1.21 0.24 2.46 0.5 1.05 0.21 2.13 0.43c1.76 0.56 1.76 0.56 3.82 2.56 1.73 5.52 1.97 10.86-0.56 16.13q-0.74 0.92-1.5 1.87c-3.73-1.35-6.74-3.07-10-5.31-6.03-3.9-12.2-6.45-19-8.69q-1.08-0.37-2.19-0.75c-11.2-3.16-27.94-3-38.45 2.01-5.83 3.33-12.37 7.2-15.73 13.18-2.07 8.45-1.87 16.93-1.63 25.56q-0.04 1.49-0.08 3.03c0.32 5.97 2.66 8.96 6.92 12.85 3.3 2.82 6.72 5.48 10.16 8.12q1.63 1.29 3.25 2.59 4.82 3.78 9.75 7.41c1.03 0.76 1.03 0.76 2.07 1.53 11.41 8.39 22.91 16.74 35.1 23.96 17.75 10.54 29.14 25.63 34.83 45.51 3.45 14.48-0.53 28.62-7.88 41.23-3.44 5.41-7.73 10.12-12.12 14.77q-1 1.08-2.03 2.19c-13.64 13.36-38.09 14.42-56.02 14.28-10.01-0.25-19.35-1.69-28.95-4.47q-1.01-0.28-2.06-0.57c-7.63-2.15-13.92-4.26-17.94-11.43-2.52-5.05-2.07-9.6-1-15 0.49-0.99 0.49-0.99 1-2 3.56 1.57 6.29 3.76 9.31 6.19 18.24 14.04 39.67 17.89 62.24 15.54 8.74-1.18 15.75-3.27 21.66-10.25 8.86-12.3 13.66-24.18 11.79-39.48-0.93-4.79-2.45-9.38-4-14q-0.19-1.12-0.38-2.27c-0.47-1.9-0.47-1.9-2.42-2.74q-1.08-0.49-2.2-0.99-2.14-1.85-4.19-3.81c-18.28-16.73-39.66-31.58-61.04-44.08-6.84-4.04-11.28-8.55-15.77-15.11q-0.81-1.17-1.65-2.37c-8.07-12.48-12.52-27.56-9.85-42.38 3.87-13.99 13.33-24.37 24.5-33.25q1.08-0.9 2.19-1.83c8.42-6.25 16.31-6.15 26.31-5.86z"/>
		<path class="s8" d="m2290.44 1588.5q2.74 0.03 5.48 0.06c23.02 0.31 45.52 2.9 68.13 7.26q1.4 0.26 2.83 0.54c1.05 0.32 1.05 0.32 2.12 0.64 1.84 3.69 0.71 8.05 0 12-1.56 3.63-1.56 3.63-3 6-4.33-0.62-7.62-2.21-11.5-4.19-6.32-3.09-12.73-5.27-19.5-7.18q-1.32-0.38-2.68-0.76c-25.13-6.87-50.37-2.77-74.32 6.13q-1.47 0.53-2.98 1.08c-17.73 7.54-30.59 32.15-38.02 48.92-12.14 30.19-10.5 61.81 1.95 91.59 11.07 25.45 29.93 42.7 55.8 52.94 25.05 8.98 49.23 5.81 72.83-5.3 5.64-2.77 10.98-5.99 16.28-9.35 2.69-1.61 5.2-2.83 8.14-3.88 1.5 5.37 2.19 11.05 0.06 16.32-5.08 8.62-12.96 10.04-22.1 12.47-35.97 9.27-74.34 8.42-106.96-10.79-7.95-5.26-15.08-11.47-22-18q-1.1-1-2.23-2.04c-10.56-10-18.47-22.48-25.77-34.96q-0.86-1.39-1.75-2.83c-3.94-6.63-5.51-12.53-6.25-20.17q-0.16-1.54-0.33-3.12c-2.95-32.16 2.09-65.44 22.88-91.17 11.65-13.81 25.28-23.61 41.14-32.09q1.09-0.58 2.22-1.19c2.34-1.2 4.71-2.32 7.09-3.43q1.37-0.68 2.79-1.38c9.86-4.41 19.07-4.32 29.65-4.12z"/>
		<path class="s8" d="m1621 1593q1.07 0.24 2.18 0.5c7.75 1.85 7.75 1.85 10.82 3.5 2.34 4.25 2.5 8.27 2 13-1 3-1 3-2 5-3.72-1.35-6.69-3.06-9.94-5.31-16.65-10.77-37.26-13.13-56.53-9.53-3.48 1.16-5.71 2.98-8.23 5.6-1.3 1.24-1.3 1.24-3.3 1.24q-0.4 0.85-0.81 1.73c-1.23 2.35-2.65 4.42-4.19 6.58-6.09 9.18-6.26 18.97-4.27 29.62 2.22 8.71 6.03 13.73 13.51 18.82 1.99 1.41 3.88 2.92 5.78 4.45 13.44 10.84 27.64 20.2 42.61 28.78 17.94 10.3 32.81 22.68 39.34 43.04 3.61 13.54 3.85 30.59-2.15 43.53-1.46 2.33-3.04 4.36-4.82 6.45q-1.06 1.32-2.16 2.67c-10.68 12.56-24.03 20.53-39.97 24.64q-0.93 0.26-1.89 0.52c-14.11 3.32-28.45 0.78-42.36-2.14q-2.34-0.47-4.69-0.94c-23.06-4.63-23.06-4.63-26.12-8.56-1.86-6.4-1.91-14.9 0.19-21.19 3.14 1.36 5.62 3.22 8.26 5.38 13.39 10.87 30 18.74 47.62 18 16.01-1.95 32.27-8.15 44.12-19.38 1.97-2.88 3.07-5.65 4-9q0.33-1.13 0.67-2.29c2.85-11.12 1.14-22.75-4.4-32.85-4.55-6.64-11.21-11.6-17.43-16.58q-2.76-2.21-5.46-4.5c-8.65-7.3-17.86-13.93-27.9-19.19-17.56-9.29-39.19-26.66-45.72-46.32-3.58-15.41-2.76-31.97 5.53-45.75 7.1-10.48 19.37-21.13 32.08-24.07 18.71-1.51 37.38 0.38 55.63 4.55z"/>
		<path class="s9" d="m1122 1593c32.01 0 64.02 0 97 0 0 4.62 0 9.24 0 14-24.97 0.19-50.69-1.92-75-8 0 31.02 0 62.04 0 94 8.56-0.47 17.12-0.95 25.94-1.44 2.66-0.15 5.33-0.29 8.07-0.44q18.5-1.02 36.99-2.12c0 5.94 0 11.88 0 18-2.53-0.2-5.06-0.41-7.66-0.62q-3.86-0.31-7.73-0.61-2.59-0.2-5.18-0.41c-16.82-1.38-33.52-1.81-50.43-2.36 0.33 33.66 0.66 67.32 1 102 36.63-3.96 36.63-3.96 74-8 0 5.94 0 11.88 0 18-32.01 0-64.02 0-97 0 0-73.26 0-146.52 0-222z"/>
		<path class="s10" d="m3172 1593c30.69 0 61.38 0 93 0 0 4.62 0 9.24 0 14-13.81-0.25-27.43-1.09-41.13-2.88q-1.87-0.24-3.79-0.48c-8.78-1.19-17.42-2.81-26.08-4.64q-0.47 5.81-0.94 11.63-0.13 1.6-0.26 3.25-0.41 5.06-0.8 10.12c-0.13 1.61-0.13 1.61-0.26 3.26-0.61 8.05-0.94 16.07-1.06 24.14q-0.03 1.79-0.06 3.64-0.1 5.67-0.18 11.33-0.07 3.88-0.13 7.76-0.16 9.44-0.31 18.87c23.7-1 47.36-2.01 71-4 0 5.94 0 11.88 0 18q-1.94-0.13-3.93-0.26-7.42-0.49-14.83-0.97-3.18-0.2-6.35-0.41-4.63-0.31-9.26-0.61-1.35-0.09-2.74-0.18c-11.3-0.72-22.58-1.1-33.89-1.57 0.33 33.66 0.66 67.32 1 102 23.65-2.63 23.65-2.63 47.3-5.27 4.57-0.5 4.57-0.5 6.7-0.74q2.25-0.25 4.49-0.5 3.39-0.38 6.79-0.76c1.91-0.21 1.91-0.21 3.87-0.43 2.85-0.3 2.85-0.3 3.85-0.3 0 4.29 0 8.58 0 13-30.36 0-60.72 0-92 0-0.29-49.47-0.29-49.47-0.4-70.26q-0.12-21.51-0.25-43.01-0.09-15.66-0.18-31.32-0.04-8.29-0.09-16.57-0.05-7.82-0.09-15.64-0.01-2.85-0.03-5.7-0.03-3.93-0.04-7.86-0.01-1.09-0.02-2.21c-0.02-8.19 0.62-16.2 1.1-24.43z"/>
		<path class="s11" d="m527 1593c5.61 0 11.22 0 17 0 0.7 4.9 1.12 9 1.09 13.86q0 0.97-0.01 1.98-0.01 3.26-0.04 6.51-0.02 2.35-0.03 4.7-0.03 6.38-0.08 12.76-0.04 6.73-0.08 13.47-0.07 11.35-0.15 22.71-0.09 12.98-0.16 25.95-0.07 12.61-0.15 25.21-0.04 5.3-0.07 10.59-0.18 33.77-1.21 67.52-0.19 6.31-0.36 12.62-0.15 4.45-0.35 8.9-0.09 2.15-0.15 4.31c-0.53 18.86-7.44 34.31-20.75 47.85q-0.8 0.81-1.62 1.65c-3.66 3.58-7.34 6.03-11.88 8.41-2-3-2-3-1.86-5.28 1.08-3.43 2.74-6.15 4.61-9.22 12.37-20.99 13.23-43.31 13.75-67q0.03-1.3 0.06-2.64 0.23-10.43 0.44-20.86 0.03-1.5 0.06-3.05c1.23-60.31 1.49-120.63 1.94-180.95z"/>
		<path class="s12" d="m681 1611c2.63 2.33 3.89 4.56 5.28 7.78q0.63 1.45 1.28 2.95 0.68 1.58 1.38 3.21 0.71 1.65 1.45 3.36 1.54 3.54 3.06 7.09 2.27 5.27 4.55 10.54 7.78 17.97 15.25 36.07 0.71 1.71 1.45 3.47 0.65 1.59 1.32 3.22 0.57 1.39 1.16 2.82c0.82 2.49 0.82 2.49 0.82 6.49-17.62 4.82-44.5 9.83-62 4 1.66-22.75 8.14-74.14 25-91z"/>
		<path class="s13" d="m1760 1611c4.4 3.94 6.58 9.44 9.25 14.63q0.45 0.87 0.92 1.77c31.83 61.75 31.83 61.75 31.83 72.6-10.19 2.34-20.27 2.31-30.67 2.26q-4.33-0.01-8.66 0.01c-17.86 0.01-17.86 0.01-26.67-2.27 0.58-4.85 1.58-9.24 3.11-13.87q0.31-0.94 0.63-1.91 0.66-2.01 1.32-4.02 1.74-5.26 3.44-10.54 0.67-2.03 1.33-4.06c4.42-13.57 7.78-27.25 10.85-41.18q0.22-0.99 0.44-2.01 0.61-2.75 1.2-5.49c0.68-2.92 0.68-2.92 1.68-5.92z"/>
		<path class="s14" d="m2047 1391c3.49 2.5 6.76 5.19 10 8q1.17 0.97 2.37 1.97c5.3 4.51 9.57 9.39 13.63 15.03-2 1-2 1-4.55 0.18-1.58-0.65-1.58-0.65-3.2-1.3q-1.76-0.7-3.58-1.42-1.81-0.72-3.67-1.46c-10.89-4.21-21.97-7.3-33.25-10.27q-3.88-1.03-7.75-2.08-2.38-0.64-4.75-1.27-1.14-0.31-2.31-0.63c-3.98-1.06-7.93-1.96-11.98-2.67q-1.23-0.22-2.49-0.46-2.34-0.42-4.69-0.75c-3.02-0.55-5.24-1.17-7.16-3.65-2.41-4.57-3.05-8.08-2.62-13.22 20.39-6.5 49.04 3.34 66 14z"/>
		<path class="s15" d="m2135 1356c0.49 3.46 0.49 3.46 1 7-0.79 0.45-0.79 0.45-1.6 0.91q-3.67 2.11-7.34 4.21-1.24 0.71-2.52 1.44c-4.98 2.87-9.82 5.89-14.56 9.14-1.85 1.21-3.72 2.26-5.67 3.3-2.79 1.68-4.3 2.92-6.43 5.25-2.88 2.75-2.88 2.75-5.75 3.12-1.06-0.18-1.06-0.18-2.13-0.37-1.35-6.25-1.35-6.25 0.16-9.52 2.07-2.79 3.94-4.14 6.9-5.92 1.47-0.89 1.47-0.89 2.97-1.8q1.46-0.87 2.97-1.76c1.28-0.78 1.28-0.78 2.59-1.57q2.46-1.49 4.93-2.95 2.56-1.53 5.12-3.08c12.94-7.86 12.94-7.86 19.36-7.4z"/>
		<path class="s16" d="m2081 1343c5.63-0.25 5.63-0.25 9 2q-0.99 2.46-2 5-0.99 0-2 0-0.42 0.84-0.85 1.71-1.74 3.46-3.59 6.85-0.61 1.14-1.24 2.32c-1.29 2.07-2.42 3.59-4.32 5.12-3.19 0.19-3.19 0.19-6 0q-0.99-1.97-2-4 0.65-0.67 1.32-1.36c4.99-5.39 8.4-11.1 11.68-17.64z"/>
		<path class="s17" d="m2035 1339c2.98 0.33 4.81 0.87 7.31 2.56 1.94 2.8 2.32 4.88 2.15 8.27-0.82 3.9-2.73 7.29-5.46 10.17-2.17 0.72-2.17 0.72-4 1-2.49-3.74-2.3-6.68-2.25-11q-0.01-1.08-0.02-2.2c0.01-3.79 0.12-5.57 2.27-8.8z"/>
		<path class="s18" d="m3356 1602q0.49 0 1 0c0 22.11 0 44.22 0 67q-1.97 0-4 0c-0.2-9.84 0.33-19.66 0.8-29.49q0.2-4.31 0.4-8.62c0.45-9.64 0.96-19.27 1.8-28.89z"/>
		<path class="s19" d="m850 1636c1.54 1.54 1.54 1.54 3 4-0.02 2.6-0.2 4.85-0.58 7.39q-0.14 1.05-0.28 2.14-0.46 3.36-0.95 6.72-0.31 2.28-0.62 4.57-0.76 5.59-1.57 11.18-0.49 0-1 0-0.04-4.37-0.06-8.75-0.02-1.23-0.03-2.5 0-1.19-0.01-2.42-0.01-1.1-0.01-2.22c0.11-2.16 0.56-4.02 1.11-6.11q0.33-3.62 0.56-7.25 0.13-1.89 0.26-3.83 0.09-1.44 0.18-2.92z"/>
		<path class="s20" d="m852 1786q0.99 0.49 2 1 0.04 4.66 0.06 9.31 0.02 1.32 0.03 2.67 0 1.27 0.01 2.57 0.01 1.17 0.01 2.37c-0.11 2.08-0.11 2.08-1.11 5.08q-2.46 0-5 0 0-1.48 0-3 1.48-0.49 3-1c0.33-6.27 0.66-12.54 1-19z"/>
		<path class="s21" d="m2459 1609q0.99 0.49 2 1c-6.93 6.93-13.86 13.86-21 21 0-4.17 2.28-5.88 5-8.75q0.74-0.79 1.5-1.61c3.93-4.16 8.06-8.03 12.5-11.64z"/>
		<path class="s22" d="m848 1752q0.49 0 1 0 0.76 4.53 1.5 9.06 0.21 1.27 0.43 2.57c0.79 4.86 1.23 9.45 1.07 14.37q-0.49 0-1 0c-2.71-8.81-3.37-16.81-3-26z"/>
		<path class="s23" d="m1547 1598q0.99 0.49 2 1c-4.29 4.29-8.58 8.58-13 13 0-3.7 0.83-4.31 3.25-7q0.9-1.02 1.83-2.06c1.86-1.88 3.77-3.42 5.92-4.94z"/>
		<path class="s24" d="m2081 1343c3.13-0.19 3.13-0.19 6 0q-1.08 0.83-2.19 1.69c-2.78 2.29-5.3 4.72-7.81 7.31 1.06-3.4 2.01-6.01 4-9z"/>
		<path class="s25" d="m2130 1356q2.46 0 5 0c0.33 2.31 0.66 4.62 1 7q-2.46 0.99-5 2 0.49-1.48 1-3 1.48 0 3 0c-1.37-3.16-1.99-3.99-5-6z"/>
		<path class="s26" d="m853 1804q0 2.46 0 5-2.46 0-5 0 0-1.48 0-3c3.88-2 3.88-2 5-2z"/>
	</g>
</svg>