<?xml version="1.0" encoding="UTF-8"?>
<!DOCTYPE svg PUBLIC "-//W3C//DTD SVG 1.1//EN" "http://www.w3.org/Graphics/SVG/1.1/DTD/svg11.dtd">
<!-- Creator: CorelDRAW -->
<svg xmlns="http://www.w3.org/2000/svg" xml:space="preserve" width="358.618mm" height="99.4581mm" version="1.1" style="shape-rendering:geometricPrecision; text-rendering:geometricPrecision; image-rendering:optimizeQuality; fill-rule:evenodd; clip-rule:evenodd"
viewBox="0 0 1592.35 441.62"
 xmlns:xlink="http://www.w3.org/1999/xlink"
 xmlns:xodm="http://www.corel.com/coreldraw/odm/2003">
 <defs>
  <style type="text/css">
   <![CDATA[
    .fil0 {fill:#454545}
    .fil1 {fill:#5E5711}
   ]]>
  </style>
 </defs>
 <g id="Layer_x0020_1">
  <metadata id="CorelCorpID_0Corel-Layer"/>
  <path class="fil0" d="M839.42 196.1c-11.27,-1.86 -16.41,-8.34 -27.61,-12.12 -14.87,-5.02 -28.03,0.7 -28.53,-13.04 13.18,-9.42 56.66,8.4 56.14,25.17zm2.89 3.19c3.5,-27.11 -62.2,-48.5 -66.23,-25.85 -1.46,8.22 0.9,8.01 -5.85,13.07 -4.59,3.44 -7.98,4.73 -13.37,2.25 -14.54,-16.27 27.2,-46.65 34.46,-54.61l4.84 4.69c5.18,3.15 2.47,2.45 6.31,-1.74 -3.93,-8.05 -2.65,0.92 -6.39,-6.27 8.81,-9.06 10.69,-16.48 18.74,-20.66 4.19,3.52 2.01,4.5 5.58,6.03 5.06,2.18 5.06,-0.2 6.95,-2.6 -2.78,-5.35 -4.61,-4.11 -10.04,-5.63 1.82,-4.9 3.56,-6.51 6.91,-10.69 8.37,2.92 2.85,6.63 11.23,2.67 -1.33,-7.02 -0.56,-4.13 -8.55,-6.33 1.44,-3.77 1.51,-3.35 3.32,-6.96l2.79 -5.43c0.14,-0.26 0.39,-0.77 0.61,-1.13 7.05,2.6 3.31,3.11 9.4,5.3l5.13 -6.25c-6.05,-3.71 -5.37,-0.67 -11.02,-3.27 -0.49,-5.25 0.46,-6.97 3.27,-11.73 3.97,0.12 14.93,8.65 11.33,-4.74 -7.73,-0.12 0.02,2.26 -9.96,2.14l0.65 -9.06c6.65,-2.61 9.84,5.26 11.52,-7.94l-10.32 1.79c-2.71,-31.17 -9.7,-32.59 -25.31,-39.61 -5.25,-2.36 -10.46,-8.12 -13.84,-6.41 -7.37,3.73 0.44,10.54 4.88,12.2 8.42,3.14 8.82,2.37 13.59,8.41 21.54,27.32 -15.39,55.58 -34.52,80.38 -14.77,19.15 -28.66,24.6 -48.64,39.09 -14.26,10.35 -33.41,25.91 -37.02,49.04 -4.1,26.23 11.77,50.7 26.79,59.6 10.38,6.15 22.64,7.52 36.23,5.06 14.22,-2.58 21.25,-8.88 27.32,-16.54 8,-10.08 20.51,-28.07 32.74,-33.01 6.14,-2.48 11.69,-1.95 16.47,-5.25z"/>
  <polygon class="fil0" points="905.82,222.29 1592.34,222.22 1592.34,209.02 905.71,209.11 "/>
  <path class="fil0" d="M-0 222.34c82.87,-1.46 177.09,0.09 261.87,-0.09l406.56 -0.02 -0.09 -13.14 -668.26 0.04 -0.07 13.2z"/>
  <path class="fil0" d="M906.44 249.63l685.75 0.09 -0.14 -12.86c-84.48,3.72 -660.64,-3.49 -685.7,1.09l0.08 11.68z"/>
  <polygon class="fil0" points="0.4,249.67 668.74,249.4 668.56,237.05 0.08,237.03 "/>
  <path class="fil1" d="M238.37 379.95c9.1,-8.83 14.28,-23.54 21.22,-35.24l21.69 -35.97 -0.63 97.92 13.77 -0.26 0.38 -112.8 -12.57 0.36c-10.02,13.27 -28.25,53.41 -40.92,71.39l-38.74 -56.14c-7.96,-10.77 -7.59,-15.4 -15.89,-16.47 -3.63,5.47 -2.14,19.8 -2.22,29.2 -0.25,28.65 -0.5,55.52 -3.79,84.61l12.22 0.21 -3.2 -92.95c5.7,3.87 19.69,26.42 24.62,33.77 3.71,5.53 18.89,28.77 24.07,32.37z"/>
  <path class="fil1" d="M1071.92 297.99c64.36,-15 78.79,89.92 21.81,103.94 -65.32,16.07 -80.16,-90.34 -21.81,-103.94zm70.87 59.97c10.77,-80.21 -110.45,-91.73 -121.12,-15.4 -11.1,79.42 110.97,90.95 121.12,15.4z"/>
  <path class="fil1" d="M1367.82 293.74c2.21,22.94 7.23,71.93 4.39,93.75 -14.19,-13.41 -78.34,-94.77 -86.73,-96.06l-4.69 115.37 12.16 -0.14c-1.61,-20.22 -5.48,-74.89 -2.62,-93.29l54.23 61.55c2.89,3.87 7.44,8.95 10.82,12.69 6.73,7.44 17.08,21.56 22.09,21.03l3.45 -115.02 -13.1 0.13z"/>
  <path class="fil1" d="M1189.7 298.93c20.18,-1.49 34.43,1.35 35.27,21.55 1.1,26.42 -20.99,23.13 -29.8,26.1l7.27 2.97c2.02,0.5 4.35,0.77 6.36,1.4 26.43,8.28 17.77,51.19 43.22,55.6 1.68,0.29 6.03,0.63 7.66,0.47l4.84 -1.47c0.17,-0.44 0.67,-0.34 0.95,-0.59 -8.59,-4.12 -9.53,-2.57 -14.81,-11.37 -2.94,-4.9 -6.07,-12.43 -8.24,-18.41 -5.35,-14.77 -12.09,-22.75 -25.22,-27.75 0.33,-0.27 0.82,-0.56 1.08,-0.71l2.16 -1.31c0.16,-0.09 2.74,-1.29 3.28,-1.55 17.56,-8.63 19.04,-27.76 10.3,-38.52 -12.19,-15.02 -34.94,-11.73 -57.63,-11.93l-0.47 113.33 13.4 -0.02 0.37 -107.79z"/>
  <path class="fil1" d="M1518.04 298.61c19.52,0.26 33.92,1.4 34.7,21.8 1.05,27.37 -21.95,21.98 -29.68,26.6 1.68,1.36 -0.08,0.41 3.23,1.58 1.1,0.39 2.54,0.68 3.7,0.94 16.21,3.62 19.86,7.81 26.87,27.67 7.47,21.15 8.84,30.62 35.49,29.62 -7.3,-10.5 -8.84,4.76 -23.22,-32.47 -8.97,-23.23 -12.47,-18.33 -25.42,-27.34 8.86,-4.91 16,-4.45 20.7,-14.84 3.75,-8.3 2.13,-20.81 -3.09,-26.78 -10.65,-12.19 -36.09,-15.17 -56.51,-11.13l-0.56 112.37 13.59 0.05 0.19 -108.06z"/>
  <path class="fil1" d="M780.39 348.34c-11.69,16 -34.09,42.23 -42.84,58.43l14.91 0.08c1.93,-5.9 26.09,-45.05 32.59,-50.64 5.62,6.24 12.99,17.47 17.74,24.75 5.99,9.16 11.17,15.59 17.1,25.6l15.33 -0.11c-7.72,-13.94 -37.33,-51.71 -41.47,-61.4 11.6,-12.55 26.68,-36.42 38.87,-51.6l-14.68 0.44 -30.04 44.67c-9.63,-10.48 -19.33,-30.69 -27.48,-40.75 -3.1,-3.83 -7.38,-5.32 -18.58,-3.68l38.54 54.21z"/>
  <path class="fil1" d="M656.94 350.23c1.98,-5.44 12.7,-39.49 17.06,-43.57l17.34 43.63 -34.41 -0.06zm-1.34 5.16l37.68 -0.01 18.44 50.93 15.29 0.17c-3.47,-10.28 -43.38,-111.86 -46.91,-112.88l-9.66 0.12c-4.29,15.77 -15.3,42.34 -21.98,57.69 -7.69,17.66 -14.69,37.33 -22.6,54.98l12.71 -0.39 17.03 -50.62z"/>
  <path class="fil1" d="M104.83 305.16c5.59,12.97 14.04,31.01 18.18,45.3l-34.78 -0.12 16.61 -45.18zm-17.93 50.23l37.75 0.44c3.7,5.8 18.28,43.63 19.51,50.97l15.12 -0.17 -46.22 -113.18 -11.3 -0.01c-2.39,10.96 -37.96,98.58 -44.59,113.03l13.25 -0.21 16.48 -50.87z"/>
  <path class="fil1" d="M1001.28 390.6c-84.2,49.84 -113.97,-62.3 -60.9,-88.78 25.35,-12.65 44.5,-0.19 59.05,5.95l0.44 -11.27c-24.02,-5.01 -48.21,-9.35 -71.07,3.14 -15.71,8.58 -29.07,27.34 -28.84,52.06 0.44,48.05 53.61,69.17 100.64,51.13l0.67 -12.22z"/>
  <path class="fil1" d="M347.7 298.53c16.81,0.47 24.44,1.29 39.73,4.96l0.24 -9.9 -53.23 0.21 -0.35 112.9 54.6 -0.07 0.18 -9.66c-14.67,2.01 -24.64,4.05 -41.1,3.63l-0.42 -51.12 37.48 1.63 -0.13 -7.84 -37.22 1.15 0.22 -45.89z"/>
  <path class="fil1" d="M1432.65 299.1c11.46,-1.09 28.55,1.55 38.86,4.03l0.42 -9.56 -52.47 -0.09 -0.36 113.37 53.68 -0.15 -0.2 -8.89 -40.02 3.13 -0.16 -50.65c20.4,-1.27 32.33,4.06 37.51,-0.16l0.42 -4.7 -5.47 -1.78c-2.29,-0.27 -20.75,2.06 -32.49,1.44l0.28 -46z"/>
  <path class="fil1" d="M412.48 403.14c59.28,21.48 90.34,-26.3 49.48,-54.18 -12.38,-8.45 -39.03,-17.48 -36.91,-36.12 1.18,-10.36 9.55,-16.46 21.63,-16.49 14.6,-0.04 19.89,8.45 25.65,8.9l0.69 -9.71c-56.96,-16.03 -84.26,26.09 -32.7,56.28 12.02,7.04 39.84,21.45 23.85,42.39 -17.07,22.35 -49.04,-2.65 -51.61,-3.56l-0.08 12.5z"/>
  <path class="fil1" d="M546.85 403.42c47.23,14.01 73.99,-4.49 66.12,-34.52 -6.79,-25.93 -56.39,-29.83 -53.25,-56.09 1.24,-10.33 10.45,-16.27 21.68,-16.44 15.79,-0.24 18.18,7.27 25.63,8.88l0.31 -9.21c-20.5,-7.42 -46.63,-6.07 -55.98,9.96 -13.4,22.98 11.16,37.4 22.87,45.06 10.09,6.6 14.33,7.08 22.06,15.56 19.47,21.36 -7.1,48.99 -38.61,30.76 -5.63,-3.25 -4.87,-5.04 -10.76,-7.33l-0.07 13.38z"/>
  <path class="fil1" d="M23.91 293.7c2.3,17.19 2.3,97.33 -0.11,119.08 -2.83,25.55 -7.77,16.73 -13.15,28.84 46.21,-12.5 18.06,-92.38 28.9,-148.05l-15.65 0.13z"/>
 </g>
</svg>
