<?xml version="1.0" standalone="no"?>
<!DOCTYPE svg PUBLIC "-//W3C//DTD SVG 20010904//EN"
 "http://www.w3.org/TR/2001/REC-SVG-20010904/DTD/svg10.dtd">
<svg version="1.0" xmlns="http://www.w3.org/2000/svg"
 width="1200.000000pt" height="896.000000pt" viewBox="0 0 1200.000000 896.000000"
 preserveAspectRatio="xMidYMid meet">

<g transform="translate(0.000000,896.000000) scale(0.100000,-0.100000)"
fill="#000000" stroke="none">
<path d="M11990 8098 c-1 -5332 1 -8092 5 -8096 3 -3 5 2011 5 4476 0 2465 -2
4482 -5 4482 -3 0 -5 -388 -5 -862z"/>
<path d="M6156 6473 c-4 -4 0 -57 10 -120 4 -29 12 -36 78 -67 117 -54 192
-109 225 -168 16 -28 27 -56 24 -63 -2 -7 1 -16 6 -20 6 -3 9 -11 5 -16 -3 -5
-9 -62 -13 -127 -6 -101 -11 -127 -38 -183 -47 -101 -298 -407 -593 -726 -154
-164 -178 -186 -267 -239 -54 -33 -150 -97 -213 -145 -138 -103 -362 -323
-408 -401 -71 -120 -132 -337 -132 -467 0 -116 27 -231 79 -338 59 -122 96
-178 165 -251 75 -80 130 -116 241 -157 98 -36 102 -37 205 -32 76 4 134 14
210 36 156 47 220 81 277 149 26 31 89 104 138 162 50 58 122 145 160 194 38
49 87 102 109 118 52 38 158 92 213 108 132 40 113 152 -54 317 -146 145 -278
201 -494 210 -137 6 -215 -10 -249 -54 -18 -23 -20 -35 -14 -97 9 -98 -8 -136
-75 -170 -49 -25 -114 -34 -138 -18 -39 24 -48 170 -15 244 11 27 68 95 142
174 130 137 268 274 276 274 3 0 14 -9 26 -20 50 -46 148 -3 134 58 -4 15 -16
34 -26 44 -26 21 -25 30 3 56 29 27 38 27 61 1 14 -17 25 -20 54 -16 44 8 51
15 58 59 6 35 -6 56 -43 77 -14 7 -12 15 17 55 l33 46 31 -19 c17 -11 45 -21
61 -23 l30 -3 0 92 c0 59 3 89 9 83 6 -6 29 -10 53 -10 72 0 103 50 68 110 -8
14 -17 31 -21 38 -4 8 6 27 25 46 30 30 36 33 81 28 49 -4 50 -4 65 31 21 50
20 52 -26 102 -34 37 -39 47 -30 64 6 11 11 29 11 40 0 25 2 25 41 5 17 -8 45
-14 62 -12 31 3 32 5 35 54 3 60 -11 104 -34 104 -9 0 -32 -10 -51 -21 l-34
-21 3 43 3 44 47 -3 c44 -4 49 -2 68 30 12 19 19 46 18 63 -3 27 -8 31 -53 42
-58 15 -81 38 -90 94 -10 56 -66 197 -97 242 -61 91 -162 174 -256 214 -51 22
-190 61 -196 56z m414 -1363 c0 -5 -5 -10 -11 -10 -5 0 -7 5 -4 10 3 6 8 10
11 10 2 0 4 -4 4 -10z m-442 -953 c23 -7 40 -16 36 -20 -4 -4 6 -4 23 -1 68
13 236 -59 356 -153 69 -54 142 -131 133 -140 -2 -2 -32 8 -67 23 -74 31 -307
104 -425 132 -44 11 -90 24 -102 31 -11 6 -33 11 -48 11 -40 0 -113 46 -120
75 -7 29 8 52 39 59 32 6 125 -3 175 -17z m-522 -616 c-10 -16 -36 -13 -36 3
0 17 21 27 34 16 4 -5 5 -13 2 -19z m-6 -25 c0 -3 -4 -8 -10 -11 -5 -3 -10 -1
-10 4 0 6 5 11 10 11 6 0 10 -2 10 -4z"/>
<path d="M6382 4498 c-17 -17 -17 -165 1 -171 29 -10 37 6 37 77 0 78 -15 117
-38 94z"/>
<path d="M6777 4443 c-28 -32 -90 -128 -90 -140 0 -7 -4 -13 -9 -13 -4 0 -8
-8 -7 -17 0 -10 3 -13 5 -6 3 7 11 10 17 7 7 -2 23 13 37 33 14 20 40 54 58
76 33 40 42 77 19 77 -8 0 -21 -8 -30 -17z"/>
<path d="M7055 4262 c-61 -39 -134 -85 -162 -103 -53 -33 -65 -57 -39 -78 14
-12 60 18 107 72 13 14 62 45 109 67 132 62 135 64 135 85 0 38 -39 26 -150
-43z"/>
</g>
</svg>
