<?xml version="1.0" encoding="UTF-8"?>
<svg version="1.1" xmlns="http://www.w3.org/2000/svg" width="2000" height="2000">
<path d="M0 0 C1.10024506 0.00182281 2.20049011 0.00364563 3.33407593 0.00552368 C71.3625221 0.19389674 137.44712924 15.48337689 199.0625 44.3125 C200.01721191 44.75819336 200.97192383 45.20388672 201.95556641 45.66308594 C223.22947443 55.69787698 243.83373019 67.76050067 263.0625 81.3125 C263.75569336 81.79750977 264.44888672 82.28251953 265.16308594 82.78222656 C276.17553217 90.51355076 286.74705417 98.67631279 297.0625 107.3125 C297.94301025 108.04436523 297.94301025 108.04436523 298.84130859 108.79101562 C314.10626948 121.50536456 329.26513871 135.0672482 342.19921875 150.171875 C344.35136777 152.64436486 346.58230719 155.03521357 348.8125 157.4375 C354.0540491 163.19292646 358.85168983 169.22999868 363.58984375 175.40283203 C365.09958 177.36058352 366.6265426 179.30391848 368.15625 181.24609375 C381.52241385 198.32167463 393.29725579 216.4986964 404.0625 235.3125 C404.88186035 236.74360107 404.88186035 236.74360107 405.71777344 238.20361328 C437.42029301 294.11253472 456.62865154 357.27349357 462.0625 421.3125 C462.14935059 422.3015332 462.23620117 423.29056641 462.32568359 424.30957031 C464.78865919 455.99661357 464.40051282 488.81463082 460.0625 520.3125 C459.96539734 521.02007446 459.86829468 521.72764893 459.76824951 522.45666504 C449.32559603 597.51207217 421.31312168 670.2551543 376.0625 731.3125 C375.3509375 732.28703125 374.639375 733.2615625 373.90625 734.265625 C365.57087505 745.56066207 356.7735781 756.58145169 347.2578125 766.90625 C346.05303787 768.22678589 344.8559668 769.55511741 343.69726562 770.91625977 C338.43490159 777.07957015 332.75768582 782.80343371 327.03027344 788.5300293 C325.32455402 790.23793056 323.62700973 791.95368045 321.9296875 793.66992188 C316.00469141 799.62460588 310.00504973 805.22598372 303.40576172 810.43676758 C301.16250362 812.23244918 299.04434625 814.10983313 296.9375 816.0625 C220.16916705 884.90812243 113.15619171 920.3160474 -24.35083008 922.79711914 C-89.28323792 918.8900348 -150.2562948 901.66319809 -208.76953125 873.40625 C-209.51154785 873.05046875 -210.25356445 872.6946875 -211.01806641 872.328125 C-212.9375 871.3125 -212.9375 871.3125 -215.32421875 869.40625 C-222.91645366 866.228633 -235.38204745 871.91332183 -242.97265625 873.96875 C-244.36818513 874.3430407 -245.76382904 874.71690272 -247.15957642 875.09037781 C-250.17877209 875.89906979 -253.19724406 876.7103907 -256.21517944 877.52377319 C-261.10876658 878.84250447 -266.00402729 880.15494342 -270.8996582 881.46606445 C-272.16866927 881.80593935 -272.16866927 881.80593935 -273.46331692 882.1526804 C-275.20801748 882.61994225 -276.95272371 883.08718294 -278.69743538 883.55440331 C-281.40276211 884.27906037 -284.10794047 885.00426924 -286.81309509 885.72956848 C-300.68517898 889.4478859 -314.56363986 893.14187123 -328.4453125 896.82421875 C-329.47877367 897.09836357 -330.51223484 897.37250839 -331.57701302 897.65496063 C-342.07006475 900.43809042 -352.56375784 903.21879982 -363.05744648 905.99952698 C-368.2115289 907.36536575 -373.36554275 908.73146312 -378.51953125 910.09765625 C-380.02397954 910.49640331 -380.02397954 910.49640331 -381.55882072 910.90320587 C-394.33644243 914.29027577 -407.11050907 917.69027644 -419.87979317 921.10864449 C-422.21773251 921.73432218 -424.55584173 922.35936029 -426.89402771 922.9841156 C-428.00944553 923.28215198 -428.00944553 923.28215198 -429.14739704 923.5862093 C-430.60673292 923.97610943 -432.0660776 924.36597663 -433.52543163 924.75580883 C-437.64406773 925.85643137 -441.76150511 926.96139928 -445.87805271 928.0698061 C-448.91508385 928.88626788 -451.95376914 929.69653111 -454.9921875 930.5078125 C-456.06002975 930.79704086 -457.12787201 931.08626923 -458.22807312 931.38426208 C-459.19678848 931.64175735 -460.16550385 931.89925262 -461.16357422 932.16455078 C-461.99605682 932.38813263 -462.82853943 932.61171448 -463.68624878 932.84207153 C-465.9375 933.3125 -465.9375 933.3125 -469.9375 933.3125 C-469.28492436 925.97596786 -467.40554285 919.12177112 -465.44921875 912.03515625 C-465.07884726 910.67694679 -464.70903813 909.31858388 -464.33973694 907.96008301 C-463.53458764 905.00165659 -462.72631488 902.04410832 -461.91564941 899.08718872 C-459.89054988 891.69860529 -457.88324491 884.30517809 -455.87533188 876.9119091 C-455.38944306 875.12295598 -454.90336888 873.3340532 -454.41711807 871.54519844 C-450.21491636 856.08338534 -446.06619431 840.60763287 -441.94140625 825.125 C-441.64416531 824.00937935 -441.34692436 822.8937587 -441.04067612 821.74433136 C-438.31514364 811.51288251 -435.59265532 801.28062476 -432.87255859 791.04772949 C-431.09467825 784.35961073 -429.31563558 777.67180236 -427.53515625 770.984375 C-427.24880436 769.90880089 -426.96245247 768.83322678 -426.66742325 767.72505951 C-423.21913033 754.78029449 -419.73683613 741.84589503 -416.17361832 728.93226814 C-415.57224467 726.75260248 -414.97219952 724.57257531 -414.37252808 722.3924408 C-412.63583959 716.08263312 -410.88710023 709.77658334 -409.11425781 703.47680664 C-408.52754003 701.35575725 -407.941244 699.23459113 -407.35546875 697.11328125 C-406.95623451 695.72444733 -406.95623451 695.72444733 -406.54893494 694.30755615 C-404.49804937 686.80087988 -405.18425249 682.23716979 -408.859375 675.2890625 C-409.46628174 674.11988281 -410.07318848 672.95070313 -410.69848633 671.74609375 C-411.18449814 670.81772705 -411.18449814 670.81772705 -411.68032837 669.87060547 C-455.71295047 585.35700325 -470.97025877 487.19256857 -442.03515625 326.77636719 C-435.78960119 307.06730687 -428.63276655 288.07061343 -419.9375 269.3125 C-419.11699417 267.50790039 -418.29667584 265.70321552 -417.4765625 263.8984375 C-402.08873746 230.43459046 -381.86764891 199.35329275 -358.36865234 171.04785156 C-357.10111837 169.51089635 -355.85550793 167.95591834 -354.61328125 166.3984375 C-345.00952628 154.36267803 -334.16559755 143.4444848 -323.32937622 132.52914429 C-322.29323225 131.4849519 -321.25857239 130.43928431 -320.22555542 129.39199829 C-314.216788 123.30901378 -308.06635851 117.57789145 -301.35571289 112.25708008 C-299.01155066 110.37204704 -296.78056631 108.40593884 -294.5625 106.375 C-288.95000178 101.34651835 -282.97545906 96.81109761 -276.9375 92.3125 C-276.26541504 91.81057129 -275.59333008 91.30864258 -274.90087891 90.79150391 C-213.70873852 45.30043963 -141.92974932 15.74918211 -66.5625 4.5 C-65.27069824 4.30510986 -63.97889648 4.11021973 -62.64794922 3.90942383 C-41.84073421 0.97009057 -20.99894395 -0.07312796 0 0 Z M-78.9375 96.3125 C-79.91783203 96.52213379 -80.89816406 96.73176758 -81.90820312 96.94775391 C-138.54832578 109.38445427 -191.08661802 135.7309579 -235.9375 172.3125 C-236.47294434 172.74884766 -237.00838867 173.18519531 -237.56005859 173.63476562 C-253.01630544 186.30766769 -267.99858078 200.06017735 -280.9375 215.3125 C-281.71222656 216.19808594 -282.48695313 217.08367187 -283.28515625 217.99609375 C-304.81283358 242.76205318 -322.84440862 270.5594695 -336.92480469 300.19677734 C-337.62299789 301.65544232 -338.33270817 303.10863145 -339.05175781 304.55712891 C-358.67918021 344.13012394 -369.84463406 389.38269158 -372.9375 433.3125 C-372.99389648 434.10269531 -373.05029297 434.89289063 -373.10839844 435.70703125 C-373.486003 441.2392732 -373.75456043 446.77050715 -373.9375 452.3125 C-373.96086426 453.0039209 -373.98422852 453.6953418 -374.00830078 454.40771484 C-376.00625265 524.60466227 -355.77562911 601.44114051 -316.07421875 659.59375 C-315.64633057 660.22289307 -315.21844238 660.85203613 -314.77758789 661.50024414 C-313.65988456 663.10976388 -312.50726544 664.69488831 -311.3515625 666.27734375 C-308.41170794 672.58747356 -311.63045313 680.48105508 -313.40258789 686.92431641 C-313.65322998 687.85265289 -313.90387207 688.78098938 -314.16210938 689.73745728 C-314.98969734 692.79773183 -315.82491491 695.85586878 -316.66015625 698.9140625 C-317.24539927 701.07265147 -317.83014258 703.23137597 -318.41441345 705.39022827 C-319.95687593 711.08456822 -321.50571779 716.77715333 -323.05603027 722.46936035 C-324.60269627 728.15180281 -326.14405931 733.83568225 -327.68554688 739.51953125 C-328.28981346 741.74721598 -328.89409195 743.97489748 -329.49838257 746.20257568 C-329.94208757 747.83833179 -329.94208757 747.83833179 -330.39475632 749.50713348 C-331.27958685 752.76853423 -332.16483677 756.02982087 -333.05020142 759.29107666 C-337.68820975 776.37210984 -337.68820975 776.37210984 -342.28951836 793.46305466 C-342.79233789 795.33782721 -343.2975047 797.21196972 -343.80274963 799.08609009 C-344.09141403 800.16675751 -344.38007843 801.24742493 -344.67749023 802.36083984 C-344.92393784 803.28021332 -345.17038544 804.19958679 -345.42430115 805.14682007 C-346.01436108 807.26590828 -346.01436108 807.26590828 -345.9375 809.3125 C-339.54872229 808.67667166 -333.57953854 807.30679148 -327.38842773 805.63208008 C-326.36106506 805.35871826 -325.33370239 805.08535645 -324.27520752 804.80371094 C-320.88915676 803.90144499 -317.50514934 802.99174897 -314.12109375 802.08203125 C-311.74394824 801.44716746 -309.36667238 800.81279151 -306.98927307 800.17887878 C-300.72512768 798.50729213 -294.46266217 796.82949665 -288.20056152 795.15026855 C-280.66767118 793.13141837 -273.13289921 791.11960563 -265.59835148 789.10695171 C-258.61860221 787.24235898 -251.63922661 785.37641115 -244.66163731 783.50374889 C-242.52770302 782.93376473 -240.39253776 782.36836674 -238.25609493 781.80785847 C-233.00535357 780.42743313 -227.79239638 778.98039874 -222.60061646 777.39144897 C-221.57497872 777.09047397 -220.54934099 776.78949896 -219.49262333 776.4794035 C-217.57210404 775.91448122 -215.65905146 775.32314509 -213.75688076 774.69922352 C-206.39272896 772.58498024 -201.70800823 774.25825104 -195.0625 777.8125 C-192.08007812 779.49804688 -192.08007812 779.49804688 -189.84375 781.03125 C-189.01488281 781.58554688 -188.18601562 782.13984375 -187.33203125 782.7109375 C-186.54183594 783.23945312 -185.75164062 783.76796875 -184.9375 784.3125 C-182.16933516 786.0197817 -179.36809165 787.66764588 -176.5625 789.3125 C-175.88517822 789.71726562 -175.20785645 790.12203125 -174.51000977 790.5390625 C-95.86721295 837.06092626 4.99657603 846.09381387 92.61328125 824.21484375 C164.84886094 805.31742709 233.29797399 765.48133309 282.0625 708.3125 C282.83980469 707.42433594 283.61710937 706.53617188 284.41796875 705.62109375 C319.73870905 664.97786715 346.52523361 616.19417456 361.0625 564.3125 C361.3419043 563.31653809 361.62130859 562.32057617 361.90917969 561.29443359 C367.08926716 542.4862534 370.53179232 523.62744664 373.0625 504.3125 C373.19527344 503.31541016 373.32804687 502.31832031 373.46484375 501.29101562 C385.28963972 407.95484522 355.7374267 310.40680627 299.23046875 236.09765625 C295.59506931 231.42731427 291.8554684 226.85538535 288.0625 222.3125 C287.27359375 221.33667969 286.4846875 220.36085938 285.671875 219.35546875 C278.91642215 211.1198743 271.50802761 203.54291983 264 196 C263.49338837 195.48821198 262.98677673 194.97642395 262.46481323 194.4491272 C255.66752148 187.59715927 248.62544713 181.32754372 241.0625 175.3125 C240.03493943 174.44912429 239.01153936 173.58071749 237.99609375 172.703125 C181.99411041 124.67638499 109.09704103 96.36553887 36.0625 89.3125 C35.1331665 89.2182373 34.20383301 89.12397461 33.24633789 89.02685547 C22.72197802 88.07804212 12.1838459 88.06896733 1.625 88.0625 C0.63139465 88.06182526 -0.36221069 88.06115051 -1.38592529 88.06045532 C-27.71285001 88.0887218 -53.16242938 90.77731554 -78.9375 96.3125 Z " fill="#58510D" transform="translate(1002.9375,457.6875)"/>
<path d="M0 0 C1.2905738 1.05973946 2.56153932 2.14377857 3.8125 3.25 C4.45703125 3.80171875 5.1015625 4.3534375 5.765625 4.921875 C19.31637317 17.40563513 26.28799883 35.86219489 33.8125 52.25 C34.27285645 53.25208496 34.73321289 54.25416992 35.20751953 55.28662109 C44.70559008 76.16806659 52.12832903 97.32240618 43.9375 120 C38.79714146 131.56580671 29.73810965 141.53483354 21.37841797 150.91381836 C17.3395677 155.51816889 14.5803115 160.12128042 13.8125 166.25 C15.58664471 173.81148305 20.16101315 180.31873344 24.5 186.625 C25.12285889 187.5432959 25.74571777 188.4615918 26.38745117 189.40771484 C31.00417325 196.17412616 35.7351546 202.8193357 40.8125 209.25 C41.52535156 210.15492188 42.23820313 211.05984375 42.97265625 211.9921875 C56.45855946 228.78415869 71.68352924 245.13800026 88.8125 258.25 C89.78960938 259.03246094 90.76671875 259.81492187 91.7734375 260.62109375 C112.427488 277.06867592 152.50496447 308.33310885 179.8125 305.25 C188.63892351 301.01331671 193.3310567 290.94509512 198.1875 282.875 C206.71992265 268.93557098 215.3954525 255.26868292 231.8125 250.25 C232.40675781 250.05921875 233.00101563 249.8684375 233.61328125 249.671875 C257.2748402 245.13289033 279.19767348 257.97345462 298.6796875 269.77734375 C302.09834569 271.84551072 305.57242668 273.78482075 309.08105469 275.6953125 C324.46314067 284.10291229 339.29435777 294.22148349 345.921875 311.0703125 C348.58838716 320.59022873 347.17982719 331.10464548 343.8125 340.25 C343.4103125 341.34957031 343.008125 342.44914062 342.59375 343.58203125 C332.02369479 370.21269814 310.64846679 387.85586145 285.0625 399.4375 C237.34841642 419.04675943 188.62235617 403.97797453 143.01171875 385.3359375 C104.88373319 369.26707527 69.3775963 348.0942168 37.8125 321.25 C37.27850586 320.79947266 36.74451172 320.34894531 36.19433594 319.88476562 C23.80357055 309.42765771 11.98261138 298.50867217 0.5 287.0625 C-0.21446289 286.35205536 -0.21446289 286.35205536 -0.94335938 285.6272583 C-6.58348725 280.01119821 -12.03187186 274.31338375 -17.1875 268.25 C-18.1721159 267.12016808 -19.15776057 265.99123172 -20.14453125 264.86328125 C-31.36475945 251.93100099 -41.47707279 238.34352521 -51.1875 224.25 C-51.75017578 223.43466797 -52.31285156 222.61933594 -52.89257812 221.77929688 C-61.15828112 209.74554156 -68.80341551 197.48007508 -75.84423828 184.68994141 C-76.70643721 183.12381707 -77.57413615 181.56070095 -78.44873047 180.00146484 C-89.27370369 160.70095478 -98.22608791 139.32285055 -101.1875 117.25 C-101.35378906 116.05697266 -101.35378906 116.05697266 -101.5234375 114.83984375 C-105.19742678 82.71726184 -99.00212304 48.89250075 -78.6015625 23.12890625 C-77.80492187 22.17886719 -77.00828125 21.22882812 -76.1875 20.25 C-75.7553418 19.73421387 -75.32318359 19.21842773 -74.87792969 18.68701172 C-57.24713516 -2.10258053 -25.28047735 -17.79356675 0 0 Z " fill="#58510D" transform="translate(882.1875,715.75)"/>
</svg>
